<?xml version="1.0" standalone="no"?>
<!DOCTYPE svg PUBLIC "-//W3C//DTD SVG 1.1//EN" "http://www.w3.org/Graphics/SVG/1.1/DTD/svg11.dtd" >
<svg xmlns="http://www.w3.org/2000/svg" xmlns:xlink="http://www.w3.org/1999/xlink" version="1.1">
<metadata></metadata>
<defs>
<font id="ocl3" horiz-adv-x="563" >
<font-face units-per-em="850" ascent="680" descent="-170" />
<missing-glyph horiz-adv-x="206" />
<glyph unicode=" "  horiz-adv-x="206" />
<glyph unicode="&#x09;" horiz-adv-x="206" />
<glyph unicode="&#xa0;" horiz-adv-x="206" />
<glyph unicode="!" horiz-adv-x="356" d="M162 244h-56v476h56v-476zM250 720v-476h-56v476h56zM179 -10q-32 0 -55.5 23t-23.5 56q0 32 23.5 55.5t55.5 23.5t55.5 -23.5t23.5 -55.5q0 -33 -23.5 -56t-55.5 -23zM179 39q12 0 20.5 9t8.5 22q0 12 -8.5 20.5t-20.5 8.5t-20.5 -8.5t-8.5 -20.5q0 -13 8.5 -22t20.5 -9 z" />
<glyph unicode="#" horiz-adv-x="678" d="M194 347h-56v373h56v-373zM282 347h-56v373h56v-373zM643 489h-331v55h82v176h56v-176h32v176h56v-176h105v-55zM107 489h-74v55h74v-55zM107 401h-74v55h74v-55zM643 401h-331v55h331v-55zM396 373h56v-373h-56v373zM484 373h56v-373h-56v373zM35 319h331v-55h-331v55z M645 319v-55h-74v55h74zM35 231h331v-55h-82v-176h-56v176h-32v-176h-56v176h-105v55zM571 231h74v-55h-74v55z" />
<glyph unicode="$" horiz-adv-x="541" d="M244 291q-56 16 -95.5 43.5t-59 61.5t-28.5 65t-9 65q1 66 39 119.5t99 76.5v78h56v-67l14 1q12 0 18 -1v67h56v-80q31 -13 55 -32q83 -64 83 -171h-55q0 80 -62 128q-40 32 -95 34q-65 -1 -108.5 -45t-45.5 -108q3 -140 153 -182q127 -35 127 -143q0 -53 -38 -90.5 t-90 -37.5q-44 0 -78 27q-49 38 -49 103h54q0 -37 29 -60q21 -16 44 -16q30 0 51 22t22 53q0 65 -87 89zM282 427q76 -20 133 -76.5t57 -146.5q0 -71 -38.5 -126t-99.5 -78v-84h-56v71q-7 -1 -20 -1h-12v-70h-56v81q-37 13 -63 34q-83 66 -83 172h55q0 -81 62 -129 q42 -33 97 -33q36 0 64.5 12.5t46 31.5t29 42t16 42.5t4.5 34.5q0 60 -38.5 105t-111.5 66q-128 35 -130 150q1 50 36 85.5t86 36.5q40 0 75 -27q50 -39 50 -103h-55q0 38 -28 60q-19 15 -42 15q-29 0 -47.5 -19.5t-19.5 -47.5q0 -15 3 -26.5t11.5 -25.5t27.5 -26t47 -20z " />
<glyph unicode="%" horiz-adv-x="714" d="M194 734q54 0 92.5 -38.5t38.5 -92.5t-38.5 -92.5t-92.5 -38.5t-92.5 38.5t-38.5 92.5t38.5 92.5t92.5 38.5zM505 530l-326 -333v-197h-56v219l326 334v167h56v-190zM593 720v-226l-326 -333v-161h-56v184l326 333v203h56zM194 682q-33 0 -56 -23.5t-23 -55.5 q0 -33 23 -56t56 -23q32 0 55.5 23t23.5 56q0 32 -23.5 55.5t-55.5 23.5zM194 651q-20 0 -34 -14.5t-14 -34.5t14 -33.5t34 -13.5t34 13.5t14 33.5t-14 34.5t-34 14.5zM520 248q54 0 92.5 -38.5t38.5 -92.5t-38.5 -92.5t-92.5 -38.5t-92.5 38.5t-38.5 92.5t38.5 92.5 t92.5 38.5zM520 196q-33 0 -56 -23.5t-23 -55.5q0 -33 23 -56t56 -23q32 0 55.5 23t23.5 56q0 32 -23.5 55.5t-55.5 23.5zM520 165q-20 0 -34 -14.5t-14 -34.5t14 -33.5t34 -13.5t34 13.5t14 33.5t-14 34.5t-34 14.5z" />
<glyph unicode="&#x26;" horiz-adv-x="705" d="M502 514h-55q0 68 -48 116.5t-116 48.5t-116 -47.5t-48 -111.5q0 -68 48 -118.5t116 -50.5v-55q-90 0 -155 66.5t-65 157.5q0 87 65 150.5t155 63.5q91 0 155 -64.5t64 -155.5zM414 514h-55q0 32 -22.5 54.5t-53.5 22.5t-53.5 -21.5t-22.5 -49.5q0 -31 22.5 -56t53.5 -25 v-55q-54 0 -93 40.5t-39 95.5q0 51 39 88.5t93 37.5t92.5 -38.5t38.5 -93.5zM101 343q-38 -63 -38 -138q0 -90 64.5 -154.5t155.5 -64.5q90 0 154 64t65 153v70q81 11 135.5 73t54.5 145h-56q0 -68 -48 -116t-116 -48h-25v-124q-1 -67 -49 -114t-115 -47q-68 0 -116 47.5 t-48 115.5q0 59 27 103q-27 17 -45 35zM173 292q-22 -41 -22 -87q0 -54 38.5 -92.5t93.5 -38.5q54 0 92.5 38.5t38.5 92.5v154h58q55 0 93.5 38.5t38.5 93.5h-56q0 -31 -22 -53.5t-54 -22.5h-113v-210q0 -31 -22.5 -53t-53.5 -22t-53.5 22t-22.5 53q0 38 21 65q-27 7 -55 22 z" />
<glyph unicode="(" horiz-adv-x="365" d="M302 855v-55q-76 0 -129.5 -53.5t-53.5 -129.5v-522q0 -76 53.5 -129.5t129.5 -53.5v-56q-99 0 -169 70t-70 169v522q0 98 70 168t169 70zM302 767v-55q-40 0 -67.5 -28t-27.5 -67v-522q0 -40 27.5 -67.5t67.5 -27.5v-56q-62 0 -106.5 44.5t-44.5 106.5v522 q0 62 44.5 106t106.5 44z" />
<glyph unicode=")" horiz-adv-x="365" d="M70 800v55q99 0 169 -70t70 -168v-522q0 -99 -70 -169t-169 -70v56q76 0 129.5 53.5t53.5 129.5v522q0 76 -53.5 129.5t-129.5 53.5zM70 712v55q62 0 106.5 -44t44.5 -106v-522q0 -62 -44.5 -106.5t-106.5 -44.5v56q40 0 67.5 27.5t27.5 67.5v522q0 39 -27.5 67t-67.5 28 z" />
<glyph unicode="+" horiz-adv-x="503" d="M235 175h-55v417h55v-417zM323 175h-55v417h55v-417zM151 399h-108v56h108v-56zM460 399h-108v56h108v-56zM151 311h-108v56h108v-56zM460 311h-108v56h108v-56z" />
<glyph unicode="," horiz-adv-x="206" d="M39 109v-65l-46 -44v-104h56v89l46 44v80h-56zM183 109v-104l-46 -43v-66h-56v81l46 43v89h56z" />
<glyph unicode="-" horiz-adv-x="376" d="M313 395h-250v55h250v-55zM313 307h-250v55h250v-55z" />
<glyph unicode="." horiz-adv-x="258" d="M129 -10q-32 0 -55.5 23t-23.5 56q0 32 23.5 55.5t55.5 23.5t55.5 -23.5t23.5 -55.5q0 -33 -23.5 -56t-55.5 -23zM129 39q12 0 20.5 9t8.5 22q0 12 -8.5 20.5t-20.5 8.5t-20.5 -8.5t-8.5 -20.5q0 -13 8.5 -22t20.5 -9z" />
<glyph unicode="/" horiz-adv-x="536" d="M415 530l-326 -333v-197h-56v219l326 334v167h56v-190zM503 720v-226l-326 -333v-161h-56v184l326 333v203h56z" />
<glyph unicode="0" horiz-adv-x="543" d="M454 225h56q0 -99 -70 -169t-168 -70q-99 0 -169 70t-70 169v269q0 98 70 168t169 70q98 0 168 -70t70 -168v-242h-56v242q0 76 -53.5 129.5t-128.5 53.5q-76 0 -129.5 -53.5t-53.5 -129.5v-269q0 -76 53.5 -129.5t129.5 -53.5q75 0 128.5 53.5t53.5 129.5zM366 225h56 q0 -62 -44 -106.5t-106 -44.5t-106.5 44.5t-44.5 106.5v269q0 62 44.5 106t106.5 44t106 -44t44 -106v-242h-56v242q0 39 -27.5 67t-66.5 28q-40 0 -67.5 -28t-27.5 -67v-269q0 -40 27.5 -67.5t67.5 -27.5q39 0 66.5 27.5t27.5 67.5z" />
<glyph unicode="1" horiz-adv-x="463" d="M55 720h258v-576h137v-56h-192v577h-203v55zM225 632v-544h-192v56h137v433h-115v55h170zM33 56v-56h417v56h-417z" />
<glyph unicode="2" horiz-adv-x="528" d="M489 501q0 102 -65 166.5t-165 66.5h-3q-96 -2 -163 -68.5t-67 -170.5h56q0 82 50 132.5t124 50.5h3q75 0 124.5 -49.5t49.5 -127.5q0 -151 -162 -199q-75 -22 -107.5 -56t-32.5 -89v-69h367v56h-311v14q0 18 4 30t27 30t67 30q60 17 102 46t63 65t30 70t9 72zM401 499 q1 65 -40 106t-104 41q-59 0 -101 -42.5t-42 -108.5h56q0 44 24.5 69.5t62.5 25.5q39 0 63.5 -24.5t24.5 -66.5q0 -18 -3 -31.5t-12.5 -30t-30.5 -29.5t-54 -23q-195 -57 -202 -219v-166h455v56h-399v110q3 62 42.5 102t122.5 64q135 38 137 167z" />
<glyph unicode="3" horiz-adv-x="519" d="M392 665v-65l-165 -182v-20h26q75 0 126 -51t51 -121v-3q0 -78 -49.5 -129.5t-124.5 -51.5h-3q-58 0 -105 36q-69 52 -69 147h-56q0 -122 91 -191q60 -46 139 -48h3q99 2 164 68t66 169v3q-1 76 -46 135t-116 82l124 136v141h-374v-55h318zM74 577h178l-113 -126v-141 h101q47 0 74.5 -24.5t27.5 -60.5q0 -42 -24.5 -68.5t-63.5 -26.5q-30 0 -53 18q-34 26 -34 77h-56q0 -78 56 -121q41 -30 87 -30q62 0 103 42.5t41 108.5q0 57 -43.5 99t-111.5 42h-49v64l166 183v19h-286v-55z" />
<glyph unicode="4" horiz-adv-x="545" d="M349 300h33v365h-66l-217 -391v-62h417v-55h-473v132l241 431h153v-420h79v-55h-385v21l204 366h14v-332zM294 300v144l-80 -144h80zM349 128v-128h-56v128h56zM437 128v-128h-56v128h56z" />
<glyph unicode="5" horiz-adv-x="489" d="M101 225h56q0 -44 24.5 -69.5t62.5 -25.5q40 0 64 25.5t24 69.5q0 36 -27.5 60.5t-75.5 24.5h-162v410h349v-55h-294v-299h113q66 0 109.5 -42t43.5 -99q0 -66 -41 -108.5t-103 -42.5q-59 0 -101 42.5t-42 108.5zM13 225h56q0 -82 50 -132.5t124 -50.5h3q75 0 124.5 51.5 t49.5 129.5v3q0 70 -51 121t-126 51h-88v234h261v-55h-206v-123h33q99 0 165 -69t68 -159v-3q-1 -103 -66 -169t-165 -68h-2q-96 2 -163 68.5t-67 170.5z" />
<glyph unicode="6" horiz-adv-x="569" d="M237 384v59q29 6 56 6h1q113 0 183 -89q49 -63 49 -141v-1q0 -54 -23.5 -102t-66.5 -81q-61 -49 -141 -49q-54 0 -102 23.5t-81 66.5q-49 61 -49 140v285q0 54 23.5 102.5t66.5 81.5q61 49 141 49q54 0 102 -23.5t81 -66.5q49 -63 49 -141h-56q0 61 -37 107 q-52 68 -139 68q-59 0 -107 -37q-68 -53 -68 -140v-285q0 -60 37 -106q52 -68 139 -68q60 0 107 36q68 54 68 141q0 62 -37 106q-51 67 -139 69q-32 -2 -57 -10zM237 284v65q27 12 56 12q71 0 115 -56q30 -37 30 -86q0 -71 -56 -115q-37 -30 -86 -30q-71 0 -115 56 q-30 38 -30 87v284q0 71 56 115q39 30 86 30q70 0 115 -56q30 -38 30 -87h-56q0 29 -18 53q-26 34 -71 34q-29 0 -52 -18q-34 -26 -34 -71v-284q0 -31 18 -53q26 -34 71 -34q30 0 52 18q34 26 34 71q0 29 -18 52q-26 33 -71 35q-30 -2 -52 -19q-2 -2 -4 -3z" />
<glyph unicode="7" horiz-adv-x="483" d="M3 720h447v-177l-208 -307v-236h-56v253l206 303l2 4v105h-391v55zM362 632v-62l-208 -307v-263h-56v280l201 297h-296v55h359z" />
<glyph unicode="8" horiz-adv-x="539" d="M400 414q34 49 34 106q0 64 -48.5 111.5t-115.5 47.5q-68 0 -116 -47.5t-48 -111.5q3 -130 153 -172q142 -39 142 -133q0 -61 -38 -101t-93 -40t-93.5 40t-38.5 101q0 44 24 80q24 -13 52 -21q-20 -26 -20 -59q0 -38 22 -61.5t54 -23.5t54 23t22 57q0 57 -102 85 q-106 30 -149.5 91.5t-44.5 133.5q0 87 65 150.5t155 63.5t154.5 -63.5t64.5 -150.5q0 -74 -45 -141q-18 18 -44 35zM316 447q30 30 30 73q0 28 -22.5 49.5t-53.5 21.5q-32 0 -54.5 -20.5t-21.5 -50.5q0 -14 3 -24.5t11 -23t26.5 -23t47.5 -18.5q36 -10 69 -26t66 -41 t52.5 -63.5t19.5 -85.5q0 -97 -64 -163t-155 -66t-155.5 66t-64.5 163q0 73 40 132q25 -25 44 -37q-28 -43 -28 -95q0 -74 47.5 -123.5t116.5 -49.5q68 0 116 49.5t48 123.5q0 57 -45 99.5t-121 64.5q-129 35 -130 141q0 51 39 88.5t93 37.5t92.5 -37.5t38.5 -88.5 q0 -46 -30 -93q-21 11 -55 20z" />
<glyph unicode="9" horiz-adv-x="569" d="M332 336v-58q-25 -7 -56 -7h-1q-113 0 -183 89q-49 63 -49 141v1q0 54 23.5 102t66.5 81q61 49 141 49q54 0 102 -23.5t81 -66.5q49 -61 49 -140v-285q0 -54 -23.5 -102.5t-66.5 -81.5q-61 -49 -141 -49q-54 0 -102 23.5t-81 66.5q-49 63 -49 141h56q0 -61 37 -107 q52 -68 139 -68q59 0 107 37q68 53 68 140v285q0 60 -37 106q-52 68 -139 68q-60 0 -107 -36q-68 -54 -68 -141q0 -62 37 -106q51 -67 139 -69q33 2 57 10zM332 427v-56q-26 -12 -56 -12q-71 0 -115 56q-30 37 -30 86q0 71 56 115q37 30 86 30q71 0 115 -56q30 -38 30 -87 v-284q0 -71 -56 -115q-39 -30 -86 -30q-70 0 -115 56q-30 38 -30 87h56q0 -29 18 -53q26 -34 71 -34q30 0 52 18q34 26 34 71v284q0 31 -18 53q-26 34 -71 34q-29 0 -52 -18q-34 -26 -34 -71q0 -29 18 -52q26 -33 71 -35q39 3 56 13z" />
<glyph unicode=":" horiz-adv-x="200" d="M100 424q-32 0 -55.5 23t-23.5 56q0 32 23.5 55.5t55.5 23.5t55.5 -23.5t23.5 -55.5q0 -33 -23.5 -56t-55.5 -23zM100 473q12 0 20.5 9t8.5 22q0 12 -8.5 20.5t-20.5 8.5t-20.5 -8.5t-8.5 -20.5q0 -13 8.5 -22t20.5 -9zM100 142q-32 0 -55.5 23t-23.5 56q0 32 23.5 55.5 t55.5 23.5t55.5 -23.5t23.5 -55.5q0 -33 -23.5 -56t-55.5 -23zM100 191q12 0 20.5 9t8.5 22q0 12 -8.5 20.5t-20.5 8.5t-20.5 -8.5t-8.5 -20.5q0 -13 8.5 -22t20.5 -9z" />
<glyph unicode=";" horiz-adv-x="227" d="M119 397q-32 0 -55.5 23t-23.5 56q0 32 23.5 55.5t55.5 23.5t55.5 -23.5t23.5 -55.5q0 -33 -23.5 -56t-55.5 -23zM119 446q12 0 20.5 9t8.5 22q0 12 -8.5 20.5t-20.5 8.5t-20.5 -8.5t-8.5 -20.5q0 -13 8.5 -22t20.5 -9zM39 109v-65l-46 -44v-104h56v89l46 44v80h-56z M183 109v-104l-46 -43v-66h-56v81l46 43v89h56z" />
<glyph unicode="=" horiz-adv-x="543" d="M480 459h-417v55h417v-55zM480 371h-417v55h417v-55zM480 286h-417v55h417v-55zM480 198h-417v55h417v-55z" />
<glyph unicode="?" horiz-adv-x="532" d="M351 366h-56q0 -15 -11 -23q-8 -6 -18 -6q-12 0 -21 8t-9 19q0 12 9 20.5t21 8.5q85 2 135 67q36 47 36 101v1v1q-1 71 -51 120.5t-120 50.5h-2q-57 0 -104 -36q-67 -51 -67 -137h55q0 58 46 93q30 24 70 24h2q47 0 81 -34t35 -81v-1v-1q-1 -38 -25 -67q-34 -44 -91 -46 q-30 0 -52 -18q-33 -25 -33 -66q1 -35 25.5 -59t59.5 -24q30 0 52 18q33 25 33 67zM439 366h-56q0 -57 -46 -93q-30 -24 -71 -24q-48 0 -82 33.5t-36 80.5v3q2 55 46 90q30 24 70 24q41 0 67 34q18 21 18 48q0 34 -24.5 59t-59.5 25q-30 0 -51 -18q-33 -25 -33 -67h55 q0 12 8.5 20.5t20.5 8.5q11 0 20 -8.5t9 -19.5q0 -12 -9 -19t-21 -7q-57 0 -104 -36q-65 -50 -67 -134v-3q1 -71 51.5 -120.5t121.5 -49.5q60 0 105 36q68 52 68 137zM259 -10q-32 0 -55.5 23t-23.5 56q0 32 23.5 55.5t55.5 23.5t55.5 -23.5t23.5 -55.5q0 -33 -23.5 -56 t-55.5 -23zM259 39q12 0 20.5 9t8.5 22q0 12 -8.5 20.5t-20.5 8.5t-20.5 -8.5t-8.5 -20.5q0 -13 8.5 -22t20.5 -9z" />
<glyph unicode="@" horiz-adv-x="543" d="M336 472v-8q-32 -22 -32 -61q0 -31 22 -53t53 -22t53 21.5t22 52.5v92q0 77 -53.5 131t-128.5 54q-76 0 -129.5 -54t-53.5 -131v-269q0 -76 53.5 -129.5t129.5 -53.5q75 0 128.5 53.5t53.5 129.5h56q0 -99 -70 -169t-168 -70q-99 0 -169 70t-70 169v269q0 100 70 170 t169 70q98 0 168 -70t70 -170v-92q-1 -54 -39 -92.5t-92 -38.5t-92.5 39t-38.5 93q0 42 23.5 74.5t58.5 43.5q6 -12 6 -49zM272 591q-40 0 -67.5 -28t-27.5 -69v-269q0 -40 27.5 -67.5t67.5 -27.5q39 0 66.5 27.5t27.5 67.5h56q0 -62 -44 -106.5t-106 -44.5t-106.5 44.5 t-44.5 106.5v269q0 64 44.5 108t106.5 44t106 -44t44 -108v-90q0 -19 -12.5 -31.5t-30.5 -12.5t-30.5 12.5t-12.5 30.5q0 30 30 41v47q0 46 -27.5 73t-66.5 27z" />
<glyph unicode="A" d="M464 299v103l-131 263h-103l-131 -263v-402h-56v415l152 305h173l152 -305v-172h-302v56h246zM218 387h156l-92 184l-95 -190v-381h-56v394l119 238h63l119 -238v-63h-214v56zM432 215h-56v-215h56v215zM520 215v-215h-56v215h56z" />
<glyph unicode="B" horiz-adv-x="552" d="M458 368q61 -64 61 -150q0 -90 -63.5 -154t-153.5 -64h-239v720h197q88 -1 150.5 -63.5t62.5 -146.5q0 -92 -62.5 -154.5t-153.5 -62.5h-20v56h20q66 0 113.5 47t47.5 114q0 61 -46.5 107.5t-111.5 47.5h-141v-609h183q67 0 114.5 47.5t47.5 114.5q0 59 -43 109 q20 18 37 41zM393 308q38 -38 38 -90q0 -54 -38 -92t-91 -38h-151v544h106q53 0 90.5 -36.5t37.5 -85.5q0 -53 -37.5 -91t-90.5 -38h-20v56h20q30 0 51.5 21.5t21.5 51.5q0 26 -21.5 46.5t-51.5 20.5h-50v-433h95q31 0 52.5 22t21.5 53q0 33 -31 62q25 12 48 27z" />
<glyph unicode="C" horiz-adv-x="529" d="M454 225h56q0 -99 -70 -169t-168 -70q-99 0 -169 70t-70 169v271q0 98 70 168t169 70q98 0 168 -70t70 -168h-56q0 76 -53.5 129.5t-128.5 53.5q-76 0 -129.5 -53.5t-53.5 -129.5v-271q0 -76 53.5 -129.5t129.5 -53.5q75 0 128.5 53.5t53.5 129.5zM366 225h56 q0 -62 -44 -106.5t-106 -44.5t-106.5 44.5t-44.5 106.5v271q0 62 44.5 106t106.5 44t106 -44t44 -106h-56q0 39 -27.5 67t-66.5 28q-40 0 -67.5 -28t-27.5 -67v-271q0 -40 27.5 -67.5t67.5 -27.5q39 0 66.5 27.5t27.5 67.5z" />
<glyph unicode="D" horiz-adv-x="573" d="M63 720h239q98 0 168 -70t70 -168v-243q0 -99 -70 -169t-168 -70h-239v720zM484 239v243q0 76 -53.5 129.5t-128.5 53.5h-183v-609h183q75 0 128.5 53.5t53.5 129.5zM151 632h151q62 0 106 -44t44 -106v-243q0 -62 -44 -106.5t-106 -44.5h-151v544zM396 239v243 q0 39 -27.5 67t-66.5 28h-95v-433h95q39 0 66.5 27.5t27.5 67.5z" />
<glyph unicode="E" horiz-adv-x="553" d="M500 665h-381v-318h308v-55h-364v428h437v-55zM500 577h-293v-142h220v-55h-276v252h349v-55zM119 56h391v-56h-447v263h56v-207zM207 144h303v-56h-359v175h56v-119z" />
<glyph unicode="F" horiz-adv-x="503" d="M119 665v-319h308v-55h-364v429h447v-55h-391zM510 577h-303v-143h220v-55h-276v253h359v-55zM119 0h-56v263h56v-263zM207 0h-56v263h56v-263z" />
<glyph unicode="G" horiz-adv-x="543" d="M510 496h-56q0 76 -53.5 129.5t-128.5 53.5q-76 0 -129.5 -53.5t-53.5 -129.5v-271q0 -76 53.5 -129.5t129.5 -53.5q75 0 128.5 53.5t53.5 129.5v155h-174v55h230v-210q0 -99 -70 -169t-168 -70q-99 0 -169 70t-70 169v271q0 98 70 168t169 70q98 0 168 -70t70 -168z M422 496h-56q0 39 -27.5 67t-66.5 28q-40 0 -67.5 -28t-27.5 -67v-271q0 -40 27.5 -67.5t67.5 -27.5q39 0 66.5 27.5t27.5 67.5v67h-86v55h142v-122q0 -62 -44 -106.5t-106 -44.5t-106.5 44.5t-44.5 106.5v271q0 62 44.5 106t106.5 44t106 -44t44 -106z" />
<glyph unicode="H" horiz-adv-x="603" d="M63 720h56v-720h-56v720zM151 720h56v-720h-56v720zM452 379h-215v55h159v286h56v-341zM540 720v-429h-303v55h247v374h56zM396 263h56v-263h-56v263zM484 263h56v-263h-56v263z" />
<glyph unicode="I" horiz-adv-x="419" d="M376 665h-333v55h333v-55zM192 88h-149v56h95v433h-95v55h151zM376 577h-94v-433h94v-56h-150v544h150v-55zM376 0h-333v56h333v-56z" />
<glyph unicode="J" horiz-adv-x="540" d="M421 664v-439q0 -76 -53.5 -129.5t-128.5 -53.5q-76 0 -129.5 53.5t-53.5 129.5h-56q0 -99 70 -169t169 -70q98 0 168 70t70 169v495h-362v-56h306zM115 576h218v-351q0 -40 -27.5 -67.5t-66.5 -27.5q-40 0 -67.5 27.5t-27.5 67.5h-56q0 -62 44.5 -106.5t106.5 -44.5 t106 44.5t44 106.5v407h-274v-56z" />
<glyph unicode="K" horiz-adv-x="583" d="M119 720h-56v-720h56v720zM207 0v720h-56v-720h56zM494 516l-200 -176h-57v-55h78l235 206v229h-56v-204zM406 720v-164l-145 -128h-24v-55h45l180 158v189h-56zM550 242v-242h-56v219l-98 99l42 37zM462 205v-205h-56v182l-75 77l41 37z" />
<glyph unicode="L" horiz-adv-x="461" d="M119 56h349v-56h-405v720h56v-664zM207 720v-576h261v-56h-317v632h56z" />
<glyph unicode="M" horiz-adv-x="699" d="M583 665h-69l-155 -334h-19l-155 334h-69v-665h-56v720h163l126 -269l127 269h163v-720h-56v665zM495 0v409l-75 -166h-141l-75 166v-409h-56v632h14l155 -333h64l156 333h14v-632h-56z" />
<glyph unicode="N" horiz-adv-x="603" d="M452 81h-15l-250 584h-68v-665h-56v720h161l172 -403v403h56v-639zM540 720v-727h-161l-172 403v-396h-56v632h15l250 -583h68v671h56z" />
<glyph unicode="O" horiz-adv-x="543" d="M272 733q98 0 168 -70t70 -168v-270q0 -99 -70 -169t-168 -70q-99 0 -169 70t-70 169v270q0 98 70 168t169 70zM454 225v270q0 76 -53.5 129.5t-128.5 53.5q-76 0 -129.5 -53.5t-53.5 -129.5v-270q0 -76 53.5 -129.5t129.5 -53.5q75 0 128.5 53.5t53.5 129.5zM272 645 q62 0 106 -44t44 -106v-270q0 -62 -44 -106.5t-106 -44.5t-106.5 44.5t-44.5 106.5v270q0 62 44.5 106t106.5 44zM366 225v270q0 39 -27.5 67t-66.5 28q-40 0 -67.5 -28t-27.5 -67v-270q0 -40 27.5 -67.5t67.5 -27.5q39 0 66.5 27.5t27.5 67.5z" />
<glyph unicode="P" horiz-adv-x="553" d="M119 665h183q75 0 128.5 -53.5t53.5 -129.5t-53.5 -129.5t-128.5 -53.5h-65v-56h65q98 0 168 70t70 169q0 98 -70 168t-168 70h-239v-720h56v665zM151 632h151q62 0 106 -44t44 -106t-44 -106.5t-106 -44.5h-65v56h65q39 0 66.5 27.5t27.5 67.5q0 39 -27.5 67t-66.5 28 h-95v-577h-56v632z" />
<glyph unicode="Q" horiz-adv-x="544" d="M272 -14v56q-76 0 -129.5 53.5t-53.5 129.5v270q0 76 53.5 129.5t129.5 53.5q75 0 128.5 -53.5t53.5 -129.5v-229h56v229q0 98 -70 168t-168 70q-99 0 -169 -70t-70 -168v-270q0 -99 70 -169t169 -70zM366 42h56q-7 57 -50 95.5t-100 38.5v-46q-40 0 -67.5 27.5 t-27.5 67.5v270q0 39 27.5 67t67.5 28q39 0 66.5 -28t27.5 -67v-229h56v229q0 62 -44 106t-106 44t-106.5 -44t-44.5 -106v-270q0 -62 44.5 -106.5t106.5 -44.5v46q35 0 61.5 -22t32.5 -56zM454 42h56q-7 93 -75.5 157.5t-162.5 64.5v-56q70 0 123 -48t59 -118z" />
<glyph unicode="R" horiz-adv-x="603" d="M540 482q0 98 -70 168t-168 70h-239v-720h56v665h183q75 0 128.5 -53.5t53.5 -129.5t-53.5 -129.5t-128.5 -53.5h-65v-56h65q98 0 168 70.5t70 168.5zM237 331h65q62 0 106 44.5t44 106.5t-44 106t-106 44h-151v-632h56v577h95q39 0 66.5 -28t27.5 -67q0 -40 -27.5 -67.5 t-66.5 -27.5h-65v-56zM445 260q39 -53 39 -112v-148h56v148q0 77 -51 147q-17 -17 -44 -35zM361 223q35 -35 35 -75v-148h56v148q0 50 -35 95q-30 -15 -56 -20z" />
<glyph unicode="S" horiz-adv-x="515" d="M417 517h55q0 107 -83 171q-55 44 -129 46q-87 -1 -147 -62t-61 -146q0 -34 9 -65t28.5 -65t59 -61.5t95.5 -43.5q87 -24 87 -89q-1 -31 -22 -53t-51 -22q-23 0 -44 16q-29 23 -29 60h-54q0 -65 49 -103q34 -27 78 -27q52 0 90 37.5t38 90.5q0 108 -127 143 q-150 42 -153 182q2 64 45.5 108t108.5 45q55 -2 95 -34q62 -48 62 -128zM330 517h55q0 64 -50 103q-35 27 -75 27q-51 -1 -86 -36.5t-36 -85.5q2 -115 130 -150q73 -21 111.5 -66t38.5 -105q0 -15 -4.5 -34.5t-16 -42.5t-29 -42t-46 -31.5t-64.5 -12.5q-55 0 -97 33 q-62 48 -62 129h-55q0 -106 83 -172q59 -45 131 -45q89 0 151.5 63t62.5 155q0 90 -57 146.5t-133 76.5q-28 8 -47 20t-27.5 26t-11.5 25.5t-3 26.5q1 28 19.5 47.5t47.5 19.5q23 0 42 -15q28 -22 28 -60z" />
<glyph unicode="T" horiz-adv-x="428" d="M121 665h-128v55h128v-55zM205 665v-665h-55v720h285v-55h-230zM121 577h-128v55h128v-55zM435 577h-142v-577h-55v632h197v-55z" />
<glyph unicode="U" horiz-adv-x="603" d="M484 720v-495q0 -76 -53.5 -129.5t-128.5 -53.5q-76 0 -129.5 53.5t-53.5 129.5v495h-56v-495q0 -99 70 -169t169 -70q98 0 168 70t70 169v495h-56zM396 720v-495q0 -40 -27.5 -67.5t-66.5 -27.5q-40 0 -67.5 27.5t-27.5 67.5v495h-56v-495q0 -62 44.5 -106.5 t106.5 -44.5t106 44.5t44 106.5v495h-56z" />
<glyph unicode="V" d="M464 360l-130 -304h-105l-130 304v360h-56v-371l150 -349h178l149 349v371h-56v-360zM376 720v-342l-94 -221l-95 221v342h-56v-353l120 -279h62l119 279v353h-56z" />
<glyph unicode="W" horiz-adv-x="645" d="M546 194l-46 -138h-65l-103 250h-19l-103 -250h-65l-46 138v526h-56v-535l62 -185h145l72 167l73 -167h145l62 185v535h-56v-526zM458 720v-473l-63 147h-145l-63 -147v473h-56v-521l37 -111h18l104 250h65l103 -250h19l37 111v521h-56z" />
<glyph unicode="X" d="M43 0v148l333 463v109h56v-127l-333 -463v-130h-56zM99 583v137h-56v-155l132 -183l34 47zM131 120l333 463v137h56v-155l-333 -463v-102h-56v120zM187 611v109h-56v-127l98 -136l34 47zM464 130v-130h56v148l-132 184l-34 -48zM376 102v-102h56v120l-98 136l-34 -47z " />
<glyph unicode="Y" d="M210 0v290l-167 208l1 222h56l-1 -202l166 -209v-309h-55zM298 321l-167 208l1 191h56l-1 -171l166 -209v-340h-55v321zM432 530l1 190h-56l-1 -167l-88 -88l36 -43zM520 494l1 226h-56l-1 -203l-119 -119l35 -43z" />
<glyph unicode="Z" d="M520 144h-323l323 396v180h-477v-55h421v-106l-333 -410v-61h389v56zM99 56v105l3 4l330 406v61h-389v-55h323l-323 -397v-180h477v56h-421z" />
<glyph unicode="[" horiz-adv-x="364" d="M304 -88v-56h-241v1007h231v-55h-175v-896h185zM304 -56h-153v831h143v-55h-87v-720h97v-56z" />
<glyph unicode="]" horiz-adv-x="364" d="M245 808h-175v55h231v-1007h-241v56h185v896zM157 0v720h-87v55h143v-831h-153v56h97z" />
<glyph unicode="_" horiz-adv-x="602" d="M539 -55h-476v55h476v-55zM539 -143h-476v55h476v-55z" />
<glyph unicode="a" d="M464 299v103l-131 263h-103l-131 -263v-402h-56v415l152 305h173l152 -305v-172h-302v56h246zM218 387h156l-92 184l-95 -190v-381h-56v394l119 238h63l119 -238v-63h-214v56zM432 215h-56v-215h56v215zM520 215v-215h-56v215h56z" />
<glyph unicode="b" horiz-adv-x="552" d="M458 368q61 -64 61 -150q0 -90 -63.5 -154t-153.5 -64h-239v720h197q88 -1 150.5 -63.5t62.5 -146.5q0 -92 -62.5 -154.5t-153.5 -62.5h-20v56h20q66 0 113.5 47t47.5 114q0 61 -46.5 107.5t-111.5 47.5h-141v-609h183q67 0 114.5 47.5t47.5 114.5q0 59 -43 109 q20 18 37 41zM393 308q38 -38 38 -90q0 -54 -38 -92t-91 -38h-151v544h106q53 0 90.5 -36.5t37.5 -85.5q0 -53 -37.5 -91t-90.5 -38h-20v56h20q30 0 51.5 21.5t21.5 51.5q0 26 -21.5 46.5t-51.5 20.5h-50v-433h95q31 0 52.5 22t21.5 53q0 33 -31 62q25 12 48 27z" />
<glyph unicode="c" horiz-adv-x="529" d="M454 225h56q0 -99 -70 -169t-168 -70q-99 0 -169 70t-70 169v271q0 98 70 168t169 70q98 0 168 -70t70 -168h-56q0 76 -53.5 129.5t-128.5 53.5q-76 0 -129.5 -53.5t-53.5 -129.5v-271q0 -76 53.5 -129.5t129.5 -53.5q75 0 128.5 53.5t53.5 129.5zM366 225h56 q0 -62 -44 -106.5t-106 -44.5t-106.5 44.5t-44.5 106.5v271q0 62 44.5 106t106.5 44t106 -44t44 -106h-56q0 39 -27.5 67t-66.5 28q-40 0 -67.5 -28t-27.5 -67v-271q0 -40 27.5 -67.5t67.5 -27.5q39 0 66.5 27.5t27.5 67.5z" />
<glyph unicode="d" horiz-adv-x="573" d="M63 720h239q98 0 168 -70t70 -168v-243q0 -99 -70 -169t-168 -70h-239v720zM484 239v243q0 76 -53.5 129.5t-128.5 53.5h-183v-609h183q75 0 128.5 53.5t53.5 129.5zM151 632h151q62 0 106 -44t44 -106v-243q0 -62 -44 -106.5t-106 -44.5h-151v544zM396 239v243 q0 39 -27.5 67t-66.5 28h-95v-433h95q39 0 66.5 27.5t27.5 67.5z" />
<glyph unicode="e" horiz-adv-x="553" d="M500 665h-381v-318h308v-55h-364v428h437v-55zM500 577h-293v-142h220v-55h-276v252h349v-55zM119 56h391v-56h-447v263h56v-207zM207 144h303v-56h-359v175h56v-119z" />
<glyph unicode="f" horiz-adv-x="503" d="M119 665v-319h308v-55h-364v429h447v-55h-391zM510 577h-303v-143h220v-55h-276v253h359v-55zM119 0h-56v263h56v-263zM207 0h-56v263h56v-263z" />
<glyph unicode="g" horiz-adv-x="543" d="M510 496h-56q0 76 -53.5 129.5t-128.5 53.5q-76 0 -129.5 -53.5t-53.5 -129.5v-271q0 -76 53.5 -129.5t129.5 -53.5q75 0 128.5 53.5t53.5 129.5v155h-174v55h230v-210q0 -99 -70 -169t-168 -70q-99 0 -169 70t-70 169v271q0 98 70 168t169 70q98 0 168 -70t70 -168z M422 496h-56q0 39 -27.5 67t-66.5 28q-40 0 -67.5 -28t-27.5 -67v-271q0 -40 27.5 -67.5t67.5 -27.5q39 0 66.5 27.5t27.5 67.5v67h-86v55h142v-122q0 -62 -44 -106.5t-106 -44.5t-106.5 44.5t-44.5 106.5v271q0 62 44.5 106t106.5 44t106 -44t44 -106z" />
<glyph unicode="h" horiz-adv-x="603" d="M63 720h56v-720h-56v720zM151 720h56v-720h-56v720zM452 379h-215v55h159v286h56v-341zM540 720v-429h-303v55h247v374h56zM396 263h56v-263h-56v263zM484 263h56v-263h-56v263z" />
<glyph unicode="i" horiz-adv-x="419" d="M376 665h-333v55h333v-55zM192 88h-149v56h95v433h-95v55h151zM376 577h-94v-433h94v-56h-150v544h150v-55zM376 0h-333v56h333v-56z" />
<glyph unicode="j" horiz-adv-x="540" d="M421 664v-439q0 -76 -53.5 -129.5t-128.5 -53.5q-76 0 -129.5 53.5t-53.5 129.5h-56q0 -99 70 -169t169 -70q98 0 168 70t70 169v495h-362v-56h306zM115 576h218v-351q0 -40 -27.5 -67.5t-66.5 -27.5q-40 0 -67.5 27.5t-27.5 67.5h-56q0 -62 44.5 -106.5t106.5 -44.5 t106 44.5t44 106.5v407h-274v-56z" />
<glyph unicode="k" horiz-adv-x="583" d="M119 720h-56v-720h56v720zM207 0v720h-56v-720h56zM494 516l-200 -176h-57v-55h78l235 206v229h-56v-204zM406 720v-164l-145 -128h-24v-55h45l180 158v189h-56zM550 242v-242h-56v219l-98 99l42 37zM462 205v-205h-56v182l-75 77l41 37z" />
<glyph unicode="l" horiz-adv-x="461" d="M119 56h349v-56h-405v720h56v-664zM207 720v-576h261v-56h-317v632h56z" />
<glyph unicode="m" horiz-adv-x="699" d="M583 665h-69l-155 -334h-19l-155 334h-69v-665h-56v720h163l126 -269l127 269h163v-720h-56v665zM495 0v409l-75 -166h-141l-75 166v-409h-56v632h14l155 -333h64l156 333h14v-632h-56z" />
<glyph unicode="n" horiz-adv-x="603" d="M452 81h-15l-250 584h-68v-665h-56v720h161l172 -403v403h56v-639zM540 720v-727h-161l-172 403v-396h-56v632h15l250 -583h68v671h56z" />
<glyph unicode="o" horiz-adv-x="543" d="M272 733q98 0 168 -70t70 -168v-270q0 -99 -70 -169t-168 -70q-99 0 -169 70t-70 169v270q0 98 70 168t169 70zM454 225v270q0 76 -53.5 129.5t-128.5 53.5q-76 0 -129.5 -53.5t-53.5 -129.5v-270q0 -76 53.5 -129.5t129.5 -53.5q75 0 128.5 53.5t53.5 129.5zM272 645 q62 0 106 -44t44 -106v-270q0 -62 -44 -106.5t-106 -44.5t-106.5 44.5t-44.5 106.5v270q0 62 44.5 106t106.5 44zM366 225v270q0 39 -27.5 67t-66.5 28q-40 0 -67.5 -28t-27.5 -67v-270q0 -40 27.5 -67.5t67.5 -27.5q39 0 66.5 27.5t27.5 67.5z" />
<glyph unicode="p" horiz-adv-x="553" d="M119 665h183q75 0 128.5 -53.5t53.5 -129.5t-53.5 -129.5t-128.5 -53.5h-65v-56h65q98 0 168 70t70 169q0 98 -70 168t-168 70h-239v-720h56v665zM151 632h151q62 0 106 -44t44 -106t-44 -106.5t-106 -44.5h-65v56h65q39 0 66.5 27.5t27.5 67.5q0 39 -27.5 67t-66.5 28 h-95v-577h-56v632z" />
<glyph unicode="q" horiz-adv-x="544" d="M272 -14v56q-76 0 -129.5 53.5t-53.5 129.5v270q0 76 53.5 129.5t129.5 53.5q75 0 128.5 -53.5t53.5 -129.5v-229h56v229q0 98 -70 168t-168 70q-99 0 -169 -70t-70 -168v-270q0 -99 70 -169t169 -70zM366 42h56q-7 57 -50 95.5t-100 38.5v-46q-40 0 -67.5 27.5 t-27.5 67.5v270q0 39 27.5 67t67.5 28q39 0 66.5 -28t27.5 -67v-229h56v229q0 62 -44 106t-106 44t-106.5 -44t-44.5 -106v-270q0 -62 44.5 -106.5t106.5 -44.5v46q35 0 61.5 -22t32.5 -56zM454 42h56q-7 93 -75.5 157.5t-162.5 64.5v-56q70 0 123 -48t59 -118z" />
<glyph unicode="r" horiz-adv-x="603" d="M540 482q0 98 -70 168t-168 70h-239v-720h56v665h183q75 0 128.5 -53.5t53.5 -129.5t-53.5 -129.5t-128.5 -53.5h-65v-56h65q98 0 168 70.5t70 168.5zM237 331h65q62 0 106 44.5t44 106.5t-44 106t-106 44h-151v-632h56v577h95q39 0 66.5 -28t27.5 -67q0 -40 -27.5 -67.5 t-66.5 -27.5h-65v-56zM445 260q39 -53 39 -112v-148h56v148q0 77 -51 147q-17 -17 -44 -35zM361 223q35 -35 35 -75v-148h56v148q0 50 -35 95q-30 -15 -56 -20z" />
<glyph unicode="s" horiz-adv-x="515" d="M417 517h55q0 107 -83 171q-55 44 -129 46q-87 -1 -147 -62t-61 -146q0 -34 9 -65t28.5 -65t59 -61.5t95.5 -43.5q87 -24 87 -89q-1 -31 -22 -53t-51 -22q-23 0 -44 16q-29 23 -29 60h-54q0 -65 49 -103q34 -27 78 -27q52 0 90 37.5t38 90.5q0 108 -127 143 q-150 42 -153 182q2 64 45.5 108t108.5 45q55 -2 95 -34q62 -48 62 -128zM330 517h55q0 64 -50 103q-35 27 -75 27q-51 -1 -86 -36.5t-36 -85.5q2 -115 130 -150q73 -21 111.5 -66t38.5 -105q0 -15 -4.5 -34.5t-16 -42.5t-29 -42t-46 -31.5t-64.5 -12.5q-55 0 -97 33 q-62 48 -62 129h-55q0 -106 83 -172q59 -45 131 -45q89 0 151.5 63t62.5 155q0 90 -57 146.5t-133 76.5q-28 8 -47 20t-27.5 26t-11.5 25.5t-3 26.5q1 28 19.5 47.5t47.5 19.5q23 0 42 -15q28 -22 28 -60z" />
<glyph unicode="t" horiz-adv-x="428" d="M121 665h-128v55h128v-55zM205 665v-665h-55v720h285v-55h-230zM121 577h-128v55h128v-55zM435 577h-142v-577h-55v632h197v-55z" />
<glyph unicode="u" horiz-adv-x="603" d="M484 720v-495q0 -76 -53.5 -129.5t-128.5 -53.5q-76 0 -129.5 53.5t-53.5 129.5v495h-56v-495q0 -99 70 -169t169 -70q98 0 168 70t70 169v495h-56zM396 720v-495q0 -40 -27.5 -67.5t-66.5 -27.5q-40 0 -67.5 27.5t-27.5 67.5v495h-56v-495q0 -62 44.5 -106.5 t106.5 -44.5t106 44.5t44 106.5v495h-56z" />
<glyph unicode="v" d="M464 360l-130 -304h-105l-130 304v360h-56v-371l150 -349h178l149 349v371h-56v-360zM376 720v-342l-94 -221l-95 221v342h-56v-353l120 -279h62l119 279v353h-56z" />
<glyph unicode="w" horiz-adv-x="645" d="M546 194l-46 -138h-65l-103 250h-19l-103 -250h-65l-46 138v526h-56v-535l62 -185h145l72 167l73 -167h145l62 185v535h-56v-526zM458 720v-473l-63 147h-145l-63 -147v473h-56v-521l37 -111h18l104 250h65l103 -250h19l37 111v521h-56z" />
<glyph unicode="x" d="M43 0v148l333 463v109h56v-127l-333 -463v-130h-56zM99 583v137h-56v-155l132 -183l34 47zM131 120l333 463v137h56v-155l-333 -463v-102h-56v120zM187 611v109h-56v-127l98 -136l34 47zM464 130v-130h56v148l-132 184l-34 -48zM376 102v-102h56v120l-98 136l-34 -47z " />
<glyph unicode="y" d="M210 0v290l-167 208l1 222h56l-1 -202l166 -209v-309h-55zM298 321l-167 208l1 191h56l-1 -171l166 -209v-340h-55v321zM432 530l1 190h-56l-1 -167l-88 -88l36 -43zM520 494l1 226h-56l-1 -203l-119 -119l35 -43z" />
<glyph unicode="z" d="M520 144h-323l323 396v180h-477v-55h421v-106l-333 -410v-61h389v56zM99 56v105l3 4l330 406v61h-389v-55h323l-323 -397v-180h477v56h-421z" />
<glyph unicode="|" horiz-adv-x="370" d="M169 -200h-56v1000h56v-1000zM257 -200h-56v1000h56v-1000z" />
<glyph unicode="&#xb7;" horiz-adv-x="258" d="M129 281q-32 0 -55.5 23t-23.5 56q0 32 23.5 55.5t55.5 23.5t55.5 -23.5t23.5 -55.5q0 -33 -23.5 -56t-55.5 -23zM129 330q12 0 20.5 9t8.5 22q0 12 -8.5 20.5t-20.5 8.5t-20.5 -8.5t-8.5 -20.5q0 -13 8.5 -22t20.5 -9z" />
<glyph unicode="&#xc4;" d="M129 679q-32 0 -55.5 23t-23.5 56q0 32 23.5 55.5t55.5 23.5t55.5 -23.5t23.5 -55.5q0 -33 -23.5 -56t-55.5 -23zM451 679q-32 0 -55.5 23t-23.5 56q0 32 23.5 55.5t55.5 23.5t55.5 -23.5t23.5 -55.5q0 -33 -23.5 -56t-55.5 -23zM129 728q12 0 20.5 9t8.5 22 q0 12 -8.5 20.5t-20.5 8.5t-20.5 -8.5t-8.5 -20.5q0 -13 8.5 -22t20.5 -9zM451 728q12 0 20.5 9t8.5 22q0 12 -8.5 20.5t-20.5 8.5t-20.5 -8.5t-8.5 -20.5q0 -13 8.5 -22t20.5 -9zM513 365v-172h-303v56h247v103l-131 263h-103l-131 -263v-352h-56v365l152 305h173zM180 331 v-331h-56v344l119 238h63l119 -238v-63h-215v56h157l-92 184zM425 0h-56v165h56v-165zM513 0h-56v165h56v-165z" />
<glyph unicode="&#xd6;" horiz-adv-x="543" d="M109 679q-32 0 -55.5 23t-23.5 56q0 32 23.5 55.5t55.5 23.5t55.5 -23.5t23.5 -55.5q0 -33 -23.5 -56t-55.5 -23zM431 679q-32 0 -55.5 23t-23.5 56q0 32 23.5 55.5t55.5 23.5t55.5 -23.5t23.5 -55.5q0 -33 -23.5 -56t-55.5 -23zM109 728q12 0 20.5 9t8.5 22 q0 12 -8.5 20.5t-20.5 8.5t-20.5 -8.5t-8.5 -20.5q0 -13 8.5 -22t20.5 -9zM431 728q12 0 20.5 9t8.5 22q0 12 -8.5 20.5t-20.5 8.5t-20.5 -8.5t-8.5 -20.5q0 -13 8.5 -22t20.5 -9zM272 676q98 0 168 -70t70 -168v-213q0 -99 -70 -169t-168 -70q-99 0 -169 70t-70 169v213 q0 98 70 168t169 70zM454 225v213q0 76 -53.5 129.5t-128.5 53.5q-76 0 -129.5 -53.5t-53.5 -129.5v-213q0 -76 53.5 -129.5t129.5 -53.5q75 0 128.5 53.5t53.5 129.5zM272 588q62 0 106 -44t44 -106v-213q0 -62 -44 -106.5t-106 -44.5t-106.5 44.5t-44.5 106.5v213 q0 62 44.5 106t106.5 44zM366 225v213q0 39 -27.5 67t-66.5 28q-40 0 -67.5 -28t-27.5 -67v-213q0 -40 27.5 -67.5t67.5 -27.5q39 0 66.5 27.5t27.5 67.5z" />
<glyph unicode="&#xd7;" horiz-adv-x="482" d="M436 272l-39 -39l-295 295l39 39zM374 528l-76 -77l-40 40l77 76zM373 210l-38 -39l-295 295l39 39zM436 465l-76 -76l-40 40l77 76zM156 309l-77 -76l-39 39l76 77zM218 247l-77 -76l-39 39l76 76z" />
<glyph unicode="&#xdc;" horiz-adv-x="586" d="M135 679q-32 0 -55.5 23t-23.5 56q0 32 23.5 55.5t55.5 23.5t55.5 -23.5t23.5 -55.5q0 -33 -23.5 -56t-55.5 -23zM469 679q-32 0 -55.5 23t-23.5 56q0 32 23.5 55.5t55.5 23.5t55.5 -23.5t23.5 -55.5q0 -33 -23.5 -56t-55.5 -23zM135 728q12 0 20.5 9t8.5 22 q0 12 -8.5 20.5t-20.5 8.5t-20.5 -8.5t-8.5 -20.5q0 -13 8.5 -22t20.5 -9zM469 728q12 0 20.5 9t8.5 22q0 12 -8.5 20.5t-20.5 8.5t-20.5 -8.5t-8.5 -20.5q0 -13 8.5 -22t20.5 -9zM484 650v-425q0 -76 -53.5 -129.5t-128.5 -53.5q-76 0 -129.5 53.5t-53.5 129.5v425h-56 v-425q0 -99 70 -169t169 -70q98 0 168 70t70 169v425h-56zM396 650v-425q0 -40 -27.5 -67.5t-66.5 -27.5q-40 0 -67.5 27.5t-27.5 67.5v425h-56v-425q0 -62 44.5 -106.5t106.5 -44.5t106 44.5t44 106.5v425h-56z" />
<glyph unicode="&#xe4;" d="M129 679q-32 0 -55.5 23t-23.5 56q0 32 23.5 55.5t55.5 23.5t55.5 -23.5t23.5 -55.5q0 -33 -23.5 -56t-55.5 -23zM451 679q-32 0 -55.5 23t-23.5 56q0 32 23.5 55.5t55.5 23.5t55.5 -23.5t23.5 -55.5q0 -33 -23.5 -56t-55.5 -23zM129 728q12 0 20.5 9t8.5 22 q0 12 -8.5 20.5t-20.5 8.5t-20.5 -8.5t-8.5 -20.5q0 -13 8.5 -22t20.5 -9zM451 728q12 0 20.5 9t8.5 22q0 12 -8.5 20.5t-20.5 8.5t-20.5 -8.5t-8.5 -20.5q0 -13 8.5 -22t20.5 -9zM513 365v-172h-303v56h247v103l-131 263h-103l-131 -263v-352h-56v365l152 305h173zM180 331 v-331h-56v344l119 238h63l119 -238v-63h-215v56h157l-92 184zM425 0h-56v165h56v-165zM513 0h-56v165h56v-165z" />
<glyph unicode="&#xf6;" horiz-adv-x="543" d="M109 679q-32 0 -55.5 23t-23.5 56q0 32 23.5 55.5t55.5 23.5t55.5 -23.5t23.5 -55.5q0 -33 -23.5 -56t-55.5 -23zM431 679q-32 0 -55.5 23t-23.5 56q0 32 23.5 55.5t55.5 23.5t55.5 -23.5t23.5 -55.5q0 -33 -23.5 -56t-55.5 -23zM109 728q12 0 20.5 9t8.5 22 q0 12 -8.5 20.5t-20.5 8.5t-20.5 -8.5t-8.5 -20.5q0 -13 8.5 -22t20.5 -9zM431 728q12 0 20.5 9t8.5 22q0 12 -8.5 20.5t-20.5 8.5t-20.5 -8.5t-8.5 -20.5q0 -13 8.5 -22t20.5 -9zM272 676q98 0 168 -70t70 -168v-213q0 -99 -70 -169t-168 -70q-99 0 -169 70t-70 169v213 q0 98 70 168t169 70zM454 225v213q0 76 -53.5 129.5t-128.5 53.5q-76 0 -129.5 -53.5t-53.5 -129.5v-213q0 -76 53.5 -129.5t129.5 -53.5q75 0 128.5 53.5t53.5 129.5zM272 588q62 0 106 -44t44 -106v-213q0 -62 -44 -106.5t-106 -44.5t-106.5 44.5t-44.5 106.5v213 q0 62 44.5 106t106.5 44zM366 225v213q0 39 -27.5 67t-66.5 28q-40 0 -67.5 -28t-27.5 -67v-213q0 -40 27.5 -67.5t67.5 -27.5q39 0 66.5 27.5t27.5 67.5z" />
<glyph unicode="&#xfc;" horiz-adv-x="586" d="M135 679q-32 0 -55.5 23t-23.5 56q0 32 23.5 55.5t55.5 23.5t55.5 -23.5t23.5 -55.5q0 -33 -23.5 -56t-55.5 -23zM469 679q-32 0 -55.5 23t-23.5 56q0 32 23.5 55.5t55.5 23.5t55.5 -23.5t23.5 -55.5q0 -33 -23.5 -56t-55.5 -23zM135 728q12 0 20.5 9t8.5 22 q0 12 -8.5 20.5t-20.5 8.5t-20.5 -8.5t-8.5 -20.5q0 -13 8.5 -22t20.5 -9zM469 728q12 0 20.5 9t8.5 22q0 12 -8.5 20.5t-20.5 8.5t-20.5 -8.5t-8.5 -20.5q0 -13 8.5 -22t20.5 -9zM484 650v-425q0 -76 -53.5 -129.5t-128.5 -53.5q-76 0 -129.5 53.5t-53.5 129.5v425h-56 v-425q0 -99 70 -169t169 -70q98 0 168 70t70 169v425h-56zM396 650v-425q0 -40 -27.5 -67.5t-66.5 -27.5q-40 0 -67.5 27.5t-27.5 67.5v425h-56v-425q0 -62 44.5 -106.5t106.5 -44.5t106 44.5t44 106.5v425h-56z" />
<glyph unicode="&#x2013;" horiz-adv-x="602" d="M539 395h-476v55h476v-55zM539 307h-476v55h476v-55z" />
<glyph unicode="&#x2014;" horiz-adv-x="735" d="M735 395h-735v55h735v-55zM735 307h-735v55h735v-55z" />
<glyph unicode="&#x2018;" horiz-adv-x="235" d="M90 724v-142h-56v165l97 99l39 -39zM232 745l-54 -56v-107h-56v129l71 73z" />
<glyph unicode="&#x2019;" horiz-adv-x="235" d="M3 625l54 56v107h56v-129l-71 -73zM145 646v142h56v-165l-97 -99l-39 39z" />
<glyph unicode="&#x201a;" horiz-adv-x="235" d="M3 -57l54 56v107h56v-129l-71 -73zM145 -36v142h56v-165l-97 -99l-39 39z" />
<glyph unicode="&#x201c;" horiz-adv-x="387" d="M77 724v-142h-56v165l97 99l39 -39zM219 745l-54 -56v-107h-56v129l71 73zM204 583v103l78 82l40 -40l-63 -64v-81h-55zM292 651l53 54l39 -39l-37 -38v-45h-55v68z" />
<glyph unicode="&#x201d;" horiz-adv-x="387" d="M168 625l54 56v107h56v-129l-71 -73zM310 646v142h56v-165l-97 -99l-39 39zM95 719l-53 -54l-39 39l37 38v45h55v-68zM183 787v-103l-78 -82l-40 40l63 64v81h55z" />
<glyph unicode="&#x201e;" horiz-adv-x="387" d="M168 -57l54 56v107h56v-129l-71 -73zM310 -36v142h56v-165l-97 -99l-39 39zM95 37l-53 -54l-39 39l37 38v45h55v-68zM183 105v-103l-78 -82l-40 40l63 64v81h55z" />
<glyph unicode="&#x20ac;" horiz-adv-x="647" d="M376 42q75 0 128.5 53.5t53.5 129.5h56q0 -99 -70 -169t-168 -70q-99 0 -169 70t-70 169v271q0 98 70 168t169 70q98 0 168 -70t70 -168h-56q0 76 -53.5 129.5t-128.5 53.5q-76 0 -129.5 -53.5t-53.5 -129.5v-271q0 -76 53.5 -129.5t129.5 -53.5zM376 591 q-40 0 -67.5 -28t-27.5 -67v-10h97v-55h-97v-34h97v-59h-97v-34h97v-55h-97v-24q0 -40 27.5 -67.5t67.5 -27.5q39 0 66.5 27.5t27.5 67.5h56q0 -62 -44 -106.5t-106 -44.5t-106.5 44.5t-44.5 106.5v271q0 62 44.5 106t106.5 44t106 -44t44 -106h-56q0 39 -27.5 67t-66.5 28z M40 486h68v-55h-68v55zM40 397h68v-59h-68v59zM40 294h68v-55h-68v55z" />
<glyph unicode="&#x2192;" horiz-adv-x="608" d="M558 467v-173l-277 -140l-24 51l247 124v103l-247 123l24 51zM470 395h-420v55h219l-50 25l24 50l227 -113v-17zM470 349l-227 -114l-24 50l44 22h-213v55h420v-13z" />
<glyph unicode="&#x2212;" horiz-adv-x="376" d="M313 375h-250v55h250v-55zM313 287h-250v55h250v-55z" />
<glyph unicode="&#x25fc;" horiz-adv-x="720" d="M0 720h720v-720h-720v720z" />
</font>
</defs>
</svg>
