<?xml version="1.0" standalone="no"?>
<!DOCTYPE svg PUBLIC "-//W3C//DTD SVG 1.1//EN" "http://www.w3.org/Graphics/SVG/1.1/DTD/svg11.dtd" >
<svg xmlns="http://www.w3.org/2000/svg" xmlns:xlink="http://www.w3.org/1999/xlink" version="1.1">
<metadata></metadata>
<defs>
<font id="ocl1" horiz-adv-x="563" >
<font-face units-per-em="850" ascent="680" descent="-170" />
<missing-glyph horiz-adv-x="206" />
<glyph unicode=" "  horiz-adv-x="206" />
<glyph unicode="&#x09;" horiz-adv-x="206" />
<glyph unicode="&#xa0;" horiz-adv-x="206" />
<glyph unicode="!" horiz-adv-x="356" d="M115 244h-9v476h9v-476zM148 244h-16v476h16v-476zM194 244h-32v476h32v-476zM223 244h-15v476h15v-476zM250 244h-10v476h10v-476zM178 161q35 0 60 -25t25 -60t-25 -60t-60 -25t-60 25t-25 60t25 60t60 25zM178 152q-32 0 -54 -22t-22 -54t22 -54t54 -22t54 22t22 54 t-22 54t-54 22zM177 134q25 0 42 -17t17 -42q0 -24 -17 -41t-42 -17q-24 0 -41 17t-17 41q0 25 17 42t41 17zM177 118q-17 0 -30 -12.5t-13 -30.5q0 -17 13 -30t30 -13q18 0 30.5 13t12.5 30q0 18 -12.5 30.5t-30.5 12.5zM178 105q12 0 20.5 -8.5t8.5 -20.5t-8.5 -20.5 t-20.5 -8.5q-13 0 -21.5 8.5t-8.5 20.5t8.5 20.5t21.5 8.5z" />
<glyph unicode="#" horiz-adv-x="678" d="M153 333h-9v387h9v-387zM186 333h-16v387h16v-387zM232 333h-32v387h32v-387zM261 333h-15v387h15v-387zM288 333h-10v387h10v-387zM638 550v-9h-330v9h82v170h9v-170h17v170h16v-170h14v170h32v-170h14v170h15v-170h17v170h10v-170h104zM124 541h-84v9h84v-9zM124 508 h-84v16h84v-16zM308 524h330v-16h-330v16zM124 462h-84v33h84v-33zM308 495h330v-33h-330v33zM124 433h-84v16h84v-16zM308 449h330v-16h-330v16zM124 407h-84v9h84v-9zM308 416h330v-9h-330v9zM390 387h10v-387h-10v387zM417 387h15v-387h-15v387zM446 387h32v-387h-32v387 zM492 387h16v-387h-16v387zM525 387h9v-387h-9v387zM40 313h330v-9h-330v9zM555 313h83v-9h-83v9zM40 287h330v-16h-330v16zM555 287h83v-16h-83v16zM40 258h330v-33h-330v33zM555 258h83v-33h-83v33zM40 212h330v-16h-330v16zM555 212h83v-16h-83v16zM40 179h330v-9h-82 v-170h-9v170h-17v-170h-16v170h-14v-170h-32v170h-14v-170h-15v170h-17v-170h-10v170h-104v9zM555 179h83v-9h-83v9z" />
<glyph unicode="$" horiz-adv-x="541" d="M243 291q-56 16 -95.5 43.5t-59 61.5t-28.5 65t-9 65q1 67 39 120.5t100 75.5v78h9v-75l17 4v71h16v-68l14 2v66h32v-67l14 -2v69h15v-72l17 -5v77h10v-81q26 -10 54 -31q83 -64 83 -171h-9q0 101 -80 164q-53 42 -123 44q-28 0 -60 -10v-1h-3q-60 -20 -97.5 -71.5 t-38.5 -116.5q1 -50 18 -91t45.5 -67t58.5 -42.5t64 -25.5q93 -26 93 -98q-1 -35 -24.5 -59.5t-57.5 -24.5q-27 0 -49 17q-33 27 -33 68h9q0 -37 29 -60q21 -16 44 -16q30 0 51 22t22 53q0 65 -87 89zM445 517h-15q-2 87 -68 139q-45 36 -103 36q-71 -1 -118.5 -49 t-48.5 -117q3 -150 162 -195q117 -33 117 -130q-1 -47 -34.5 -81t-79.5 -34q-37 0 -70 25q-42 33 -44 92h15q2 -51 39 -81q26 -21 60 -21q40 0 69.5 29.5t29.5 70.5q0 86 -105 115q-85 24 -129 78t-45 132q1 76 53 128.5t129 53.5q61 0 113 -41q71 -54 73 -150zM416 517h-32 q0 64 -50 103q-35 27 -75 27q-51 -1 -86 -36.5t-36 -85.5q2 -115 130 -150q73 -21 111.5 -66t38.5 -105q0 -15 -4.5 -34.5t-16 -42.5t-29 -42t-46 -31.5t-64.5 -12.5q-55 0 -97 33q-62 48 -62 129h32q0 -65 49 -103q34 -27 78 -27q52 0 90 37.5t38 90.5q0 108 -127 143 q-150 42 -153 182q2 64 45.5 108t108.5 45q55 -2 95 -34q62 -48 62 -128zM326 609q43 -34 45 -92h-16q-2 53 -39 81q-25 20 -57 20q-40 0 -66 -27t-27 -66q2 -93 108 -123q51 -15 87 -39t53 -53.5t24 -55t7 -52.5q-1 -79 -56 -134.5t-132 -55.5q-64 0 -115 40 q-71 56 -73 151h15q2 -88 68 -139q46 -37 105 -37q44 0 79.5 19.5t54.5 48.5t29 57.5t10 51.5q-2 65 -42.5 114t-116.5 70q-120 33 -120 137q1 46 31 77t77 32q38 -2 67 -25zM281 427q76 -20 133 -76.5t57 -146.5q0 -70 -38 -125t-99 -79v-84h-10v81l-17 -5v-76h-15v73 l-14 -2v-71h-32v70l-14 1v-71h-16v74l-17 4v-78h-9v81q-31 10 -64 34q-83 66 -83 172h9q0 -103 80 -164q55 -44 125 -44q84 0 143.5 60.5t61.5 148.5q-2 77 -48.5 133.5t-134.5 81.5q-40 11 -63 31.5t-27.5 36.5t-5.5 38q1 32 22 54t54 22q25 0 47 -17q33 -25 33 -67h-10 q0 38 -28 60q-19 15 -42 15q-29 0 -47.5 -19.5t-19.5 -47.5q0 -15 3 -26.5t11.5 -25.5t27.5 -26t47 -20z" />
<glyph unicode="%" horiz-adv-x="714" d="M194 734q54 0 92.5 -38.5t38.5 -92.5t-38.5 -92.5t-92.5 -38.5t-92.5 38.5t-38.5 92.5t38.5 92.5t92.5 38.5zM194 724q-50 0 -86 -35.5t-36 -85.5t36 -86t86 -36t85.5 36t35.5 86t-35.5 85.5t-85.5 35.5zM458 549l-325 -333v-216h-10v219l326 334v167h9v-171zM491 536 l-326 -333v-203h-15v209l325 333v178h16v-184zM537 517l-326 -333v-184h-32v197l326 333v190h32v-203zM566 505l-325 -333v-172h-16v178l326 333v209h15v-215zM593 494l-326 -333v-161h-9v165l325 333v222h10v-226zM194 707q44 0 74 -30.5t30 -73.5q0 -44 -30.5 -74.5 t-73.5 -30.5q-44 0 -74.5 31t-30.5 74t30.5 73.5t74.5 30.5zM194 692q-37 0 -63 -26t-26 -63t26 -63t63 -26t63 26t26 63t-26 63t-63 26zM194 678q31 0 53 -22t22 -53t-22 -53t-53 -22q-32 0 -53.5 22t-21.5 53t22 53t53 22zM194 646q-18 0 -30.5 -13t-12.5 -30 q0 -18 12.5 -30.5t30.5 -12.5t30.5 12.5t12.5 30.5q0 17 -12.5 30t-30.5 13zM194 634q13 0 22 -9t9 -22t-9 -22t-22 -9t-22 9t-9 22t9 22t22 9zM194 614q-12 0 -12 -11q0 -12 12 -12q11 0 11 12q0 11 -11 11zM520 248q54 0 92.5 -38.5t38.5 -92.5t-38.5 -92.5t-92.5 -38.5 t-92.5 38.5t-38.5 92.5t38.5 92.5t92.5 38.5zM520 239q-50 0 -86 -36t-36 -86t36 -86t86 -36t86 36t36 86t-36 86t-86 36zM520 221q44 0 74.5 -30.5t30.5 -73.5t-30.5 -74t-74.5 -31q-43 0 -73.5 30.5t-30.5 74.5q0 43 30 73.5t74 30.5zM520 206q-37 0 -63 -26t-26 -63 t26 -63t63 -26t63 26t26 63t-26 63t-63 26zM520 192q31 0 53 -22t22 -53t-21.5 -53t-53.5 -22q-31 0 -53 22t-22 53t22 53t53 22zM520 160q-18 0 -30.5 -12.5t-12.5 -30.5t12.5 -30.5t30.5 -12.5t30.5 12.5t12.5 30.5t-12.5 30.5t-30.5 12.5zM520 148q13 0 22 -9t9 -22 t-9 -22t-22 -9t-22 9t-9 22t9 22t22 9zM520 129q-4 0 -8 -3.5t-4 -8.5q0 -12 12 -12t12 12q0 5 -4 8.5t-8 3.5z" />
<glyph unicode="&#x26;" horiz-adv-x="705" d="M283 734q91 0 155 -64.5t64 -155.5h-9q0 88 -61.5 149.5t-148.5 61.5t-149 -60.5t-62 -144.5q0 -87 62 -151t149 -64v-9q-90 0 -155 66.5t-65 157.5q0 87 65 150.5t155 63.5zM283 708q80 0 136 -56.5t57 -137.5h-16q-1 74 -52.5 126t-124.5 52t-125.5 -51.5t-52.5 -120.5 q0 -73 52 -127t126 -55v-16q-80 1 -137 59.5t-57 138.5q0 76 57 132t137 56zM283 679q68 0 116 -48.5t48 -116.5h-33q0 55 -38.5 93.5t-92.5 38.5t-93 -37.5t-39 -88.5q0 -55 39 -95.5t93 -40.5v-33q-68 0 -116 50.5t-48 118.5q0 64 48 111.5t116 47.5zM283 633 q49 0 83 -34.5t35 -84.5h-16q-1 43 -31 73t-71 30q-42 0 -72.5 -29t-30.5 -68q0 -42 30 -74t73 -33v-16q-50 1 -84 37.5t-34 85.5q0 46 34.5 79.5t83.5 33.5zM283 600q35 0 60 -25t25 -61h-9q0 32 -22.5 54.5t-53.5 22.5t-53.5 -21.5t-22.5 -49.5q0 -31 22.5 -56t53.5 -25 v-9q-35 0 -60.5 27t-25.5 63q0 32 25.5 56t60.5 24zM683 491h9q0 -83 -54.5 -145t-135.5 -73v-70q-1 -89 -65 -153t-154 -64q-91 0 -155.5 64.5t-64.5 154.5q0 38 12 79.5t33 68.5l7 -6q-43 -57 -43 -142q0 -86 62 -148t149 -62t148.5 62t61.5 148v76q80 8 135 68.5 t55 141.5zM650 491h16q-1 -80 -56.5 -135.5t-133.5 -57.5v-95q0 -79 -56.5 -135t-136.5 -56t-137 56.5t-57 136.5q0 77 38 129l12 -9q-34 -50 -34 -120q0 -73 52.5 -125t125.5 -52t125 52t52 125v108h12q73 0 125 52t53 126zM604 491h32q0 -68 -48 -116t-116 -48h-25v-124 q-1 -67 -49 -114t-115 -47q-68 0 -116 47.5t-48 115.5q0 69 32 112l28 -16q-28 -36 -28 -96q0 -54 38.5 -92.5t93.5 -38.5q54 0 92.5 38.5t38.5 92.5v154h58q55 0 93.5 38.5t38.5 93.5zM575 491h15q-1 -50 -35 -84t-83 -34h-71v-170q-1 -48 -35.5 -81.5t-82.5 -33.5 q-49 0 -83.5 34t-34.5 83q0 57 27 90l16 -6q-28 -31 -28 -84q0 -42 30 -72t73 -30q42 0 72 30t30 72v183h87q42 0 72 30t31 73zM548 491h10q0 -35 -25.5 -60.5t-60.5 -25.5h-104v-202q-1 -34 -26 -58.5t-59 -24.5q-35 0 -60.5 25t-25.5 60q0 20 8.5 44t21.5 35l11 -3 q-13 -9 -22 -32.5t-9 -43.5q0 -31 22.5 -53t53.5 -22t53.5 22t22.5 53v210h113q32 0 54 22.5t22 53.5z" />
<glyph unicode="(" horiz-adv-x="365" d="M302 863v-9q-95 0 -162.5 -67t-67.5 -162v-530q0 -95 67.5 -162.5t162.5 -67.5v-9q-99 0 -169 70t-70 169v530q0 98 70 168t169 70zM302 837v-16q-82 -1 -139.5 -58t-57.5 -138v-530q0 -81 57.5 -138.5t139.5 -58.5v-16q-89 1 -151 62.5t-62 150.5v530q0 88 62 149.5 t151 62.5zM302 808v-33q-62 0 -106.5 -44t-44.5 -106v-530q0 -62 44.5 -106.5t106.5 -44.5v-32q-76 0 -129.5 53.5t-53.5 129.5v530q0 76 53.5 129.5t129.5 53.5zM302 762v-16q-51 -1 -86.5 -36.5t-35.5 -84.5v-530q0 -50 35.5 -85.5t86.5 -36.5v-15q-58 1 -97.5 40.5 t-39.5 96.5v530q0 56 39.5 96t97.5 41zM302 729v-9q-40 0 -67.5 -28t-27.5 -67v-530q0 -40 27.5 -67.5t67.5 -27.5v-10q-44 0 -74.5 31t-30.5 74v530q0 43 31 73.5t74 30.5z" />
<glyph unicode=")" horiz-adv-x="365" d="M70 854v9q99 0 169 -70t70 -168v-530q0 -99 -70 -169t-169 -70v9q95 0 162.5 67.5t67.5 162.5v530q0 95 -67.5 162t-162.5 67zM70 821v16q89 -1 151 -62.5t62 -149.5v-530q0 -89 -62 -150.5t-151 -62.5v16q82 1 139.5 58.5t57.5 138.5v530q0 81 -57.5 138t-139.5 58z M70 775v33q76 0 129.5 -53.5t53.5 -129.5v-530q0 -76 -53.5 -129.5t-129.5 -53.5v32q62 0 106.5 44.5t44.5 106.5v530q0 62 -44.5 106t-106.5 44zM70 746v16q58 -1 97.5 -41t39.5 -96v-530q0 -57 -39.5 -96.5t-97.5 -40.5v15q51 1 86.5 36.5t35.5 85.5v530q0 49 -35.5 84.5 t-86.5 36.5zM70 720v9q43 0 74 -30.5t31 -73.5v-530q0 -43 -30.5 -74t-74.5 -31v10q40 0 67.5 27.5t27.5 67.5v530q0 39 -27.5 67t-67.5 28z" />
<glyph unicode="+" horiz-adv-x="503" d="M189 175h-9v417h9v-417zM222 175h-16v417h16v-417zM268 175h-33v417h33v-417zM297 175h-16v417h16v-417zM323 175h-9v417h9v-417zM161 446h-118v9h118v-9zM460 446h-118v9h118v-9zM161 413h-118v16h118v-16zM460 413h-118v16h118v-16zM161 367h-118v32h118v-32zM460 367 h-118v32h118v-32zM161 338h-118v15h118v-15zM460 338h-118v15h118v-15zM161 311h-118v10h118v-10zM460 311h-118v10h118v-10z" />
<glyph unicode="," horiz-adv-x="206" d="M48 41l-46 -43v-102h-9v104l46 44v65h9v-68zM81 33l-46 -44v-93h-16v97l46 43v73h16v-76zM127 20l-46 -43v-81h-32v89l46 44v80h32v-89zM156 13l-46 -44v-73h-15v76l46 44v93h15v-96zM183 5l-46 -43v-66h-10v68l46 43v102h10v-104z" />
<glyph unicode="-" horiz-adv-x="376" d="M313 441h-250v9h250v-9zM313 408h-250v16h250v-16zM313 362h-250v33h250v-33zM313 333h-250v16h250v-16zM313 307h-250v9h250v-9z" />
<glyph unicode="." horiz-adv-x="258" d="M129 161q35 0 60 -25t25 -60t-25 -60t-60 -25t-60 25t-25 60t25 60t60 25zM129 152q-31 0 -53.5 -22t-22.5 -54t22.5 -54t53.5 -22t53.5 22t22.5 54t-22.5 54t-53.5 22zM128 134q25 0 42 -17t17 -42q0 -24 -17 -41t-42 -17q-24 0 -41 17t-17 41q0 25 17 42t41 17z M128 118q-17 0 -30 -12.5t-13 -30.5q0 -17 13 -30t30 -13q18 0 30.5 13t12.5 30q0 18 -12.5 30.5t-30.5 12.5zM129 105q12 0 20.5 -8.5t8.5 -20.5t-8.5 -20.5t-20.5 -8.5q-13 0 -21.5 8.5t-8.5 20.5t8.5 20.5t21.5 8.5z" />
<glyph unicode="/" horiz-adv-x="536" d="M368 549l-325 -333v-216h-10v219l326 334v167h9v-171zM401 536l-326 -333v-203h-15v209l325 333v178h16v-184zM447 517l-326 -333v-184h-32v197l326 333v190h32v-203zM476 505l-325 -333v-172h-16v178l326 333v209h15v-215zM503 494l-326 -333v-161h-9v165l325 333v222 h10v-226z" />
<glyph unicode="0" horiz-adv-x="543" d="M272 732q98 0 168 -70t70 -168v-249h-9v249q0 94 -67.5 161.5t-161.5 67.5q-95 0 -162.5 -67t-67.5 -162v-269q0 -95 67.5 -162.5t162.5 -67.5t162 67.5t67 162.5h9q0 -99 -70 -169t-168 -70q-99 0 -169 70t-70 169v269q0 98 70 168t169 70zM272 706q88 0 150 -62 t62 -150v-249h-16v249q0 81 -57.5 138.5t-138.5 57.5q-82 0 -139.5 -57.5t-57.5 -138.5v-269q0 -82 57.5 -139.5t139.5 -57.5q80 0 137.5 57.5t58.5 139.5h16q-1 -89 -62.5 -151t-149.5 -62t-150.5 62t-62.5 151v269q0 88 62.5 150t150.5 62zM272 677q75 0 128.5 -53.5 t53.5 -129.5v-249h-32v249q0 62 -44 106t-106 44t-106.5 -44t-44.5 -106v-269q0 -62 44.5 -106.5t106.5 -44.5t106 44.5t44 106.5h32q0 -76 -53.5 -129.5t-128.5 -53.5q-76 0 -129.5 53.5t-53.5 129.5v269q0 76 53.5 129.5t129.5 53.5zM272 631q56 0 96 -40.5t40 -96.5v-249 h-15v249q0 50 -35.5 85.5t-85.5 35.5t-86 -35.5t-36 -85.5v-269q0 -50 36 -86t86 -36q49 0 84.5 35.5t36.5 86.5h15q-1 -58 -40.5 -97.5t-95.5 -39.5q-57 0 -97 40t-40 97v269q0 56 40 96.5t97 40.5zM272 598q43 0 73.5 -30.5t30.5 -73.5v-249h-10v249q0 39 -27.5 67 t-66.5 28q-40 0 -67.5 -28t-27.5 -67v-269q0 -40 27.5 -67.5t67.5 -27.5q39 0 66.5 27.5t27.5 67.5h10q0 -43 -30.5 -74t-73.5 -31q-44 0 -74.5 31t-30.5 74v269q0 43 31 73.5t74 30.5z" />
<glyph unicode="1" horiz-adv-x="463" d="M313 144h137v-10h-146v577h-249v9h258v-576zM287 117h163v-15h-179v576h-216v16h232v-577zM258 88h192v-32h-417v32h192v544h-170v33h203v-577zM212 102h-179v15h163v486h-141v16h157v-517zM179 134h-146v10h137v433h-115v9h124v-452zM450 26h-417v16h417v-16zM450 0 h-417v9h417v-9z" />
<glyph unicode="2" horiz-adv-x="528" d="M498 134h-331v29q5 77 124 110q32 8 61.5 24.5t58.5 42.5t46.5 67.5t17.5 91.5q0 98 -65 161t-156 65q-75 0 -135 -46q-88 -66 -88 -176h-9q0 114 91 183q60 46 139 48h3q95 -2 162 -67q67 -67 67 -168q0 -83 -46 -145t-144 -90q-60 -16 -88.5 -45.5t-28.5 -63.5v-11h321 v-10zM498 117v-15h-363v61q6 100 148 141q156 44 160 195q1 46 -13 77t-43 60q-56 56 -134 56q-63 0 -114 -39q-73 -55 -75 -150h-16q2 103 81 162q55 41 123 43h2q86 -2 144 -60q61 -61 60 -149q-3 -163 -172 -210q-134 -38 -136 -135v-37h348zM498 88v-32h-409v107 q3 69 52.5 115.5t128.5 69.5q125 34 128 151q1 61 -43 105q-42 42 -102 42q-46 0 -87 -30q-56 -43 -56 -113h-32q0 87 69 139q47 36 105 36h3q73 0 122 -51q28 -27 41 -56t12 -72q-4 -141 -151 -182q-156 -44 -157 -163l-1 -66h377zM498 42v-16h-439v137q4 69 54 126.5 t150 85.5q105 30 105 124q0 52 -34 84q-32 34 -81 34q-37 0 -69 -24q-43 -33 -45 -90h-15q2 66 50 102q37 27 81 27q51 0 91 -37q37 -38 38 -96q2 -106 -118 -138q-84 -24 -136 -75.5t-55 -128.5v-115h423zM498 9v-9h-465v163q2 53 24.5 96t57.5 70.5t69.5 44t71.5 26.5 q86 25 86 99q0 38 -26 66q-27 25 -63 25q-31 0 -53 -18q-34 -26 -34 -69h-10q0 47 38 76q27 21 61 21q38 0 67 -29q29 -27 29 -72q0 -81 -93 -107q-96 -28 -154 -87.5t-62 -147.5v-148h456z" />
<glyph unicode="3" horiz-adv-x="519" d="M448 579l-124 -136q69 -22 113 -79q47 -59 49 -138v-3q-1 -103 -68 -170q-67 -65 -162 -67h-3q-79 2 -139 48q-91 69 -91 183h9q0 -110 88 -176q60 -46 135 -46q91 2 156 65q66 64 66 168q0 69 -47 131q-47 60 -123 79l132 145v128h-355v9h364v-141zM422 589l-148 -163 q89 -9 142 -78q42 -53 44 -122v-3q-1 -91 -61 -151q-58 -58 -144 -60h-2q-68 2 -123 43q-79 59 -81 162h16q2 -95 75 -150q51 -39 114 -39q78 0 134 56q56 54 56 141q0 63 -39 113q-58 74 -152 74h-13l166 183v83h-322v16h338v-105zM392 600l-165 -182v-20h26q89 0 140 -68 q37 -46 37 -104v-3q0 -80 -52 -130q-49 -51 -122 -51h-3q-58 0 -105 36q-69 52 -69 139h32q0 -70 56 -113q41 -30 87 -30q60 0 102 42t42 109q0 46 -30 85q-44 56 -115 56h-59v64l166 183v19h-276v33h308v-65zM346 618l-165 -182v-84h72q65 0 104 -50q27 -35 27 -76v-3 q0 -59 -37 -98q-40 -37 -91 -37h-3q-41 0 -78 27q-48 36 -50 102h15q2 -57 45 -90q30 -22 69 -24q50 2 81 34q32 31 34 88q-2 39 -24 67q-34 45 -92 45h-88v104l147 162h-228v16h262v-1zM148 448v-128h105q49 0 78 -38q19 -25 21 -56v-3q-2 -49 -29 -74q-27 -27 -67 -29h-2 h-1q-33 2 -58 21q-38 29 -38 76h10q0 -43 34 -69q23 -18 53 -18q36 0 63 25q25 27 25 70q0 29 -18 51q-26 34 -71 34h-114v141l113 126h-168v9h189z" />
<glyph unicode="4" horiz-adv-x="545" d="M303 300h17v245l-151 -271h323v-16h-347v4l191 343v-305h13v332h-14l-204 -366v-21h361v-33h-393v62l217 391h66v-365h13v378h-87l-223 -400v-79h407v-16h-423v99l230 412h112v-394h17v411h-139l-237 -425v-120h440v-9h-449v132l241 431h153v-420h55v-9h-294l105 189 v-180zM294 444l-80 -144h80v144zM302 139v-139h-9v139h9zM335 139v-139h-16v139h16zM381 139v-139h-32v139h32zM410 139v-139h-15v139h15zM437 139v-139h-10v139h10z" />
<glyph unicode="5" horiz-adv-x="489" d="M416 711h-340v-391h167q49 0 78 -38q19 -25 21 -56v-3q-1 -48 -29 -74q-27 -27 -67 -29h-3q-33 2 -58 21q-38 29 -38 76h10q0 -43 34 -69q23 -18 53 -18q36 0 63 25q25 27 25 70q0 29 -18 51q-26 34 -71 34h-176v410h349v-9zM416 678h-307v-326h134q65 0 104 -50 q27 -35 27 -76v-3q0 -59 -37 -98q-40 -37 -94 -37q-41 0 -78 27q-48 36 -50 102h15q2 -57 45 -90q30 -22 69 -24q49 2 81 34q34 33 34 91q0 33 -24 64q-34 45 -92 45h-150v357h323v-16zM416 632h-261v-234h88q89 0 140 -68q37 -46 37 -104v-3q0 -80 -52 -130 q-49 -51 -122 -51h-3q-58 0 -105 36q-69 52 -69 139h32q0 -70 56 -113q41 -30 87 -30q60 0 102 42t42 109q0 46 -30 85q-44 56 -115 56h-121v299h294v-33zM416 603h-232v-175h59q101 0 163 -80q42 -53 44 -122v-3q-1 -91 -61 -151q-58 -58 -144 -60h-2q-68 2 -123 43 q-79 59 -81 162h16q2 -95 75 -150q51 -39 114 -39q78 0 134 56q56 54 56 141q0 63 -39 113q-58 74 -152 74h-75v207h248v-16zM416 577h-206v-123h33q115 0 184 -90q47 -59 49 -138v-3q-1 -104 -69 -170q-65 -65 -162 -67h-2q-79 2 -139 48q-91 69 -91 183h9q0 -110 88 -176 q60 -46 135 -46q91 2 156 65q66 64 66 168q0 69 -47 131q-68 86 -177 86h-42v141h215v-9z" />
<glyph unicode="6" horiz-adv-x="569" d="M294 734q54 0 102 -23.5t81 -66.5q49 -63 49 -141h-9q0 76 -47 135q-67 86 -177 86q-75 0 -135 -46q-86 -68 -86 -177v-284q0 -77 47 -136q67 -84 177 -86q75 0 135 47q86 68 86 177q0 74 -47 135q-68 86 -177 86q-31 0 -66 -11v10q31 10 66 10h1q113 0 183 -89 q49 -63 49 -141v-1q0 -54 -23.5 -102t-66.5 -81q-61 -49 -141 -49q-54 0 -102 23.5t-81 66.5q-49 61 -49 140v285q0 54 23.5 102.5t66.5 81.5q61 49 141 49zM294 707q100 0 162 -79q44 -53 44 -125h-16q0 61 -39 115q-58 74 -152 74q-63 0 -114 -40q-74 -57 -74 -151v-284 q0 -64 39 -115q57 -74 152 -74q64 0 114 39q74 58 74 152q0 64 -39 115q-57 73 -152 73q-31 0 -66 -12v17q36 11 66 11h1q99 0 162 -79q44 -58 44 -125v-1q0 -100 -80 -162q-55 -44 -125 -44q-101 2 -162 80q-44 57 -44 124v285q0 101 80 163q55 43 125 43zM294 678 q87 0 139 -68q37 -46 37 -107h-32q0 49 -30 87q-45 56 -115 56q-47 0 -86 -30q-56 -44 -56 -115v-284q0 -49 30 -87q44 -56 115 -56q49 0 86 30q56 44 56 115q0 49 -30 86q-44 56 -115 56q-35 0 -66 -18v36q28 13 67 15q88 -2 139 -69q37 -44 37 -106q0 -87 -68 -141 q-47 -36 -107 -36q-87 0 -139 68q-37 46 -37 106v285q0 87 68 140q48 37 107 37zM294 632q63 0 103 -50q27 -33 27 -79h-15q0 39 -24 69q-35 44 -92 44q-39 0 -68 -23q-45 -36 -45 -92v-284q0 -39 24 -69q34 -45 92 -45q38 0 68 24q45 34 45 92q0 39 -24 68q-34 45 -92 45 q-36 0 -66 -24v21q32 18 67 19q64 -2 103 -51q27 -35 27 -78v-1q0 -64 -50 -103q-34 -27 -79 -27q-64 0 -103 50q-27 34 -27 78v285q0 65 50 104q37 27 79 27zM294 599q48 0 77 -38q21 -24 21 -58h-10q0 29 -18 53q-26 34 -71 34q-29 0 -52 -18q-34 -26 -34 -71v-284 q0 -31 18 -53q26 -34 71 -34q30 0 52 18q34 26 34 71q0 29 -18 52q-26 33 -71 35q-39 -2 -66 -35v14q24 30 67 30q48 0 77 -38q21 -25 21 -58v-1q0 -41 -30 -69.5t-67 -28.5q-50 2 -77 38q-19 24 -21 58v285q0 48 38 78q26 20 59 20z" />
<glyph unicode="7" horiz-adv-x="483" d="M450 543l-208 -307v-236h-10v239l209 307v165h-438v9h447v-177zM424 551l-209 -306v-245h-15v249l208 307v122h-405v16h421v-143zM394 560l-208 -307v-253h-32v263l208 307v62h-359v33h391v-105zM348 575l-208 -307v-268h-16v272l209 307v24h-330v16h345v-44zM316 584 l-209 -307v-277h-9v280l201 297h-296v9h313v-2z" />
<glyph unicode="8" horiz-adv-x="539" d="M270 734q90 0 154.5 -63.5t64.5 -150.5q0 -81 -52 -149l-7 6q50 65 50 143q0 84 -61.5 144.5t-148.5 60.5t-149 -60.5t-62 -144.5q2 -166 188 -216q108 -30 108 -94q0 -38 -25 -64t-60 -26q-36 0 -61 27t-25 68q0 42 30 69l11 -3q-31 -21 -31 -66q0 -38 22 -61.5 t54 -23.5t54 23t22 57q0 57 -102 85q-106 30 -149.5 91.5t-44.5 133.5q0 87 65 150.5t155 63.5zM270 708q79 0 136 -56t57 -132q0 -75 -47 -133l-12 10q43 54 43 123q0 70 -52 121t-125 51t-125.5 -51.5t-52.5 -120.5q3 -140 163 -185q71 -20 102 -52t31 -68q0 -55 -34 -91 t-84 -36t-84 35.5t-34 91.5q0 47 28 81l15 -6q-28 -30 -28 -75q0 -49 30 -80.5t73 -31.5t72.5 31.5t29.5 80.5q0 32 -28.5 59.5t-91.5 45.5q-175 49 -176 200q0 76 57 132t137 56zM270 679q67 0 115.5 -47.5t48.5 -111.5t-41 -115l-29 15q37 43 37 100q0 51 -38.5 88.5 t-92.5 37.5t-93 -37.5t-39 -88.5q1 -106 130 -141q76 -22 121 -64.5t45 -99.5q0 -74 -48 -123.5t-116 -49.5q-69 0 -116.5 49.5t-47.5 123.5q0 58 33 104l28 -16q-29 -39 -29 -88q0 -61 38.5 -101t93.5 -40t93 40t38 101q0 94 -142 133q-150 42 -153 172q0 64 48 111.5 t116 47.5zM270 633q48 0 83 -34t35 -79q0 -52 -36 -93l-16 6q36 38 36 87q0 39 -30 68t-72 29t-72.5 -29t-30.5 -68q1 -39 23 -67.5t85 -46.5q100 -28 144 -81.5t44 -109.5q0 -86 -56.5 -144.5t-136.5 -58.5q-81 0 -137.5 58.5t-56.5 144.5q0 67 40 121l12 -9 q-36 -52 -36 -112q0 -80 52 -133.5t126 -53.5t125.5 53.5t51.5 133.5q-1 63 -48 109t-127 68q-120 33 -120 128q0 46 34.5 79.5t83.5 33.5zM270 600q35 0 60 -24t25 -56q0 -49 -37 -81l-12 3q40 29 40 78q0 28 -22.5 49.5t-53.5 21.5t-53.5 -21.5t-22.5 -49.5q0 -14 3 -24.5 t11 -23t26.5 -23t47.5 -18.5q36 -10 69 -26t66 -41t52.5 -63.5t19.5 -85.5q0 -97 -64 -163t-155 -66t-155.5 66t-64.5 163q0 79 46 139l7 -6q-44 -58 -44 -133q0 -93 61.5 -156.5t149.5 -63.5t149 63.5t61 156.5q-1 74 -54.5 128t-145.5 80q-41 11 -63 29t-27 32.5t-6 35.5 q0 32 25.5 56t60.5 24z" />
<glyph unicode="9" horiz-adv-x="569" d="M274 734q54 0 102 -23.5t81 -66.5q49 -61 49 -140v-285q0 -54 -23.5 -102.5t-66.5 -81.5q-61 -49 -141 -49q-54 0 -102 23.5t-81 66.5q-49 63 -49 141h9q0 -76 47 -135q67 -86 177 -86q75 0 135 46q86 68 86 177v284q0 77 -47 136q-67 84 -177 86q-75 0 -135 -47 q-86 -68 -86 -177q0 -74 47 -135q68 -86 177 -86q30 0 65 11v-10q-31 -10 -65 -10h-1q-113 0 -183 89q-49 63 -49 141v1q0 54 23.5 102t66.5 81q61 49 141 49zM274 708q101 -2 162 -80q44 -57 44 -124v-285q0 -101 -80 -163q-55 -43 -125 -43q-100 0 -162 79q-44 53 -44 125 h16q0 -61 39 -115q58 -74 152 -74q63 0 114 40q74 57 74 151v284q0 64 -39 115q-57 74 -152 74q-64 0 -114 -39q-74 -58 -74 -152q0 -64 39 -115q57 -73 152 -73q32 0 65 13v-17q-35 -12 -65 -12h-1q-99 0 -162 79q-44 58 -44 125v1q0 100 80 162q55 44 125 44zM274 678 q87 0 139 -68q37 -46 37 -106v-285q0 -87 -68 -140q-48 -37 -107 -37q-87 0 -139 68q-37 46 -37 107h32q0 -49 30 -87q45 -56 115 -56q47 0 86 30q56 44 56 115v284q0 49 -30 87q-44 56 -115 56q-49 0 -86 -30q-56 -44 -56 -115q0 -49 30 -86q44 -56 115 -56q34 0 65 18v-36 q-28 -13 -66 -15q-88 2 -139 69q-37 44 -37 106q0 87 68 141q46 36 107 36zM274 632q64 0 103 -50q27 -34 27 -78v-285q0 -65 -50 -104q-37 -27 -79 -27q-63 0 -103 50q-27 33 -27 79h15q0 -39 24 -69q35 -44 92 -44q39 0 68 23q45 36 45 92v284q0 39 -24 69q-34 45 -92 45 q-38 0 -68 -24q-45 -34 -45 -92q0 -39 24 -68q34 -45 92 -45q35 0 65 23v-19q-31 -19 -66 -20q-64 2 -103 51q-27 35 -27 78v1q0 64 50 103q34 27 79 27zM274 600q50 -2 77 -38q19 -24 21 -58v-285q0 -48 -38 -78q-26 -20 -59 -20q-49 0 -77 38q-21 24 -21 58h10 q0 -29 18 -53q26 -34 71 -34q30 0 52 18q32 25 32 71l2 284q0 31 -18 53q-26 34 -71 34q-29 0 -52 -18q-34 -26 -34 -71q0 -29 18 -52q29 -38 71 -35q33 2 65 30v-12q-27 -27 -66 -27q-49 0 -77 38q-21 25 -21 58v1q0 41 30 69.5t67 28.5z" />
<glyph unicode=":" horiz-adv-x="200" d="M100 595q35 0 60 -25t25 -60t-25 -60t-60 -25t-60 25t-25 60t25 60t60 25zM100 586q-32 0 -54 -22t-22 -54t22 -54t54 -22t54 22t22 54t-22 54t-54 22zM99 568q25 0 42 -17t17 -42q0 -24 -17 -41t-42 -17q-24 0 -41 17t-17 41q0 25 17 42t41 17zM99 552q-17 0 -30 -12.5 t-13 -30.5q0 -17 13 -30t30 -13q18 0 30.5 13t12.5 30q0 18 -12.5 30.5t-30.5 12.5zM100 539q12 0 20.5 -8.5t8.5 -20.5t-8.5 -20.5t-20.5 -8.5q-13 0 -21.5 8.5t-8.5 20.5t8.5 20.5t21.5 8.5zM100 313q35 0 60 -25t25 -60t-25 -60t-60 -25t-60 25t-25 60t25 60t60 25z M100 304q-32 0 -54 -22t-22 -54t22 -54t54 -22t54 22t22 54t-22 54t-54 22zM99 286q25 0 42 -17t17 -42q0 -24 -17 -41t-42 -17q-24 0 -41 17t-17 41q0 25 17 42t41 17zM99 270q-17 0 -30 -12.5t-13 -30.5q0 -17 13 -30t30 -13q18 0 30.5 13t12.5 30q0 18 -12.5 30.5 t-30.5 12.5zM100 257q12 0 20.5 -8.5t8.5 -20.5t-8.5 -20.5t-20.5 -8.5q-13 0 -21.5 8.5t-8.5 20.5t8.5 20.5t21.5 8.5z" />
<glyph unicode=";" horiz-adv-x="227" d="M119 571q35 0 60 -25t25 -60t-25 -60t-60 -25t-60 25t-25 60t25 60t60 25zM119 562q-31 0 -53.5 -22t-22.5 -54t22.5 -54t53.5 -22t53.5 22t22.5 54t-22.5 54t-53.5 22zM118 544q25 0 42 -17t17 -42q0 -24 -17 -41t-42 -17q-24 0 -41 17t-17 41q0 25 17 42t41 17z M118 528q-17 0 -30 -12.5t-13 -30.5q0 -17 13 -30t30 -13q18 0 30.5 13t12.5 30q0 18 -12.5 30.5t-30.5 12.5zM119 515q12 0 20.5 -8.5t8.5 -20.5t-8.5 -20.5t-20.5 -8.5q-13 0 -21.5 8.5t-8.5 20.5t8.5 20.5t21.5 8.5zM48 41l-46 -43v-102h-9v104l46 44v65h9v-68zM81 33 l-46 -44v-93h-16v97l46 43v73h16v-76zM127 20l-2 -4l-44 -39v-81h-32v89l46 44v80h32v-89zM156 13l-46 -44v-73h-15v76l46 44v93h15v-96zM183 5l-46 -43v-66h-10v68l46 43v102h10v-104z" />
<glyph unicode="=" horiz-adv-x="543" d="M480 505h-417v9h417v-9zM480 472h-417v16h417v-16zM480 426h-417v32h417v-32zM480 397h-417v15h417v-15zM480 370h-417v10h417v-10zM480 332h-417v9h417v-9zM480 299h-417v16h417v-16zM480 253h-417v33h417v-33zM480 224h-417v16h417v-16zM480 198h-417v9h417v-9z" />
<glyph unicode="?" horiz-adv-x="532" d="M264 734h2q70 -1 120 -50.5t51 -120.5v-1v-1q0 -54 -36 -101q-50 -65 -135 -67q-12 0 -21 -8.5t-9 -20.5q0 -11 9 -19t21 -8q10 0 18 6q11 8 11 23h9q0 -19 -15 -31q-11 -8 -23 -8q-16 0 -27.5 10.5t-11.5 25.5v3q0 15 12 25.5t28 10.5q79 0 127 64q34 43 34 96 q-1 67 -48.5 114.5t-114.5 48.5q-56 0 -99 -34q-64 -50 -64 -130h-9q0 86 67 137q47 36 104 36zM264 708h2q59 -1 101.5 -43.5t43.5 -103.5q-1 -47 -31 -85q-43 -57 -114 -57q-20 0 -34 -11q-22 -17 -22 -44q1 -22 17 -38t39 -16q18 0 34 11q20 17 21 45h16q-2 -37 -27 -56 q-20 -15 -44 -15q-29 0 -49.5 19.5t-22.5 48.5v3q2 34 28 53q18 15 42 15q65 0 104 52q27 33 27 76q0 53 -38.5 91.5t-91.5 38.5q-46 0 -79 -27q-49 -37 -51 -104h-16q2 73 57 116q38 29 88 31zM264 678h2q47 0 81 -34t35 -81q0 -38 -25 -69q-34 -44 -91 -46q-30 0 -52 -18 q-33 -25 -33 -66q1 -35 25.5 -59t59.5 -24q30 0 52 18q33 25 33 67h32q0 -57 -46 -93q-30 -24 -71 -24q-48 0 -82 33.5t-36 80.5v3q2 55 46 90q30 24 70 24q41 0 67 34q18 21 18 48q0 34 -24.5 59t-59.5 25q-30 0 -51 -18q-33 -25 -33 -67h-33q0 58 46 93q30 24 70 24z M264 632h2q29 0 49 -20.5t21 -50.5q-1 -21 -16 -39q-19 -26 -54 -28q-46 0 -80 -27q-51 -39 -51 -103q1 -53 39 -91t92 -38q46 0 79 27q50 39 52 104h15q-2 -73 -57 -116q-40 -31 -89 -31q-60 0 -102.5 42t-44.5 102v3q2 70 57 113q38 29 88 31q27 0 45 22q11 14 11 30 q-1 22 -17 38t-38 17q-19 0 -33 -11q-20 -16 -22 -45h-16q1 36 28 56q18 15 42 15zM264 600h2q15 -1 26 -11.5t11 -25.5v-2q0 -13 -11.5 -23.5t-25.5 -10.5q-55 0 -100 -34q-64 -48 -64 -128q1 -68 49 -115.5t115 -47.5q55 0 100 34q63 50 63 130h10q0 -85 -68 -137 q-45 -36 -105 -36q-71 0 -121.5 49.5t-51.5 120.5v3q2 84 67 134q47 36 104 36q12 0 21 7t9 19q0 11 -9 19.5t-20 8.5q-12 0 -20.5 -8.5t-8.5 -20.5h-9q0 16 10.5 26.5t26.5 12.5zM263 161q35 0 60 -25t25 -60t-25 -60t-60 -25t-60 25t-25 60t25 60t60 25zM263 152 q-31 0 -53 -22.5t-22 -53.5t22 -53.5t53 -22.5t53.5 22t22.5 54t-22.5 54t-53.5 22zM263 134q24 0 41 -17t17 -42q0 -24 -17 -41t-41 -17q-25 0 -42 17t-17 41q0 25 17 42t42 17zM263 118q-18 0 -30.5 -12.5t-12.5 -30.5q0 -17 12.5 -30t30.5 -13q17 0 29.5 13t12.5 30 q0 18 -12.5 30.5t-29.5 12.5zM263 105q12 0 20.5 -8.5t8.5 -20.5t-8.5 -20.5t-20.5 -8.5t-20.5 8.5t-8.5 20.5t8.5 20.5t20.5 8.5z" />
<glyph unicode="@" horiz-adv-x="543" d="M327 547l6 -9q-48 -7 -81 -45.5t-33 -90.5q0 -59 41 -100t100 -41t100 41t41 100v92q0 96 -67 163.5t-162 67.5t-162.5 -67.5t-67.5 -163.5v-269q0 -95 67.5 -162.5t162.5 -67.5t162 67.5t67 162.5h9q0 -99 -70 -169t-168 -70q-99 0 -169 70t-70 169v269q0 100 70 170 t169 70q98 0 168 -70t70 -170v-92q0 -62 -44 -106.5t-106 -44.5q-63 0 -107.5 44.5t-44.5 106.5q0 54 34 94t85 51zM347 508l-5 15q-45 -5 -74.5 -39t-29.5 -82q0 -52 35 -87.5t87 -35.5q53 0 88.5 35t35.5 88v92q0 89 -62 151.5t-150 62.5q-89 0 -151 -62.5t-62 -151.5 v-269q0 -89 62.5 -151t150.5 -62t149.5 62t62.5 151h-16q-1 -82 -58.5 -139.5t-137.5 -57.5q-82 0 -139.5 57.5t-57.5 139.5v269q0 82 57.5 140t139.5 58q81 0 138.5 -58t57.5 -140v-92q0 -45 -31 -76t-77 -31q-44 0 -75 31t-31 76q0 42 26.5 71.5t66.5 34.5zM348 494v-32 q-21 -5 -34.5 -21.5t-13.5 -38.5q0 -26 18 -43.5t43 -17.5t43 17.5t18 43.5v92q0 64 -44 108t-106 44t-106.5 -44t-44.5 -108v-269q0 -62 44.5 -106.5t106.5 -44.5t106 44.5t44 106.5h32q0 -76 -53.5 -129.5t-128.5 -53.5q-76 0 -129.5 53.5t-53.5 129.5v269q0 77 53.5 131 t129.5 54q75 0 128.5 -54t53.5 -131v-92q0 -37 -28 -65t-66 -28q-36 0 -64 28t-28 65q0 33 23.5 60t56.5 32zM348 431v16q-15 -5 -24.5 -17t-9.5 -28q0 -20 14 -33.5t33 -13.5t33 13.5t14 33.5v92q0 58 -40 98.5t-96 40.5q-57 0 -97 -40.5t-40 -98.5v-269q0 -57 40 -97 t97 -40q56 0 95.5 39.5t40.5 97.5h-15q-1 -51 -36.5 -86.5t-84.5 -35.5q-50 0 -86 36t-36 86v269q0 51 36 87t86 36t85.5 -36t35.5 -87v-92q0 -14 -9.5 -23t-22.5 -9t-22.5 9t-9.5 23q0 20 19 29zM366 494v-78q-2 1 -5 1q-6 0 -10.5 -4.5t-4.5 -10.5t4.5 -10.5t10.5 -4.5 t10.5 4.5t4.5 10.5v92q0 44 -30.5 75t-73.5 31q-44 0 -74.5 -31t-30.5 -75v-269q0 -43 30.5 -74t74.5 -31q43 0 73.5 31t30.5 74h-10q0 -40 -27.5 -67.5t-66.5 -27.5q-40 0 -67.5 27.5t-27.5 67.5v269q0 41 27.5 69t67.5 28q45 0 69.5 -32t24.5 -65z" />
<glyph unicode="A" d="M520 415v-172h-313v9h304v161l-149 298h-161l-149 -298v-413h-9v415l152 305h173zM494 410v-141h-287v16h271v120l-137 273h-119l-137 -272v-406h-16v409l143 285h140zM464 402v-103h-257v32h225v63l-119 238h-63l-119 -238v-394h-32v402l131 263h103zM418 391v-46h-211 v15h196v27l-108 216h-27l-108 -215v-388h-15v392l113 227h47zM386 384v-7h-179v10h167l-92 184l-95 -190v-381h-10v384l101 202h7zM386 0h-10v225h10v-225zM418 0h-15v225h15v-225zM464 0h-32v225h32v-225zM494 0h-16v225h16v-225zM520 0h-9v225h9v-225z" />
<glyph unicode="B" horiz-adv-x="552" d="M473 510q0 -93 -64 -155t-152 -62h-30v10h30q85 0 146 60.5t61 146.5q0 81 -61 141t-146 60h-185v-702h230q86 0 147 61.5t61 147.5q0 88 -66 151l6 8q69 -64 69 -159q0 -90 -63.5 -154t-153.5 -64h-239v720h197q88 -1 150.5 -63.5t62.5 -146.5zM424 345l10 11 q59 -53 59 -138q0 -79 -56 -135.5t-135 -56.5h-213v668h171q77 -1 132 -56t55 -128q0 -79 -55.5 -134.5t-134.5 -55.5h-30v15h30q72 0 123 51.5t51 123.5q0 68 -51 118t-123 50h-152v-636h197q72 0 123.5 51.5t51.5 124.5q0 77 -53 127zM413 335l-25 -21q43 -38 43 -96 q0 -54 -38 -92t-91 -38h-151v544h106q53 0 90.5 -36.5t37.5 -85.5q0 -53 -37.5 -91t-90.5 -38h-30v-32h30q66 0 113.5 47t47.5 114q0 61 -46.5 107.5t-111.5 47.5h-141v-609h183q67 0 114.5 47.5t47.5 114.5q0 68 -51 117zM361 299l15 8q42 -36 42 -89q0 -48 -34 -82 t-82 -34h-137v517h95q46 -1 79 -34t33 -75q0 -47 -34 -81t-81 -34h-30v16h30q41 0 70 29.5t29 69.5q0 36 -29.5 64.5t-69.5 28.5h-77v-486h122q41 0 70.5 29.5t29.5 71.5q0 51 -41 81zM337 288l9 4q39 -30 39 -74q0 -35 -24.5 -59.5t-58.5 -24.5h-105v452h63q33 -1 56 -24 t23 -52q0 -34 -24 -58t-58 -24h-30v9h30q30 0 51.5 21.5t21.5 51.5q0 26 -21.5 46.5t-51.5 20.5h-50v-433h95q31 0 52.5 22t21.5 53q0 41 -39 69z" />
<glyph unicode="C" horiz-adv-x="529" d="M272 734q98 0 168 -70t70 -168h-9q0 94 -67.5 161.5t-161.5 67.5q-95 0 -162.5 -67t-67.5 -162v-271q0 -95 67.5 -162.5t162.5 -67.5t162 67.5t67 162.5h9q0 -99 -70 -169t-168 -70q-99 0 -169 70t-70 169v271q0 98 70 168t169 70zM272 708q88 0 149.5 -62t62.5 -150h-16 q-1 82 -58.5 139t-137.5 57q-82 0 -139.5 -57.5t-57.5 -138.5v-271q0 -82 57.5 -139.5t139.5 -57.5q80 0 137.5 57.5t58.5 139.5h16q-1 -89 -62.5 -151t-149.5 -62t-150.5 62t-62.5 151v271q0 88 62.5 150t150.5 62zM272 679q75 0 128.5 -53.5t53.5 -129.5h-32q0 62 -44 106 t-106 44t-106.5 -44t-44.5 -106v-271q0 -62 44.5 -106.5t106.5 -44.5t106 44.5t44 106.5h32q0 -76 -53.5 -129.5t-128.5 -53.5q-76 0 -129.5 53.5t-53.5 129.5v271q0 76 53.5 129.5t129.5 53.5zM272 633q56 0 95.5 -40t40.5 -97h-15q-1 50 -36.5 85.5t-84.5 35.5 q-50 0 -86 -35.5t-36 -85.5v-271q0 -50 36 -86t86 -36q49 0 84.5 35.5t36.5 86.5h15q-1 -58 -40.5 -97.5t-95.5 -39.5q-57 0 -97 40t-40 97v271q0 56 40 96.5t97 40.5zM272 600q43 0 73.5 -30.5t30.5 -73.5h-10q0 39 -27.5 67t-66.5 28q-40 0 -67.5 -28t-27.5 -67v-271 q0 -40 27.5 -67.5t67.5 -27.5q39 0 66.5 27.5t27.5 67.5h10q0 -43 -30.5 -74t-73.5 -31q-44 0 -74.5 31t-30.5 74v271q0 43 31 73.5t74 30.5z" />
<glyph unicode="D" horiz-adv-x="573" d="M63 720h239q98 0 168 -70t70 -168v-243q0 -99 -70 -169t-168 -70h-239v720zM531 239v243q0 94 -67.5 161.5t-161.5 67.5h-230v-702h230q95 0 162 67.5t67 162.5zM89 694h213q88 0 150 -62t62 -150v-243q0 -88 -62 -150.5t-150 -62.5h-213v668zM498 239v243 q0 81 -57.5 138.5t-138.5 57.5h-197v-636h197q81 0 138.5 57.5t57.5 139.5zM119 665h183q75 0 128.5 -53.5t53.5 -129.5v-243q0 -76 -53.5 -129.5t-128.5 -53.5h-183v609zM452 239v243q0 62 -44 106t-106 44h-151v-544h151q62 0 106 44.5t44 106.5zM165 619h137 q56 0 96 -40.5t40 -96.5v-243q0 -57 -40 -97t-96 -40h-137v517zM423 239v243q0 50 -35.5 85.5t-85.5 35.5h-122v-486h122q50 0 85.5 36t35.5 86zM197 586h105q43 0 73.5 -30.5t30.5 -73.5v-243q0 -43 -30.5 -74t-73.5 -31h-105v452zM396 239v243q0 39 -27.5 67t-66.5 28h-95 v-433h95q39 0 66.5 27.5t27.5 67.5z" />
<glyph unicode="E" horiz-adv-x="553" d="M500 711h-428v-410h355v-9h-364v428h437v-9zM500 678h-395v-344h322v-16h-338v376h411v-16zM500 632h-349v-252h276v-33h-308v318h381v-33zM500 603h-320v-194h247v-16h-262v226h335v-16zM500 577h-293v-142h220v-9h-230v160h303v-9zM72 9h438v-9h-447v273h9v-264z M105 42h405v-16h-421v247h16v-231zM151 88h359v-32h-391v217h32v-185zM180 117h330v-15h-345v171h15v-156zM207 144h303v-10h-313v139h10v-129z" />
<glyph unicode="F" horiz-adv-x="503" d="M510 711h-438v-417h355v-9h-364v435h447v-9zM510 678h-405v-351h322v-16h-338v383h421v-16zM510 632h-359v-259h276v-33h-308v325h391v-33zM510 603h-330v-201h247v-16h-262v233h345v-16zM510 577h-303v-149h220v-9h-230v167h313v-9zM72 0h-9v266h9v-266zM105 0h-16v266 h16v-266zM151 0h-32v266h32v-266zM180 0h-15v266h15v-266zM207 0h-10v266h10v-266z" />
<glyph unicode="G" horiz-adv-x="543" d="M272 734q98 0 168 -70t70 -168h-9q0 94 -67.5 161.5t-161.5 67.5q-95 0 -162.5 -67t-67.5 -162v-271q0 -95 67.5 -162.5t162.5 -67.5t162 67.5t67 162.5v201h-221v9h230v-210q0 -99 -70 -169t-168 -70q-99 0 -169 70t-70 169v271q0 98 70 168t169 70zM272 708 q88 0 149.5 -62t62.5 -150h-16q-1 82 -58.5 139t-137.5 57q-82 0 -139.5 -57.5t-57.5 -138.5v-271q0 -82 57.5 -139.5t139.5 -57.5q81 0 138.5 57.5t57.5 139.5v168h-188v16h204v-184q0 -88 -62 -150.5t-150 -62.5t-150.5 62t-62.5 151v271q0 88 62.5 150t150.5 62zM272 679 q75 0 128.5 -53.5t53.5 -129.5h-32q0 62 -44 106t-106 44t-106.5 -44t-44.5 -106v-271q0 -62 44.5 -106.5t106.5 -44.5t106 44.5t44 106.5v122h-142v33h174v-155q0 -76 -53.5 -129.5t-128.5 -53.5q-76 0 -129.5 53.5t-53.5 129.5v271q0 76 53.5 129.5t129.5 53.5zM272 633 q56 0 95.5 -40t40.5 -97h-15q-1 50 -36.5 85.5t-84.5 35.5q-50 0 -86 -35.5t-36 -85.5v-271q0 -50 36 -86t86 -36t85.5 36t35.5 86v93h-113v16h128v-109q0 -57 -40 -97t-96 -40q-57 0 -97 40t-40 97v271q0 56 40 96.5t97 40.5zM272 600q43 0 73.5 -30.5t30.5 -73.5h-10 q0 39 -27.5 67t-66.5 28q-40 0 -67.5 -28t-27.5 -67v-271q0 -40 27.5 -67.5t67.5 -27.5q39 0 66.5 27.5t27.5 67.5v67h-86v9h96v-76q0 -43 -30.5 -74t-73.5 -31q-44 0 -74.5 31t-30.5 74v271q0 43 31 73.5t74 30.5z" />
<glyph unicode="H" horiz-adv-x="603" d="M72 0h-9v720h9v-720zM105 0h-16v720h16v-720zM151 0h-32v720h32v-720zM180 0h-15v720h15v-720zM207 0h-10v720h10v-720zM484 340h-257v33h225v347h32v-380zM540 285h-313v9h304v426h9v-435zM514 311h-287v16h271v393h16v-409zM438 386h-211v16h196v318h15v-334zM406 419 h-179v9h169v292h10v-301zM406 0h-10v266h10v-266zM438 0h-15v266h15v-266zM484 0h-32v266h32v-266zM514 0h-16v266h16v-266zM540 0h-9v266h9v-266z" />
<glyph unicode="I" horiz-adv-x="419" d="M376 711h-333v9h333v-9zM376 678h-333v16h333v-16zM376 632h-150v-544h150v-32h-333v32h151v544h-151v33h333v-33zM180 102h-137v15h121v486h-121v16h137v-517zM376 603h-121v-486h121v-15h-136v517h136v-16zM147 134h-104v10h95v433h-95v9h104v-452zM376 577h-94v-433 h94v-10h-104v452h104v-9zM376 26h-333v16h333v-16zM376 0h-333v9h333v-9z" />
<glyph unicode="J" horiz-adv-x="540" d="M477 720v-495q0 -99 -70 -169t-168 -70q-99 0 -169 70t-70 169h9q0 -95 67.5 -162.5t162.5 -67.5t162 67.5t67 162.5v486h-353v9h362zM451 694v-469q0 -88 -62 -150.5t-150 -62.5q-89 0 -150.5 62t-62.5 151h16q1 -82 58.5 -139.5t138.5 -57.5t138.5 57.5t57.5 139.5v453 h-320v16h336zM421 664v-439q0 -76 -53.5 -129.5t-128.5 -53.5q-76 0 -129.5 53.5t-53.5 129.5h32q0 -62 44.5 -106.5t106.5 -44.5t106 44.5t44 106.5v407h-274v32h306zM375 618v-393q0 -57 -40 -97t-96 -40q-57 0 -96.5 39.5t-40.5 97.5h15q1 -51 36.5 -86.5t85.5 -35.5 t85.5 36t35.5 86v378h-245v15h260zM343 586v-361q0 -43 -30.5 -74t-73.5 -31t-74 31t-31 74h10q0 -40 27.5 -67.5t67.5 -27.5q39 0 66.5 27.5t27.5 67.5v351h-218v10h228z" />
<glyph unicode="K" horiz-adv-x="583" d="M72 0h-9v720h9v-720zM105 0h-16v720h16v-720zM151 0h-32v720h32v-720zM180 0h-15v720h15v-720zM207 0h-10v720h10v-720zM484 516l-200 -176h-57v33h45l180 158v189h32v-204zM540 491l-235 -206h-78v9h75l229 201v225h9v-229zM438 537l-171 -151h-40v16h34l162 142v176h15 v-183zM406 552l-151 -133h-28v9h24l145 128v164h10v-168zM514 503l-219 -192h-68v16h63l208 183v210h16v-217zM540 220v-220h-9v216l-129 129l7 6zM514 209v-209h-16v202l-120 121l11 10zM484 197v-197h-32v183l-110 110l25 21zM438 177v-177h-15v171l-103 103l12 10z M406 164v-164h-10v160l-106 106h13z" />
<glyph unicode="L" horiz-adv-x="461" d="M72 9h396v-9h-405v720h9v-711zM105 42h363v-16h-379v694h16v-678zM151 88h317v-32h-349v664h32v-632zM180 117h288v-15h-303v618h15v-603zM207 144h261v-10h-271v586h10v-576z" />
<glyph unicode="M" horiz-adv-x="699" d="M639 0h-10v711h-147l-133 -274l-132 274h-148v-711h-9v720h163l126 -256l127 256h163v-720zM612 0h-15v678h-92l-156 -333l-155 333h-92v-678h-16v694h119l144 -304l144 304h119v-694zM583 0h-32v632h-14l-156 -333h-64l-155 333h-14v-632h-32v665h69l155 -334h19 l155 334h69v-665zM537 0h-16v506l-119 -237h-105l-120 237v-506h-15v597l146 -312h82l147 312v-597zM504 0h-9v396l-75 -153h-141l-75 153v-396h-10v437l91 -185h129l90 185v-437z" />
<glyph unicode="N" horiz-adv-x="603" d="M406 272l-188 439h-146v-711h-9v720h161l172 -403v403h10v-448zM438 113l-242 565h-91v-678h-16v694h118l216 -505v531h15v-607zM484 49h-68l-250 583h-15v-632h-32v665h68l250 -584h15v639h32v-671zM514 19h-118l-216 505v-524h-15v600l242 -565h91v685h16v-701zM540 -7 h-161l-172 403v-396h-10v441l188 -439h146v718h9v-727z" />
<glyph unicode="O" horiz-adv-x="543" d="M272 733q98 0 168 -70t70 -168v-270q0 -99 -70 -169t-168 -70q-99 0 -169 70t-70 169v270q0 98 70 168t169 70zM501 225v270q0 95 -67.5 162t-161.5 67q-95 0 -162.5 -67t-67.5 -162v-270q0 -95 67.5 -162.5t162.5 -67.5t162 67.5t67 162.5zM272 707q88 0 150 -62 t62 -150v-270q0 -88 -62 -150.5t-150 -62.5t-150 62t-63 151v270q0 88 62.5 150t150.5 62zM468 225v270q0 81 -57.5 138.5t-138.5 57.5q-82 0 -139.5 -57.5t-57.5 -138.5v-270q1 -82 58.5 -139.5t138.5 -57.5t138.5 57.5t57.5 139.5zM272 678q75 0 128.5 -53.5t53.5 -129.5 v-270q0 -76 -53.5 -129.5t-128.5 -53.5q-76 0 -129.5 53.5t-53.5 129.5v270q0 76 53.5 129.5t129.5 53.5zM422 225v270q0 62 -44 106t-106 44t-106.5 -44t-44.5 -106v-270q0 -62 44.5 -106.5t106.5 -44.5t106 44.5t44 106.5zM272 632q56 0 96 -40.5t40 -96.5v-270 q0 -57 -40 -97t-96 -40q-57 0 -96.5 39.5t-40.5 97.5v270q0 56 40 96.5t97 40.5zM393 225v270q0 49 -35.5 85t-85.5 36t-86 -35.5t-36 -85.5v-270q1 -51 36.5 -86.5t85.5 -35.5t85.5 36t35.5 86zM272 599q43 0 73.5 -30.5t30.5 -73.5v-270q0 -43 -30.5 -74t-73.5 -31 q-44 0 -74.5 31t-30.5 74v270q0 43 31 73.5t74 30.5zM366 225v270q0 39 -27.5 67t-66.5 28q-40 0 -67.5 -28t-27.5 -67v-270q0 -40 27.5 -67.5t67.5 -27.5q39 0 66.5 27.5t27.5 67.5z" />
<glyph unicode="P" horiz-adv-x="553" d="M63 720h239q98 0 168 -70t70 -168q0 -99 -70 -169t-168 -70h-75v9h75q95 0 162 67.5t67 162.5q0 94 -67.5 161.5t-161.5 67.5h-230v-711h-9v720zM89 694h213q88 0 150 -62t62 -150t-62 -150.5t-150 -62.5h-75v16h75q81 0 138.5 57.5t57.5 139.5q0 81 -57.5 138.5 t-138.5 57.5h-197v-678h-16v694zM119 665h183q75 0 128.5 -53.5t53.5 -129.5t-53.5 -129.5t-128.5 -53.5h-75v32h75q62 0 106 44.5t44 106.5t-44 106t-106 44h-151v-632h-32v665zM165 619h137q56 0 96 -40.5t40 -96.5q0 -57 -40 -97t-96 -40h-75v15h75q50 0 85.5 36t35.5 86 t-35.5 85.5t-85.5 35.5h-122v-603h-15v619zM197 586h105q43 0 73.5 -30.5t30.5 -73.5t-30.5 -74t-73.5 -31h-75v10h75q39 0 66.5 27.5t27.5 67.5q0 39 -27.5 67t-66.5 28h-95v-577h-10v586z" />
<glyph unicode="Q" horiz-adv-x="544" d="M272 733q98 0 168 -70t70 -168v-229h-9v229q0 95 -67.5 162t-161.5 67q-95 0 -162.5 -67t-67.5 -162v-270q0 -95 67.5 -162.5t162.5 -67.5v-9q-99 0 -169 70t-70 169v270q0 98 70 168t169 70zM272 707q88 0 150 -62t62 -150v-229h-16v229q0 81 -57.5 138.5t-138.5 57.5 q-82 0 -139.5 -57.5t-57.5 -138.5v-270q0 -81 57.5 -138.5t139.5 -58.5v-16q-89 1 -151 62.5t-62 150.5v270q0 88 62.5 150t150.5 62zM272 678q75 0 128.5 -53.5t53.5 -129.5v-229h-32v229q0 62 -44 106t-106 44t-106.5 -44t-44.5 -106v-270q0 -62 44.5 -106.5t106.5 -44.5 v-32q-76 0 -129.5 53.5t-53.5 129.5v270q0 76 53.5 129.5t129.5 53.5zM272 632q56 0 96 -40.5t40 -96.5v-229h-15v229q0 49 -35.5 85t-85.5 36t-86 -35.5t-36 -85.5v-270q0 -50 35.5 -85.5t86.5 -36.5v-15q-58 1 -97.5 40.5t-39.5 96.5v270q0 56 40 96.5t97 40.5zM272 599 q43 0 73.5 -30.5t30.5 -73.5v-229h-10v229q0 39 -27.5 67t-66.5 28q-40 0 -67.5 -28t-27.5 -67v-270q0 -40 27.5 -67.5t67.5 -27.5q43 -1 73.5 -31.5t30.5 -73.5h-9q0 40 -28 67.5t-68 27.5q-43 0 -73.5 31t-30.5 74v270q0 43 31 73.5t74 30.5zM271 255v9q99 0 169 -70 t71 -169h-10q0 95 -67.5 162.5t-162.5 67.5zM271 222v16q89 -1 150.5 -62.5t62.5 -150.5h-15q-2 82 -59 139t-139 58zM271 176v32q76 0 130 -53.5t54 -129.5h-32q-1 63 -45 107t-107 44zM271 147v15q58 -1 97.5 -40t40.5 -97h-16q-1 50 -36.5 85.5t-85.5 36.5z" />
<glyph unicode="R" horiz-adv-x="603" d="M227 243v9h75q95 0 162 67.5t67 162.5q0 94 -67.5 161.5t-161.5 67.5h-230v-711h-9v720h239q98 0 168 -70t70 -168q0 -100 -69 -169.5t-169 -69.5h-75zM498 482q0 81 -57.5 138.5t-138.5 57.5h-197v-678h-16v694h213q88 0 150 -62t62 -150t-62 -150.5t-150 -62.5h-75v16 h75q81 0 138.5 57.5t57.5 139.5zM452 482q0 62 -44 106t-106 44h-151v-632h-32v665h183q75 0 128.5 -53.5t53.5 -129.5t-53.5 -129.5t-128.5 -53.5h-75v32h75q62 0 106 44.5t44 106.5zM423 482q0 50 -35.5 85.5t-85.5 35.5h-122v-603h-15v619h137q56 0 96 -40.5t40 -96.5 q0 -57 -40 -97t-96 -40h-75v15h75q50 0 85.5 36t35.5 86zM396 482q0 39 -27.5 67t-66.5 28h-95v-577h-10v586h105q43 0 73.5 -30.5t30.5 -73.5t-30.5 -74t-73.5 -31h-75v10h75q39 0 66.5 27.5t27.5 67.5zM477 294l7 7q56 -67 56 -153v-148h-9v148q0 79 -54 146zM452 273 l12 11q50 -59 50 -136v-148h-16v148q0 69 -46 125zM413 248l28 17q43 -54 43 -117v-148h-32v148q0 61 -39 100zM383 237l16 6q39 -39 39 -95v-148h-15v148q0 49 -40 89zM353 227l12 3q3 -2 8 -7q33 -33 33 -75v-148h-10v148q0 39 -29 68q-7 7 -14 11z" />
<glyph unicode="S" horiz-adv-x="515" d="M259 734q74 -2 129 -46q83 -64 83 -171h-9q0 101 -80 164q-53 42 -123 44q-83 -1 -140.5 -59t-58.5 -140q1 -50 18 -91t45.5 -67t58.5 -42.5t64 -25.5q93 -26 93 -98q-1 -35 -24.5 -59.5t-57.5 -24.5q-27 0 -49 17q-33 27 -33 68h9q0 -37 29 -60q21 -16 44 -16 q30 0 51 22t22 53q0 65 -87 89q-56 16 -95.5 43.5t-59 61.5t-28.5 65t-9 65q1 85 61 146t147 62zM259 708q61 0 113 -41q71 -54 73 -150h-15q-2 87 -68 139q-45 36 -103 36q-71 -1 -118.5 -49t-48.5 -117q3 -150 162 -195q117 -33 117 -130q-1 -47 -34.5 -81t-79.5 -34 q-37 0 -70 25q-42 33 -44 92h15q2 -51 39 -81q26 -21 60 -21q40 0 69.5 29.5t29.5 70.5q0 86 -105 115q-85 24 -129 78t-45 132q1 76 53 128.5t129 53.5zM259 679q55 -2 95 -34q62 -48 62 -128h-32q0 64 -50 103q-35 27 -75 27q-51 -1 -86 -36.5t-36 -85.5q2 -115 130 -150 q73 -21 111.5 -66t38.5 -105q0 -15 -4.5 -34.5t-16 -42.5t-29 -42t-46 -31.5t-64.5 -12.5q-55 0 -97 33q-62 48 -62 129h32q0 -65 49 -103q34 -27 78 -27q52 0 90 37.5t38 90.5q0 108 -127 143q-150 42 -153 182q2 64 45.5 108t108.5 45zM259 634q38 -2 67 -25 q43 -34 45 -92h-16q-2 53 -39 81q-25 20 -57 20q-40 0 -66 -27t-27 -66q2 -93 108 -123q51 -15 87 -39t53 -53.5t24 -55t7 -52.5q-1 -79 -56 -134.5t-132 -55.5q-64 0 -115 40q-71 56 -73 151h15q2 -88 68 -139q46 -37 105 -37q44 0 79.5 19.5t54.5 48.5t29 57.5t10 51.5 q-2 65 -42.5 114t-116.5 70q-120 33 -120 137q1 46 31 77t77 32zM259 601q25 0 47 -17q33 -25 33 -67h-10q0 38 -28 60q-19 15 -42 15q-29 0 -47.5 -19.5t-19.5 -47.5q0 -15 3 -26.5t11.5 -25.5t27.5 -26t47 -20q76 -20 133 -76.5t57 -146.5q0 -92 -62.5 -155t-151.5 -63 q-72 0 -131 45q-83 66 -83 172h9q0 -103 80 -164q55 -44 125 -44q84 0 143.5 60.5t61.5 148.5q-2 77 -48.5 133.5t-134.5 81.5q-40 11 -63 31.5t-27.5 36.5t-5.5 38q1 32 22 54t54 22z" />
<glyph unicode="T" horiz-adv-x="428" d="M130 711h-137v9h137v-9zM435 711h-276v-711h-9v720h285v-9zM130 678h-137v16h137v-16zM435 678h-243v-678h-16v694h259v-16zM130 632h-137v33h137v-33zM435 632h-197v-632h-33v665h230v-33zM130 603h-137v16h137v-16zM435 603h-168v-603h-16v619h184v-16zM130 577h-137v9 h137v-9zM435 577h-142v-577h-9v586h151v-9z" />
<glyph unicode="U" horiz-adv-x="603" d="M540 720v-495q0 -99 -70 -169t-168 -70q-99 0 -169 70t-70 169v495h9v-495q0 -95 67.5 -162.5t162.5 -67.5t162 67.5t67 162.5v495h9zM514 720v-495q0 -88 -62 -150.5t-150 -62.5t-150.5 62t-62.5 151v495h16v-495q0 -82 57.5 -139.5t139.5 -57.5q81 0 138.5 57.5 t57.5 139.5v495h16zM484 720v-495q0 -76 -53.5 -129.5t-128.5 -53.5q-76 0 -129.5 53.5t-53.5 129.5v495h32v-495q0 -62 44.5 -106.5t106.5 -44.5t106 44.5t44 106.5v495h32zM438 720v-495q0 -57 -40 -97t-96 -40q-57 0 -97 40t-40 97v495h15v-495q0 -50 36 -86t86 -36 t85.5 36t35.5 86v495h15zM406 720v-495q0 -43 -30.5 -74t-73.5 -31q-44 0 -74.5 31t-30.5 74v495h10v-495q0 -40 27.5 -67.5t67.5 -27.5q39 0 66.5 27.5t27.5 67.5v495h10z" />
<glyph unicode="V" d="M520 349l-149 -349h-178l-150 349v371h9v-369l147 -342h165l147 342v369h9v-371zM494 354l-140 -328h-144l-141 329v365h16v-362l136 -316h122l135 315v363h16v-366zM464 360l-130 -304h-105l-130 304v360h32v-353l120 -279h62l119 279v353h32v-360zM418 370l-114 -268 h-45l-114 267v351h15v-347l110 -256h23l110 255v348h15v-350zM386 376l-104 -242l-105 242v344h10v-342l95 -221l94 221v342h10v-344z" />
<glyph unicode="W" horiz-adv-x="645" d="M602 720v-535l-62 -185h-145l-73 167l-72 -167h-145l-62 185v535h9v-533l59 -178h132l79 188l80 -188h131l59 178v533h10zM123 26l-54 164v530h16v-529l50 -149h84l104 249l103 -249h83l51 150v528h15v-531l-54 -163h-108l-91 213l-91 -213h-108zM145 56l-46 138v526h32 v-521l37 -111h18l104 250h65l103 -250h19l37 111v521h32v-526l-46 -138h-65l-103 250h-19l-103 -250h-65zM178 103l-33 98v519h15v-516l17 -51l91 214h108l91 -214l17 51v516h16v-519l-33 -98l-103 249h-84zM256 384l-79 -185v521h10v-473l63 147h145l63 -147v473h9v-521 l-79 185h-132zM323 292v-1l-1 1h1zM177 102l1 1v-1h-1zM467 102v1l1 -1h-1z" />
<glyph unicode="X" d="M52 568l135 -188l-5 -8l-139 193v155h9v-152zM386 608l-334 -463v-145h-9v148l333 463v109h10v-112zM85 578l123 -170l-10 -13l-129 179v146h16v-142zM418 598l-333 -463v-135h-16v139l334 464v117h15v-122zM131 593l105 -145l-20 -28l-117 163v137h32v-127zM464 583 l-333 -463v-120h-32v130l333 463v127h32v-137zM494 574l-334 -463v-111h-15v115l333 463v142h16v-146zM160 603l94 -130l-10 -14l-99 139v122h15v-117zM520 565l-333 -463v-102h-10v105l334 463v152h9v-155zM187 611l83 -116l-6 -8l-87 121v112h10v-109zM520 148v-148h-9 v145l-135 188l5 8zM494 139v-139h-16v135l-124 168l10 14zM464 130v-130h-32v120l-105 145l20 28zM418 115v-115h-15v111l-93 130l10 13zM386 105v-105h-10v102l-83 116l6 8z" />
<glyph unicode="Y" d="M52 501l167 -208v-293h-9v290l-167 208l1 222h9zM85 513l167 -209v-304h-16v299l-167 209l1 212h16zM131 529l167 -208v-321h-33v309l-166 209l1 202h32zM160 539l167 -208v-331h-16v326l-166 208l1 186h15zM187 549l166 -209v-340h-9v337l-167 208l1 175h10zM386 549 l-98 -98l-6 8l94 94l1 167h10zM418 536l-109 -111l-10 13l104 104l1 178h15zM464 517l-127 -127l-20 25l115 115l1 190h32zM494 505l-139 -138l-9 13l132 131l1 209h16zM520 494l-148 -149l-5 8l144 144l1 223h9z" />
<glyph unicode="Z" d="M520 540l-323 -396h323v-10h-342l333 409v168h-468v9h477v-180zM494 549l-334 -409v-23h360v-15h-375v42l333 410v124h-435v16h451v-145zM464 559l-333 -410v-61h389v-32h-421v105l333 410v61h-389v33h421v-106zM418 576l-333 -410v-124h435v-16h-451v145l334 410v22 h-360v16h375v-43zM52 177v-168h468v-9h-477v180l323 397h-323v9h342z" />
<glyph unicode="[" horiz-adv-x="364" d="M304 -135v-9h-242v1007h232v-9h-223v-989h233zM304 -102v-16h-216v955h206v-16h-190v-923h200zM304 -56v-32h-186v896h176v-33h-144v-831h154zM304 -27v-15h-140v804h130v-16h-115v-773h125zM304 -10h-108v739h98v-9h-88v-720h98v-10z" />
<glyph unicode="]" horiz-adv-x="364" d="M293 854h-223v9h232v-1007h-242v9h233v989zM260 821h-190v16h206v-955h-216v16h200v923zM214 775h-144v33h176v-896h-186v32h154v831zM185 746h-115v16h130v-804h-140v15h125v773zM158 0v720h-88v9h98v-739h-108v10h98z" />
<glyph unicode="_" horiz-adv-x="602" d="M539 -9h-476v9h476v-9zM539 -42h-476v16h476v-16zM539 -88h-476v33h476v-33zM539 -117h-476v16h476v-16zM539 -143h-476v9h476v-9z" />
<glyph unicode="a" d="M520 415v-172h-313v9h304v161l-149 298h-161l-149 -298v-413h-9v415l152 305h173zM494 410v-141h-287v16h271v120l-137 273h-119l-137 -272v-406h-16v409l143 285h140zM464 402v-103h-257v32h225v63l-119 238h-63l-119 -238v-394h-32v402l131 263h103zM418 391v-46h-211 v15h196v27l-108 216h-27l-108 -215v-388h-15v392l113 227h47zM386 384v-7h-179v10h167l-92 184l-95 -190v-381h-10v384l101 202h7zM386 0h-10v225h10v-225zM418 0h-15v225h15v-225zM464 0h-32v225h32v-225zM494 0h-16v225h16v-225zM520 0h-9v225h9v-225z" />
<glyph unicode="b" horiz-adv-x="552" d="M473 510q0 -93 -64 -155t-152 -62h-30v10h30q85 0 146 60.5t61 146.5q0 81 -61 141t-146 60h-185v-702h230q86 0 147 61.5t61 147.5q0 88 -66 151l6 8q69 -64 69 -159q0 -90 -63.5 -154t-153.5 -64h-239v720h197q88 -1 150.5 -63.5t62.5 -146.5zM424 345l10 11 q59 -53 59 -138q0 -79 -56 -135.5t-135 -56.5h-213v668h171q77 -1 132 -56t55 -128q0 -79 -55.5 -134.5t-134.5 -55.5h-30v15h30q72 0 123 51.5t51 123.5q0 68 -51 118t-123 50h-152v-636h197q72 0 123.5 51.5t51.5 124.5q0 77 -53 127zM413 335l-25 -21q43 -38 43 -96 q0 -54 -38 -92t-91 -38h-151v544h106q53 0 90.5 -36.5t37.5 -85.5q0 -53 -37.5 -91t-90.5 -38h-30v-32h30q66 0 113.5 47t47.5 114q0 61 -46.5 107.5t-111.5 47.5h-141v-609h183q67 0 114.5 47.5t47.5 114.5q0 68 -51 117zM361 299l15 8q42 -36 42 -89q0 -48 -34 -82 t-82 -34h-137v517h95q46 -1 79 -34t33 -75q0 -47 -34 -81t-81 -34h-30v16h30q41 0 70 29.5t29 69.5q0 36 -29.5 64.5t-69.5 28.5h-77v-486h122q41 0 70.5 29.5t29.5 71.5q0 51 -41 81zM337 288l9 4q39 -30 39 -74q0 -35 -24.5 -59.5t-58.5 -24.5h-105v452h63q33 -1 56 -24 t23 -52q0 -34 -24 -58t-58 -24h-30v9h30q30 0 51.5 21.5t21.5 51.5q0 26 -21.5 46.5t-51.5 20.5h-50v-433h95q31 0 52.5 22t21.5 53q0 41 -39 69z" />
<glyph unicode="c" horiz-adv-x="529" d="M272 734q98 0 168 -70t70 -168h-9q0 94 -67.5 161.5t-161.5 67.5q-95 0 -162.5 -67t-67.5 -162v-271q0 -95 67.5 -162.5t162.5 -67.5t162 67.5t67 162.5h9q0 -99 -70 -169t-168 -70q-99 0 -169 70t-70 169v271q0 98 70 168t169 70zM272 708q88 0 149.5 -62t62.5 -150h-16 q-1 82 -58.5 139t-137.5 57q-82 0 -139.5 -57.5t-57.5 -138.5v-271q0 -82 57.5 -139.5t139.5 -57.5q80 0 137.5 57.5t58.5 139.5h16q-1 -89 -62.5 -151t-149.5 -62t-150.5 62t-62.5 151v271q0 88 62.5 150t150.5 62zM272 679q75 0 128.5 -53.5t53.5 -129.5h-32q0 62 -44 106 t-106 44t-106.5 -44t-44.5 -106v-271q0 -62 44.5 -106.5t106.5 -44.5t106 44.5t44 106.5h32q0 -76 -53.5 -129.5t-128.5 -53.5q-76 0 -129.5 53.5t-53.5 129.5v271q0 76 53.5 129.5t129.5 53.5zM272 633q56 0 95.5 -40t40.5 -97h-15q-1 50 -36.5 85.5t-84.5 35.5 q-50 0 -86 -35.5t-36 -85.5v-271q0 -50 36 -86t86 -36q49 0 84.5 35.5t36.5 86.5h15q-1 -58 -40.5 -97.5t-95.5 -39.5q-57 0 -97 40t-40 97v271q0 56 40 96.5t97 40.5zM272 600q43 0 73.5 -30.5t30.5 -73.5h-10q0 39 -27.5 67t-66.5 28q-40 0 -67.5 -28t-27.5 -67v-271 q0 -40 27.5 -67.5t67.5 -27.5q39 0 66.5 27.5t27.5 67.5h10q0 -43 -30.5 -74t-73.5 -31q-44 0 -74.5 31t-30.5 74v271q0 43 31 73.5t74 30.5z" />
<glyph unicode="d" horiz-adv-x="573" d="M63 720h239q98 0 168 -70t70 -168v-243q0 -99 -70 -169t-168 -70h-239v720zM531 239v243q0 94 -67.5 161.5t-161.5 67.5h-230v-702h230q95 0 162 67.5t67 162.5zM89 694h213q88 0 150 -62t62 -150v-243q0 -88 -62 -150.5t-150 -62.5h-213v668zM498 239v243 q0 81 -57.5 138.5t-138.5 57.5h-197v-636h197q81 0 138.5 57.5t57.5 139.5zM119 665h183q75 0 128.5 -53.5t53.5 -129.5v-243q0 -76 -53.5 -129.5t-128.5 -53.5h-183v609zM452 239v243q0 62 -44 106t-106 44h-151v-544h151q62 0 106 44.5t44 106.5zM165 619h137 q56 0 96 -40.5t40 -96.5v-243q0 -57 -40 -97t-96 -40h-137v517zM423 239v243q0 50 -35.5 85.5t-85.5 35.5h-122v-486h122q50 0 85.5 36t35.5 86zM197 586h105q43 0 73.5 -30.5t30.5 -73.5v-243q0 -43 -30.5 -74t-73.5 -31h-105v452zM396 239v243q0 39 -27.5 67t-66.5 28h-95 v-433h95q39 0 66.5 27.5t27.5 67.5z" />
<glyph unicode="e" horiz-adv-x="553" d="M500 711h-428v-410h355v-9h-364v428h437v-9zM500 678h-395v-344h322v-16h-338v376h411v-16zM500 632h-349v-252h276v-33h-308v318h381v-33zM500 603h-320v-194h247v-16h-262v226h335v-16zM500 577h-293v-142h220v-9h-230v160h303v-9zM72 9h438v-9h-447v273h9v-264z M105 42h405v-16h-421v247h16v-231zM151 88h359v-32h-391v217h32v-185zM180 117h330v-15h-345v171h15v-156zM207 144h303v-10h-313v139h10v-129z" />
<glyph unicode="f" horiz-adv-x="503" d="M510 711h-438v-417h355v-9h-364v435h447v-9zM510 678h-405v-351h322v-16h-338v383h421v-16zM510 632h-359v-259h276v-33h-308v325h391v-33zM510 603h-330v-201h247v-16h-262v233h345v-16zM510 577h-303v-149h220v-9h-230v167h313v-9zM72 0h-9v266h9v-266zM105 0h-16v266 h16v-266zM151 0h-32v266h32v-266zM180 0h-15v266h15v-266zM207 0h-10v266h10v-266z" />
<glyph unicode="g" horiz-adv-x="543" d="M272 734q98 0 168 -70t70 -168h-9q0 94 -67.5 161.5t-161.5 67.5q-95 0 -162.5 -67t-67.5 -162v-271q0 -95 67.5 -162.5t162.5 -67.5t162 67.5t67 162.5v201h-221v9h230v-210q0 -99 -70 -169t-168 -70q-99 0 -169 70t-70 169v271q0 98 70 168t169 70zM272 708 q88 0 149.5 -62t62.5 -150h-16q-1 82 -58.5 139t-137.5 57q-82 0 -139.5 -57.5t-57.5 -138.5v-271q0 -82 57.5 -139.5t139.5 -57.5q81 0 138.5 57.5t57.5 139.5v168h-188v16h204v-184q0 -88 -62 -150.5t-150 -62.5t-150.5 62t-62.5 151v271q0 88 62.5 150t150.5 62zM272 679 q75 0 128.5 -53.5t53.5 -129.5h-32q0 62 -44 106t-106 44t-106.5 -44t-44.5 -106v-271q0 -62 44.5 -106.5t106.5 -44.5t106 44.5t44 106.5v122h-142v33h174v-155q0 -76 -53.5 -129.5t-128.5 -53.5q-76 0 -129.5 53.5t-53.5 129.5v271q0 76 53.5 129.5t129.5 53.5zM272 633 q56 0 95.5 -40t40.5 -97h-15q-1 50 -36.5 85.5t-84.5 35.5q-50 0 -86 -35.5t-36 -85.5v-271q0 -50 36 -86t86 -36t85.5 36t35.5 86v93h-113v16h128v-109q0 -57 -40 -97t-96 -40q-57 0 -97 40t-40 97v271q0 56 40 96.5t97 40.5zM272 600q43 0 73.5 -30.5t30.5 -73.5h-10 q0 39 -27.5 67t-66.5 28q-40 0 -67.5 -28t-27.5 -67v-271q0 -40 27.5 -67.5t67.5 -27.5q39 0 66.5 27.5t27.5 67.5v67h-86v9h96v-76q0 -43 -30.5 -74t-73.5 -31q-44 0 -74.5 31t-30.5 74v271q0 43 31 73.5t74 30.5z" />
<glyph unicode="h" horiz-adv-x="603" d="M72 0h-9v720h9v-720zM105 0h-16v720h16v-720zM151 0h-32v720h32v-720zM180 0h-15v720h15v-720zM207 0h-10v720h10v-720zM484 340h-257v33h225v347h32v-380zM540 285h-313v9h304v426h9v-435zM514 311h-287v16h271v393h16v-409zM438 386h-211v16h196v318h15v-334zM406 419 h-179v9h169v292h10v-301zM406 0h-10v266h10v-266zM438 0h-15v266h15v-266zM484 0h-32v266h32v-266zM514 0h-16v266h16v-266zM540 0h-9v266h9v-266z" />
<glyph unicode="i" horiz-adv-x="419" d="M376 711h-333v9h333v-9zM376 678h-333v16h333v-16zM376 632h-150v-544h150v-32h-333v32h151v544h-151v33h333v-33zM180 102h-137v15h121v486h-121v16h137v-517zM376 603h-121v-486h121v-15h-136v517h136v-16zM147 134h-104v10h95v433h-95v9h104v-452zM376 577h-94v-433 h94v-10h-104v452h104v-9zM376 26h-333v16h333v-16zM376 0h-333v9h333v-9z" />
<glyph unicode="j" horiz-adv-x="540" d="M477 720v-495q0 -99 -70 -169t-168 -70q-99 0 -169 70t-70 169h9q0 -95 67.5 -162.5t162.5 -67.5t162 67.5t67 162.5v486h-353v9h362zM451 694v-469q0 -88 -62 -150.5t-150 -62.5q-89 0 -150.5 62t-62.5 151h16q1 -82 58.5 -139.5t138.5 -57.5t138.5 57.5t57.5 139.5v453 h-320v16h336zM421 664v-439q0 -76 -53.5 -129.5t-128.5 -53.5q-76 0 -129.5 53.5t-53.5 129.5h32q0 -62 44.5 -106.5t106.5 -44.5t106 44.5t44 106.5v407h-274v32h306zM375 618v-393q0 -57 -40 -97t-96 -40q-57 0 -96.5 39.5t-40.5 97.5h15q1 -51 36.5 -86.5t85.5 -35.5 t85.5 36t35.5 86v378h-245v15h260zM343 586v-361q0 -43 -30.5 -74t-73.5 -31t-74 31t-31 74h10q0 -40 27.5 -67.5t67.5 -27.5q39 0 66.5 27.5t27.5 67.5v351h-218v10h228z" />
<glyph unicode="k" horiz-adv-x="583" d="M72 0h-9v720h9v-720zM105 0h-16v720h16v-720zM151 0h-32v720h32v-720zM180 0h-15v720h15v-720zM207 0h-10v720h10v-720zM484 516l-200 -176h-57v33h45l180 158v189h32v-204zM540 491l-235 -206h-78v9h75l229 201v225h9v-229zM438 537l-171 -151h-40v16h34l162 142v176h15 v-183zM406 552l-151 -133h-28v9h24l145 128v164h10v-168zM514 503l-219 -192h-68v16h63l208 183v210h16v-217zM540 220v-220h-9v216l-129 129l7 6zM514 209v-209h-16v202l-120 121l11 10zM484 197v-197h-32v183l-110 110l25 21zM438 177v-177h-15v171l-103 103l12 10z M406 164v-164h-10v160l-106 106h13z" />
<glyph unicode="l" horiz-adv-x="461" d="M72 9h396v-9h-405v720h9v-711zM105 42h363v-16h-379v694h16v-678zM151 88h317v-32h-349v664h32v-632zM180 117h288v-15h-303v618h15v-603zM207 144h261v-10h-271v586h10v-576z" />
<glyph unicode="m" horiz-adv-x="699" d="M639 0h-10v711h-147l-133 -274l-132 274h-148v-711h-9v720h163l126 -256l127 256h163v-720zM612 0h-15v678h-92l-156 -333l-155 333h-92v-678h-16v694h119l144 -304l144 304h119v-694zM583 0h-32v632h-14l-156 -333h-64l-155 333h-14v-632h-32v665h69l155 -334h19 l155 334h69v-665zM537 0h-16v506l-119 -237h-105l-120 237v-506h-15v597l146 -312h82l147 312v-597zM504 0h-9v396l-75 -153h-141l-75 153v-396h-10v437l91 -185h129l90 185v-437z" />
<glyph unicode="n" horiz-adv-x="603" d="M406 272l-188 439h-146v-711h-9v720h161l172 -403v403h10v-448zM438 113l-242 565h-91v-678h-16v694h118l216 -505v531h15v-607zM484 49h-68l-250 583h-15v-632h-32v665h68l250 -584h15v639h32v-671zM514 19h-118l-216 505v-524h-15v600l242 -565h91v685h16v-701zM540 -7 h-161l-172 403v-396h-10v441l188 -439h146v718h9v-727z" />
<glyph unicode="o" horiz-adv-x="543" d="M272 733q98 0 168 -70t70 -168v-270q0 -99 -70 -169t-168 -70q-99 0 -169 70t-70 169v270q0 98 70 168t169 70zM501 225v270q0 95 -67.5 162t-161.5 67q-95 0 -162.5 -67t-67.5 -162v-270q0 -95 67.5 -162.5t162.5 -67.5t162 67.5t67 162.5zM272 707q88 0 150 -62 t62 -150v-270q0 -88 -62 -150.5t-150 -62.5t-150 62t-63 151v270q0 88 62.5 150t150.5 62zM468 225v270q0 81 -57.5 138.5t-138.5 57.5q-82 0 -139.5 -57.5t-57.5 -138.5v-270q1 -82 58.5 -139.5t138.5 -57.5t138.5 57.5t57.5 139.5zM272 678q75 0 128.5 -53.5t53.5 -129.5 v-270q0 -76 -53.5 -129.5t-128.5 -53.5q-76 0 -129.5 53.5t-53.5 129.5v270q0 76 53.5 129.5t129.5 53.5zM422 225v270q0 62 -44 106t-106 44t-106.5 -44t-44.5 -106v-270q0 -62 44.5 -106.5t106.5 -44.5t106 44.5t44 106.5zM272 632q56 0 96 -40.5t40 -96.5v-270 q0 -57 -40 -97t-96 -40q-57 0 -96.5 39.5t-40.5 97.5v270q0 56 40 96.5t97 40.5zM393 225v270q0 49 -35.5 85t-85.5 36t-86 -35.5t-36 -85.5v-270q1 -51 36.5 -86.5t85.5 -35.5t85.5 36t35.5 86zM272 599q43 0 73.5 -30.5t30.5 -73.5v-270q0 -43 -30.5 -74t-73.5 -31 q-44 0 -74.5 31t-30.5 74v270q0 43 31 73.5t74 30.5zM366 225v270q0 39 -27.5 67t-66.5 28q-40 0 -67.5 -28t-27.5 -67v-270q0 -40 27.5 -67.5t67.5 -27.5q39 0 66.5 27.5t27.5 67.5z" />
<glyph unicode="p" horiz-adv-x="553" d="M63 720h239q98 0 168 -70t70 -168q0 -99 -70 -169t-168 -70h-75v9h75q95 0 162 67.5t67 162.5q0 94 -67.5 161.5t-161.5 67.5h-230v-711h-9v720zM89 694h213q88 0 150 -62t62 -150t-62 -150.5t-150 -62.5h-75v16h75q81 0 138.5 57.5t57.5 139.5q0 81 -57.5 138.5 t-138.5 57.5h-197v-678h-16v694zM119 665h183q75 0 128.5 -53.5t53.5 -129.5t-53.5 -129.5t-128.5 -53.5h-75v32h75q62 0 106 44.5t44 106.5t-44 106t-106 44h-151v-632h-32v665zM165 619h137q56 0 96 -40.5t40 -96.5q0 -57 -40 -97t-96 -40h-75v15h75q50 0 85.5 36t35.5 86 t-35.5 85.5t-85.5 35.5h-122v-603h-15v619zM197 586h105q43 0 73.5 -30.5t30.5 -73.5t-30.5 -74t-73.5 -31h-75v10h75q39 0 66.5 27.5t27.5 67.5q0 39 -27.5 67t-66.5 28h-95v-577h-10v586z" />
<glyph unicode="q" horiz-adv-x="544" d="M272 733q98 0 168 -70t70 -168v-229h-9v229q0 95 -67.5 162t-161.5 67q-95 0 -162.5 -67t-67.5 -162v-270q0 -95 67.5 -162.5t162.5 -67.5v-9q-99 0 -169 70t-70 169v270q0 98 70 168t169 70zM272 707q88 0 150 -62t62 -150v-229h-16v229q0 81 -57.5 138.5t-138.5 57.5 q-82 0 -139.5 -57.5t-57.5 -138.5v-270q0 -81 57.5 -138.5t139.5 -58.5v-16q-89 1 -151 62.5t-62 150.5v270q0 88 62.5 150t150.5 62zM272 678q75 0 128.5 -53.5t53.5 -129.5v-229h-32v229q0 62 -44 106t-106 44t-106.5 -44t-44.5 -106v-270q0 -62 44.5 -106.5t106.5 -44.5 v-32q-76 0 -129.5 53.5t-53.5 129.5v270q0 76 53.5 129.5t129.5 53.5zM272 632q56 0 96 -40.5t40 -96.5v-229h-15v229q0 49 -35.5 85t-85.5 36t-86 -35.5t-36 -85.5v-270q0 -50 35.5 -85.5t86.5 -36.5v-15q-58 1 -97.5 40.5t-39.5 96.5v270q0 56 40 96.5t97 40.5zM272 599 q43 0 73.5 -30.5t30.5 -73.5v-229h-10v229q0 39 -27.5 67t-66.5 28q-40 0 -67.5 -28t-27.5 -67v-270q0 -40 27.5 -67.5t67.5 -27.5q43 -1 73.5 -31.5t30.5 -73.5h-9q0 40 -28 67.5t-68 27.5q-43 0 -73.5 31t-30.5 74v270q0 43 31 73.5t74 30.5zM271 255v9q99 0 169 -70 t71 -169h-10q0 95 -67.5 162.5t-162.5 67.5zM271 222v16q89 -1 150.5 -62.5t62.5 -150.5h-15q-2 82 -59 139t-139 58zM271 176v32q76 0 130 -53.5t54 -129.5h-32q-1 63 -45 107t-107 44zM271 147v15q58 -1 97.5 -40t40.5 -97h-16q-1 50 -36.5 85.5t-85.5 36.5z" />
<glyph unicode="r" horiz-adv-x="603" d="M227 243v9h75q95 0 162 67.5t67 162.5q0 94 -67.5 161.5t-161.5 67.5h-230v-711h-9v720h239q98 0 168 -70t70 -168q0 -100 -69 -169.5t-169 -69.5h-75zM498 482q0 81 -57.5 138.5t-138.5 57.5h-197v-678h-16v694h213q88 0 150 -62t62 -150t-62 -150.5t-150 -62.5h-75v16 h75q81 0 138.5 57.5t57.5 139.5zM452 482q0 62 -44 106t-106 44h-151v-632h-32v665h183q75 0 128.5 -53.5t53.5 -129.5t-53.5 -129.5t-128.5 -53.5h-75v32h75q62 0 106 44.5t44 106.5zM423 482q0 50 -35.5 85.5t-85.5 35.5h-122v-603h-15v619h137q56 0 96 -40.5t40 -96.5 q0 -57 -40 -97t-96 -40h-75v15h75q50 0 85.5 36t35.5 86zM396 482q0 39 -27.5 67t-66.5 28h-95v-577h-10v586h105q43 0 73.5 -30.5t30.5 -73.5t-30.5 -74t-73.5 -31h-75v10h75q39 0 66.5 27.5t27.5 67.5zM477 294l7 7q56 -67 56 -153v-148h-9v148q0 79 -54 146zM452 273 l12 11q50 -59 50 -136v-148h-16v148q0 69 -46 125zM413 248l28 17q43 -54 43 -117v-148h-32v148q0 61 -39 100zM383 237l16 6q39 -39 39 -95v-148h-15v148q0 49 -40 89zM353 227l12 3q3 -2 8 -7q33 -33 33 -75v-148h-10v148q0 39 -29 68q-7 7 -14 11z" />
<glyph unicode="s" horiz-adv-x="515" d="M259 734q74 -2 129 -46q83 -64 83 -171h-9q0 101 -80 164q-53 42 -123 44q-83 -1 -140.5 -59t-58.5 -140q1 -50 18 -91t45.5 -67t58.5 -42.5t64 -25.5q93 -26 93 -98q-1 -35 -24.5 -59.5t-57.5 -24.5q-27 0 -49 17q-33 27 -33 68h9q0 -37 29 -60q21 -16 44 -16 q30 0 51 22t22 53q0 65 -87 89q-56 16 -95.5 43.5t-59 61.5t-28.5 65t-9 65q1 85 61 146t147 62zM259 708q61 0 113 -41q71 -54 73 -150h-15q-2 87 -68 139q-45 36 -103 36q-71 -1 -118.5 -49t-48.5 -117q3 -150 162 -195q117 -33 117 -130q-1 -47 -34.5 -81t-79.5 -34 q-37 0 -70 25q-42 33 -44 92h15q2 -51 39 -81q26 -21 60 -21q40 0 69.5 29.5t29.5 70.5q0 86 -105 115q-85 24 -129 78t-45 132q1 76 53 128.5t129 53.5zM259 679q55 -2 95 -34q62 -48 62 -128h-32q0 64 -50 103q-35 27 -75 27q-51 -1 -86 -36.5t-36 -85.5q2 -115 130 -150 q73 -21 111.5 -66t38.5 -105q0 -15 -4.5 -34.5t-16 -42.5t-29 -42t-46 -31.5t-64.5 -12.5q-55 0 -97 33q-62 48 -62 129h32q0 -65 49 -103q34 -27 78 -27q52 0 90 37.5t38 90.5q0 108 -127 143q-150 42 -153 182q2 64 45.5 108t108.5 45zM259 634q38 -2 67 -25 q43 -34 45 -92h-16q-2 53 -39 81q-25 20 -57 20q-40 0 -66 -27t-27 -66q2 -93 108 -123q51 -15 87 -39t53 -53.5t24 -55t7 -52.5q-1 -79 -56 -134.5t-132 -55.5q-64 0 -115 40q-71 56 -73 151h15q2 -88 68 -139q46 -37 105 -37q44 0 79.5 19.5t54.5 48.5t29 57.5t10 51.5 q-2 65 -42.5 114t-116.5 70q-120 33 -120 137q1 46 31 77t77 32zM259 601q25 0 47 -17q33 -25 33 -67h-10q0 38 -28 60q-19 15 -42 15q-29 0 -47.5 -19.5t-19.5 -47.5q0 -15 3 -26.5t11.5 -25.5t27.5 -26t47 -20q76 -20 133 -76.5t57 -146.5q0 -92 -62.5 -155t-151.5 -63 q-72 0 -131 45q-83 66 -83 172h9q0 -103 80 -164q55 -44 125 -44q84 0 143.5 60.5t61.5 148.5q-2 77 -48.5 133.5t-134.5 81.5q-40 11 -63 31.5t-27.5 36.5t-5.5 38q1 32 22 54t54 22z" />
<glyph unicode="t" horiz-adv-x="428" d="M130 711h-137v9h137v-9zM435 711h-276v-711h-9v720h285v-9zM130 678h-137v16h137v-16zM435 678h-243v-678h-16v694h259v-16zM130 632h-137v33h137v-33zM435 632h-197v-632h-33v665h230v-33zM130 603h-137v16h137v-16zM435 603h-168v-603h-16v619h184v-16zM130 577h-137v9 h137v-9zM435 577h-142v-577h-9v586h151v-9z" />
<glyph unicode="u" horiz-adv-x="603" d="M540 720v-495q0 -99 -70 -169t-168 -70q-99 0 -169 70t-70 169v495h9v-495q0 -95 67.5 -162.5t162.5 -67.5t162 67.5t67 162.5v495h9zM514 720v-495q0 -88 -62 -150.5t-150 -62.5t-150.5 62t-62.5 151v495h16v-495q0 -82 57.5 -139.5t139.5 -57.5q81 0 138.5 57.5 t57.5 139.5v495h16zM484 720v-495q0 -76 -53.5 -129.5t-128.5 -53.5q-76 0 -129.5 53.5t-53.5 129.5v495h32v-495q0 -62 44.5 -106.5t106.5 -44.5t106 44.5t44 106.5v495h32zM438 720v-495q0 -57 -40 -97t-96 -40q-57 0 -97 40t-40 97v495h15v-495q0 -50 36 -86t86 -36 t85.5 36t35.5 86v495h15zM406 720v-495q0 -43 -30.5 -74t-73.5 -31q-44 0 -74.5 31t-30.5 74v495h10v-495q0 -40 27.5 -67.5t67.5 -27.5q39 0 66.5 27.5t27.5 67.5v495h10z" />
<glyph unicode="v" d="M520 349l-149 -349h-178l-150 349v371h9v-369l147 -342h165l147 342v369h9v-371zM494 354l-140 -328h-144l-141 329v365h16v-362l136 -316h122l135 315v363h16v-366zM464 360l-130 -304h-105l-130 304v360h32v-353l120 -279h62l119 279v353h32v-360zM418 370l-114 -268 h-45l-114 267v351h15v-347l110 -256h23l110 255v348h15v-350zM386 376l-104 -242l-105 242v344h10v-342l95 -221l94 221v342h10v-344z" />
<glyph unicode="w" horiz-adv-x="645" d="M602 720v-535l-62 -185h-145l-73 167l-72 -167h-145l-62 185v535h9v-533l59 -178h132l79 188l80 -188h131l59 178v533h10zM123 26l-54 164v530h16v-529l50 -149h84l104 249l103 -249h83l51 150v528h15v-531l-54 -163h-108l-91 213l-91 -213h-108zM145 56l-46 138v526h32 v-521l37 -111h18l104 250h65l103 -250h19l37 111v521h32v-526l-46 -138h-65l-103 250h-19l-103 -250h-65zM178 103l-33 98v519h15v-516l17 -51l91 214h108l91 -214l17 51v516h16v-519l-33 -98l-103 249h-84zM256 384l-79 -185v521h10v-473l63 147h145l63 -147v473h9v-521 l-79 185h-132zM323 292v-1l-1 1h1zM177 102l1 1v-1h-1zM467 102v1l1 -1h-1z" />
<glyph unicode="x" d="M52 568l135 -188l-5 -8l-139 193v155h9v-152zM386 608l-334 -463v-145h-9v148l333 463v109h10v-112zM85 578l123 -170l-10 -13l-129 179v146h16v-142zM418 598l-333 -463v-135h-16v139l334 464v117h15v-122zM131 593l105 -145l-20 -28l-117 163v137h32v-127zM464 583 l-333 -463v-120h-32v130l333 463v127h32v-137zM494 574l-334 -463v-111h-15v115l333 463v142h16v-146zM160 603l94 -130l-10 -14l-99 139v122h15v-117zM520 565l-333 -463v-102h-10v105l334 463v152h9v-155zM187 611l83 -116l-6 -8l-87 121v112h10v-109zM520 148v-148h-9 v145l-135 188l5 8zM494 139v-139h-16v135l-124 168l10 14zM464 130v-130h-32v120l-105 145l20 28zM418 115v-115h-15v111l-93 130l10 13zM386 105v-105h-10v102l-83 116l6 8z" />
<glyph unicode="y" d="M52 501l167 -208v-293h-9v290l-167 208l1 222h9zM85 513l167 -209v-304h-16v299l-167 209l1 212h16zM131 529l167 -208v-321h-33v309l-166 209l1 202h32zM160 539l167 -208v-331h-16v326l-166 208l1 186h15zM187 549l166 -209v-340h-9v337l-167 208l1 175h10zM386 549 l-98 -98l-6 8l94 94l1 167h10zM418 536l-109 -111l-10 13l104 104l1 178h15zM464 517l-127 -127l-20 25l115 115l1 190h32zM494 505l-139 -138l-9 13l132 131l1 209h16zM520 494l-148 -149l-5 8l144 144l1 223h9z" />
<glyph unicode="z" d="M520 540l-323 -396h323v-10h-342l333 409v168h-468v9h477v-180zM494 549l-334 -409v-23h360v-15h-375v42l333 410v124h-435v16h451v-145zM464 559l-333 -410v-61h389v-32h-421v105l333 410v61h-389v33h421v-106zM418 576l-333 -410v-124h435v-16h-451v145l334 410v22 h-360v16h375v-43zM52 177v-168h468v-9h-477v180l323 397h-323v9h342z" />
<glyph unicode="|" horiz-adv-x="370" d="M122 -200h-9v1000h9v-1000zM155 -200h-16v1000h16v-1000zM201 -200h-32v1000h32v-1000zM230 -200h-15v1000h15v-1000zM257 -200h-10v1000h10v-1000z" />
<glyph unicode="&#xb7;" horiz-adv-x="258" d="M129 452q35 0 60 -25t25 -60t-25 -60t-60 -25t-60 25t-25 60t25 60t60 25zM129 443q-31 0 -53.5 -22.5t-22.5 -53.5t22.5 -53.5t53.5 -22.5t53.5 22.5t22.5 53.5t-22.5 53.5t-53.5 22.5zM128 425q25 0 42 -17t17 -42q0 -24 -17 -41t-42 -17q-24 0 -41 17t-17 41 q0 25 17 42t41 17zM128 409q-17 0 -30 -12.5t-13 -30.5q0 -17 13 -30t30 -13q18 0 30.5 13t12.5 30q0 18 -12.5 30.5t-30.5 12.5zM129 396q12 0 20.5 -8.5t8.5 -20.5t-8.5 -20.5t-20.5 -8.5q-13 0 -21.5 8.5t-8.5 20.5t8.5 20.5t21.5 8.5z" />
<glyph unicode="&#xc4;" d="M128 850q35 0 60 -25t25 -60t-25 -60t-60 -25t-60 25t-25 60t25 60t60 25zM449 850q35 0 60 -25t25 -60t-25 -60t-60 -25t-60 25t-25 60t25 60t60 25zM128 841q-32 0 -54 -22.5t-22 -53.5t22 -53.5t54 -22.5t54 22.5t22 53.5t-22 53.5t-54 22.5zM449 841 q-31 0 -53.5 -22.5t-22.5 -53.5t22.5 -53.5t53.5 -22.5t53 22.5t22 53.5t-22 53.5t-53 22.5zM127 825q25 0 43 -17.5t18 -43.5q0 -25 -18 -42.5t-43 -17.5t-42.5 17.5t-17.5 42.5t17.5 43t42.5 18zM448 825q25 0 43 -18t18 -43t-18 -42.5t-43 -17.5t-43 17.5t-18 42.5 q0 26 17.5 43.5t43.5 17.5zM127 805q-17 0 -29 -12t-12 -29q0 -16 12 -28.5t29 -12.5t29 12t12 29t-12 29t-29 12zM448 805q-17 0 -29 -12t-12 -29t12 -29t29 -12t29 12t12 29t-12 29t-29 12zM128 794q12 0 20.5 -8.5t8.5 -20.5t-8.5 -20.5t-20.5 -8.5q-13 0 -21.5 8.5 t-8.5 20.5t8.5 20.5t21.5 8.5zM448 794q13 0 21.5 -8.5t8.5 -20.5t-8.5 -20.5t-21.5 -8.5q-12 0 -20.5 8.5t-8.5 20.5t8.5 20.5t20.5 8.5zM513 365v-172h-313v9h304v161l-149 298h-161l-149 -298v-363h-9v365l152 305h173zM489 360v-143h-289v20h269v118l-136 271h-117 l-136 -271v-355h-20v360l144 286h142zM457 352v-103h-257v32h225v63l-119 238h-63l-119 -238v-344h-32v352l131 263h103zM413 342v-49h-213v19h194v25l-107 214h-25l-107 -214v-337h-19v342l114 229h49zM379 334v-7h-179v10h167l-92 184l-95 -190v-331h-10v334l101 202h7z M379 0h-10v175h10v-175zM413 0h-19v175h19v-175zM457 0h-32v175h32v-175zM489 0h-20v175h20v-175zM513 0h-9v175h9v-175z" />
<glyph unicode="&#xd6;" horiz-adv-x="543" d="M111 850q35 0 60 -25t25 -60t-25 -60t-60 -25t-60 25t-25 60t25 60t60 25zM432 850q35 0 60 -25t25 -60t-25 -60t-60 -25t-60 25t-25 60t25 60t60 25zM111 841q-31 0 -53.5 -22.5t-22.5 -53.5t22.5 -53.5t53.5 -22.5t53.5 22.5t22.5 53.5t-22.5 53.5t-53.5 22.5zM432 841 q-32 0 -54 -22.5t-22 -53.5t22 -53.5t54 -22.5q31 0 53 22.5t22 53.5t-22 53.5t-53 22.5zM110 823q25 0 42 -17t17 -42q0 -24 -17 -41t-42 -17q-24 0 -41 17t-17 41q0 25 17 42t41 17zM431 823q24 0 41.5 -17t17.5 -42q0 -24 -17.5 -41t-41.5 -17q-25 0 -42 17t-17 41 q0 25 17 42t42 17zM110 807q-17 0 -30 -12.5t-13 -30.5q0 -17 13 -30t30 -13q18 0 30.5 13t12.5 30q0 18 -12.5 30.5t-30.5 12.5zM431 807q-18 0 -30.5 -12.5t-12.5 -30.5q0 -17 12.5 -30t30.5 -13t30.5 13t12.5 30q0 18 -12.5 30.5t-30.5 12.5zM111 794q12 0 20.5 -8.5 t8.5 -20.5t-8.5 -20.5t-20.5 -8.5q-13 0 -21.5 8.5t-8.5 20.5t8.5 20.5t21.5 8.5zM431 794q13 0 21.5 -8.5t8.5 -20.5t-8.5 -20.5t-21.5 -8.5q-12 0 -20.5 8.5t-8.5 20.5t8.5 20.5t20.5 8.5zM265 679q98 0 168 -70t70 -168v-216q0 -99 -70 -169t-168 -70q-99 0 -169 70 t-70 169v216q0 98 70 168t169 70zM494 225v216q0 95 -67 162t-162 67t-162.5 -67t-67.5 -162v-216q0 -95 67.5 -162.5t162.5 -67.5t162 67.5t67 162.5zM265 653q88 0 150 -62t62 -150v-216q0 -88 -62 -150.5t-150 -62.5q-89 0 -150.5 62t-62.5 151v216q0 88 62.5 150 t150.5 62zM461 225v216q0 81 -57.5 138.5t-138.5 57.5q-82 0 -139.5 -57.5t-57.5 -138.5v-216q1 -82 58.5 -139.5t138.5 -57.5t138.5 57.5t57.5 139.5zM265 624q75 0 128.5 -53.5t53.5 -129.5v-216q0 -76 -53.5 -129.5t-128.5 -53.5q-76 0 -129.5 53.5t-53.5 129.5v216 q0 76 53.5 129.5t129.5 53.5zM415 225v216q0 62 -44 106t-106 44t-106.5 -44t-44.5 -106v-216q0 -62 44.5 -106.5t106.5 -44.5t106 44.5t44 106.5zM265 578q56 0 96 -40.5t40 -96.5v-216q0 -57 -40 -97t-96 -40q-57 0 -96.5 39.5t-40.5 97.5v216q0 56 40 96.5t97 40.5z M386 225v216q0 49 -36 85t-85 36q-50 0 -86 -35.5t-36 -85.5v-216q1 -51 36.5 -86.5t85.5 -35.5t85.5 36t35.5 86zM265 545q43 0 73.5 -30.5t30.5 -73.5v-216q0 -43 -30.5 -74t-73.5 -31t-74 31t-31 74v216q0 43 31 73.5t74 30.5zM359 225v216q0 39 -27.5 67t-66.5 28 q-40 0 -67.5 -28t-27.5 -67v-216q0 -40 27.5 -67.5t67.5 -27.5q39 0 66.5 27.5t27.5 67.5z" />
<glyph unicode="&#xd7;" horiz-adv-x="482" d="M439 272l-6 -7l-295 295l6 7zM344 560l-83 -83l-7 6l84 84zM421 254l-11 -11l-295 294l11 11zM367 536l-84 -83l-11 11l84 83zM400 233l-23 -23l-295 294l23 23zM400 504l-84 -83l-23 23l84 83zM368 200l-11 -10l-295 294l11 11zM420 483l-84 -83l-10 11l83 83zM344 177 l-6 -7l-295 295l6 7zM439 465l-83 -83l-7 6l84 84zM133 349l-84 -84l-6 7l83 83zM156 325l-83 -83l-11 11l83 83zM189 293l-84 -83l-23 23l84 83zM209 272l-83 -83l-11 10l83 84zM228 254l-84 -84l-6 7l83 83z" />
<glyph unicode="&#xdc;" horiz-adv-x="586" d="M138 850q35 0 60 -25t25 -60t-25 -60t-60 -25t-60 25t-25 60t25 60t60 25zM465 850q35 0 60 -25t25 -60t-25 -60t-60 -25t-60 25t-25 60t25 60t60 25zM138 841q-32 0 -54 -22.5t-22 -53.5t22 -53.5t54 -22.5t54 22.5t22 53.5t-22 53.5t-54 22.5zM465 841 q-31 0 -53.5 -22.5t-22.5 -53.5t22.5 -53.5t53.5 -22.5t53 22.5t22 53.5t-22 53.5t-53 22.5zM137 823q25 0 42 -17t17 -42q0 -24 -17 -41t-42 -17q-24 0 -41 17t-17 41q0 25 17 42t41 17zM464 823q24 0 41.5 -17t17.5 -42q0 -24 -17.5 -41t-41.5 -17q-25 0 -42 17t-17 41 q0 25 17 42t42 17zM137 807q-17 0 -30 -12.5t-13 -30.5q0 -17 13 -30t30 -13q18 0 30.5 13t12.5 30q0 18 -12.5 30.5t-30.5 12.5zM464 807q-18 0 -30.5 -12.5t-12.5 -30.5q0 -17 12.5 -30t30.5 -13t30.5 13t12.5 30q0 18 -12.5 30.5t-30.5 12.5zM138 794q12 0 20.5 -8.5 t8.5 -20.5t-8.5 -20.5t-20.5 -8.5q-13 0 -21.5 8.5t-8.5 20.5t8.5 20.5t21.5 8.5zM464 794q13 0 21.5 -8.5t8.5 -20.5t-8.5 -20.5t-21.5 -8.5q-12 0 -20.5 8.5t-8.5 20.5t8.5 20.5t20.5 8.5zM540 650v-425q0 -99 -70 -169t-168 -70q-99 0 -169 70t-70 169v425h9v-425 q0 -95 67.5 -162.5t162.5 -67.5t162 67.5t67 162.5v425h9zM514 650v-425q0 -88 -62 -150.5t-150 -62.5t-150.5 62t-62.5 151v425h16v-425q0 -82 57.5 -139.5t139.5 -57.5q81 0 138.5 57.5t57.5 139.5v425h16zM484 650v-425q0 -76 -53.5 -129.5t-128.5 -53.5 q-76 0 -129.5 53.5t-53.5 129.5v425h32v-425q0 -62 44.5 -106.5t106.5 -44.5t106 44.5t44 106.5v425h32zM438 650v-425q0 -57 -40 -97t-96 -40q-57 0 -97 40t-40 97v425h15v-425q0 -50 36 -86t86 -36t85.5 36t35.5 86v425h15zM406 650v-425q0 -43 -30.5 -74t-73.5 -31 q-44 0 -74.5 31t-30.5 74v425h10v-425q0 -40 27.5 -67.5t67.5 -27.5q39 0 66.5 27.5t27.5 67.5v425h10z" />
<glyph unicode="&#xe4;" d="M128 850q35 0 60 -25t25 -60t-25 -60t-60 -25t-60 25t-25 60t25 60t60 25zM449 850q35 0 60 -25t25 -60t-25 -60t-60 -25t-60 25t-25 60t25 60t60 25zM128 841q-32 0 -54 -22.5t-22 -53.5t22 -53.5t54 -22.5t54 22.5t22 53.5t-22 53.5t-54 22.5zM449 841 q-31 0 -53.5 -22.5t-22.5 -53.5t22.5 -53.5t53.5 -22.5t53 22.5t22 53.5t-22 53.5t-53 22.5zM127 825q25 0 43 -17.5t18 -43.5q0 -25 -18 -42.5t-43 -17.5t-42.5 17.5t-17.5 42.5t17.5 43t42.5 18zM448 825q25 0 43 -18t18 -43t-18 -42.5t-43 -17.5t-43 17.5t-18 42.5 q0 26 17.5 43.5t43.5 17.5zM127 805q-17 0 -29 -12t-12 -29q0 -16 12 -28.5t29 -12.5t29 12t12 29t-12 29t-29 12zM448 805q-17 0 -29 -12t-12 -29t12 -29t29 -12t29 12t12 29t-12 29t-29 12zM128 794q12 0 20.5 -8.5t8.5 -20.5t-8.5 -20.5t-20.5 -8.5q-13 0 -21.5 8.5 t-8.5 20.5t8.5 20.5t21.5 8.5zM448 794q13 0 21.5 -8.5t8.5 -20.5t-8.5 -20.5t-21.5 -8.5q-12 0 -20.5 8.5t-8.5 20.5t8.5 20.5t20.5 8.5zM513 365v-172h-313v9h304v161l-149 298h-161l-149 -298v-363h-9v365l152 305h173zM489 360v-143h-289v20h269v118l-136 271h-117 l-136 -271v-355h-20v360l144 286h142zM457 352v-103h-257v32h225v63l-119 238h-63l-119 -238v-344h-32v352l131 263h103zM413 342v-49h-213v19h194v25l-107 214h-25l-107 -214v-337h-19v342l114 229h49zM379 334v-7h-179v10h167l-92 184l-95 -190v-331h-10v334l101 202h7z M379 0h-10v175h10v-175zM413 0h-19v175h19v-175zM457 0h-32v175h32v-175zM489 0h-20v175h20v-175zM513 0h-9v175h9v-175z" />
<glyph unicode="&#xf6;" horiz-adv-x="543" d="M111 850q35 0 60 -25t25 -60t-25 -60t-60 -25t-60 25t-25 60t25 60t60 25zM432 850q35 0 60 -25t25 -60t-25 -60t-60 -25t-60 25t-25 60t25 60t60 25zM111 841q-31 0 -53.5 -22.5t-22.5 -53.5t22.5 -53.5t53.5 -22.5t53.5 22.5t22.5 53.5t-22.5 53.5t-53.5 22.5zM432 841 q-32 0 -54 -22.5t-22 -53.5t22 -53.5t54 -22.5q31 0 53 22.5t22 53.5t-22 53.5t-53 22.5zM110 823q25 0 42 -17t17 -42q0 -24 -17 -41t-42 -17q-24 0 -41 17t-17 41q0 25 17 42t41 17zM431 823q24 0 41.5 -17t17.5 -42q0 -24 -17.5 -41t-41.5 -17q-25 0 -42 17t-17 41 q0 25 17 42t42 17zM110 807q-17 0 -30 -12.5t-13 -30.5q0 -17 13 -30t30 -13q18 0 30.5 13t12.5 30q0 18 -12.5 30.5t-30.5 12.5zM431 807q-18 0 -30.5 -12.5t-12.5 -30.5q0 -17 12.5 -30t30.5 -13t30.5 13t12.5 30q0 18 -12.5 30.5t-30.5 12.5zM111 794q12 0 20.5 -8.5 t8.5 -20.5t-8.5 -20.5t-20.5 -8.5q-13 0 -21.5 8.5t-8.5 20.5t8.5 20.5t21.5 8.5zM431 794q13 0 21.5 -8.5t8.5 -20.5t-8.5 -20.5t-21.5 -8.5q-12 0 -20.5 8.5t-8.5 20.5t8.5 20.5t20.5 8.5zM265 679q98 0 168 -70t70 -168v-216q0 -99 -70 -169t-168 -70q-99 0 -169 70 t-70 169v216q0 98 70 168t169 70zM494 225v216q0 95 -67 162t-162 67t-162.5 -67t-67.5 -162v-216q0 -95 67.5 -162.5t162.5 -67.5t162 67.5t67 162.5zM265 653q88 0 150 -62t62 -150v-216q0 -88 -62 -150.5t-150 -62.5q-89 0 -150.5 62t-62.5 151v216q0 88 62.5 150 t150.5 62zM461 225v216q0 81 -57.5 138.5t-138.5 57.5q-82 0 -139.5 -57.5t-57.5 -138.5v-216q1 -82 58.5 -139.5t138.5 -57.5t138.5 57.5t57.5 139.5zM265 624q75 0 128.5 -53.5t53.5 -129.5v-216q0 -76 -53.5 -129.5t-128.5 -53.5q-76 0 -129.5 53.5t-53.5 129.5v216 q0 76 53.5 129.5t129.5 53.5zM415 225v216q0 62 -44 106t-106 44t-106.5 -44t-44.5 -106v-216q0 -62 44.5 -106.5t106.5 -44.5t106 44.5t44 106.5zM265 578q56 0 96 -40.5t40 -96.5v-216q0 -57 -40 -97t-96 -40q-57 0 -96.5 39.5t-40.5 97.5v216q0 56 40 96.5t97 40.5z M386 225v216q0 49 -36 85t-85 36q-50 0 -86 -35.5t-36 -85.5v-216q1 -51 36.5 -86.5t85.5 -35.5t85.5 36t35.5 86zM265 545q43 0 73.5 -30.5t30.5 -73.5v-216q0 -43 -30.5 -74t-73.5 -31t-74 31t-31 74v216q0 43 31 73.5t74 30.5zM359 225v216q0 39 -27.5 67t-66.5 28 q-40 0 -67.5 -28t-27.5 -67v-216q0 -40 27.5 -67.5t67.5 -27.5q39 0 66.5 27.5t27.5 67.5z" />
<glyph unicode="&#xfc;" horiz-adv-x="586" d="M138 850q35 0 60 -25t25 -60t-25 -60t-60 -25t-60 25t-25 60t25 60t60 25zM465 850q35 0 60 -25t25 -60t-25 -60t-60 -25t-60 25t-25 60t25 60t60 25zM138 841q-32 0 -54 -22.5t-22 -53.5t22 -53.5t54 -22.5t54 22.5t22 53.5t-22 53.5t-54 22.5zM465 841 q-31 0 -53.5 -22.5t-22.5 -53.5t22.5 -53.5t53.5 -22.5t53 22.5t22 53.5t-22 53.5t-53 22.5zM137 823q25 0 42 -17t17 -42q0 -24 -17 -41t-42 -17q-24 0 -41 17t-17 41q0 25 17 42t41 17zM464 823q24 0 41.5 -17t17.5 -42q0 -24 -17.5 -41t-41.5 -17q-25 0 -42 17t-17 41 q0 25 17 42t42 17zM137 807q-17 0 -30 -12.5t-13 -30.5q0 -17 13 -30t30 -13q18 0 30.5 13t12.5 30q0 18 -12.5 30.5t-30.5 12.5zM464 807q-18 0 -30.5 -12.5t-12.5 -30.5q0 -17 12.5 -30t30.5 -13t30.5 13t12.5 30q0 18 -12.5 30.5t-30.5 12.5zM138 794q12 0 20.5 -8.5 t8.5 -20.5t-8.5 -20.5t-20.5 -8.5q-13 0 -21.5 8.5t-8.5 20.5t8.5 20.5t21.5 8.5zM464 794q13 0 21.5 -8.5t8.5 -20.5t-8.5 -20.5t-21.5 -8.5q-12 0 -20.5 8.5t-8.5 20.5t8.5 20.5t20.5 8.5zM540 650v-425q0 -99 -70 -169t-168 -70q-99 0 -169 70t-70 169v425h9v-425 q0 -95 67.5 -162.5t162.5 -67.5t162 67.5t67 162.5v425h9zM514 650v-425q0 -88 -62 -150.5t-150 -62.5t-150.5 62t-62.5 151v425h16v-425q0 -82 57.5 -139.5t139.5 -57.5q81 0 138.5 57.5t57.5 139.5v425h16zM484 650v-425q0 -76 -53.5 -129.5t-128.5 -53.5 q-76 0 -129.5 53.5t-53.5 129.5v425h32v-425q0 -62 44.5 -106.5t106.5 -44.5t106 44.5t44 106.5v425h32zM438 650v-425q0 -57 -40 -97t-96 -40q-57 0 -97 40t-40 97v425h15v-425q0 -50 36 -86t86 -36t85.5 36t35.5 86v425h15zM406 650v-425q0 -43 -30.5 -74t-73.5 -31 q-44 0 -74.5 31t-30.5 74v425h10v-425q0 -40 27.5 -67.5t67.5 -27.5q39 0 66.5 27.5t27.5 67.5v425h10z" />
<glyph unicode="&#x2013;" horiz-adv-x="602" d="M539 441h-476v9h476v-9zM539 408h-476v16h476v-16zM539 362h-476v33h476v-33zM539 333h-476v16h476v-16zM539 307h-476v9h476v-9z" />
<glyph unicode="&#x2014;" horiz-adv-x="735" d="M735 441h-735v9h735v-9zM735 408h-735v16h735v-16zM735 362h-735v33h735v-33zM735 333h-735v16h735v-16zM735 307h-735v9h735v-9z" />
<glyph unicode="&#x2018;" horiz-adv-x="235" d="M36 743v-161h-9v165l89 91l6 -7zM69 730v-148h-16v154l82 83l11 -11zM115 711v-129h-32v142l72 74l23 -22zM144 699v-117h-15v124l59 60l11 -11zM171 689v-107h-10v110l50 51l6 -6z" />
<glyph unicode="&#x2019;" horiz-adv-x="235" d="M64 681v107h10v-110l-50 -51l-6 6zM91 671v117h15v-124l-59 -60l-11 11zM120 659v129h32v-142l-72 -74l-23 22zM166 640v148h16v-154l-82 -83l-11 11zM199 627v161h9v-165l-89 -91l-6 7z" />
<glyph unicode="&#x201a;" horiz-adv-x="235" d="M64 -1v107h10v-110l-50 -51l-6 6zM91 -11v117h15v-124l-59 -60l-11 11zM120 -23v129h32v-142l-72 -74l-23 22zM166 -42v148h16v-154l-82 -83l-11 11zM199 -55v161h9v-165l-89 -91l-6 7z" />
<glyph unicode="&#x201c;" horiz-adv-x="387" d="M36 743v-161h-9v165l89 91l6 -7zM69 730v-148h-16v154l82 83l11 -11zM115 711v-129h-32v142l72 74l23 -22zM144 699v-117h-15v124l59 60l11 -11zM209 683v-100h-9v103l66 68l7 -6zM171 689v-107h-10v110l50 51l6 -6zM242 670v-87h-16v93l59 59l11 -11zM288 651v-68h-33 v81l50 51l23 -23zM317 639v-56h-16v62l37 37l11 -11zM343 628v-45h-9v49l27 27l6 -6z" />
<glyph unicode="&#x201d;" horiz-adv-x="387" d="M216 681v107h10v-110l-50 -51l-6 6zM243 671v117h15v-124l-59 -60l-11 11zM272 659v129h32v-142l-72 -74l-23 22zM318 640v148h16v-154l-82 -83l-11 11zM351 627v161h9v-165l-89 -91l-6 7zM44 742v45h9v-49l-27 -27l-6 6zM70 731v56h16v-62l-37 -37l-11 11zM99 719v68h33 v-81l-50 -51l-23 23zM145 700v87h16v-93l-59 -59l-11 11zM178 687v100h9v-103l-66 -68l-7 6z" />
<glyph unicode="&#x201e;" horiz-adv-x="387" d="M216 -1v107h10v-110l-50 -51l-6 6zM243 -11v117h15v-124l-59 -60l-11 11zM272 -23v129h32v-142l-72 -74l-23 22zM318 -42v148h16v-154l-82 -83l-11 11zM351 -55v161h9v-165l-89 -91l-6 7zM44 60v45h9v-49l-27 -27l-6 6zM70 49v56h16v-62l-37 -37l-11 11zM99 37v68h33v-81 l-50 -51l-23 23zM145 18v87h16v-93l-59 -59l-11 11zM178 5v100h9v-103l-66 -68l-7 6z" />
<glyph unicode="&#x20ac;" horiz-adv-x="647" d="M376 -5q94 0 161.5 66t67.5 156h9q0 -94 -70 -162.5t-168 -68.5q-99 0 -169 70t-70 169v271q0 98 70 168t169 70q98 0 168 -70t70 -168h-9q0 94 -67.5 161.5t-161.5 67.5q-95 0 -162.5 -67t-67.5 -162v-271q0 -95 67.5 -162.5t162.5 -67.5zM588 496h-16q-1 82 -58.5 139 t-137.5 57q-82 0 -139.5 -57.5t-57.5 -138.5v-271q0 -82 57.5 -139.5t139.5 -57.5q80 0 137.5 56t58.5 133h16q-1 -84 -63 -144.5t-149 -60.5q-88 0 -150.5 62t-62.5 151v271q0 88 62.5 150t150.5 62t149.5 -62t62.5 -150zM558 496h-32q0 62 -44 106t-106 44t-106.5 -44 t-44.5 -106v-271q0 -62 44.5 -106.5t106.5 -44.5t106 43t44 100h32q0 -70 -54 -122.5t-128 -52.5q-76 0 -129.5 53.5t-53.5 129.5v271q0 76 53.5 129.5t129.5 53.5q75 0 128.5 -53.5t53.5 -129.5zM512 496h-15q-1 50 -36.5 85.5t-84.5 35.5q-50 0 -86 -35.5t-36 -85.5v-271 q0 -50 36 -86t86 -36q48 0 84 34.5t37 79.5h15q-1 -52 -40.5 -90.5t-95.5 -38.5q-57 0 -97 40t-40 97v271q0 56 40 96.5t97 40.5q56 0 95.5 -40t40.5 -97zM376 591q-40 0 -67.5 -28t-27.5 -67h97v-9h-97v-17h97v-16h-97v-13h97v-33h-97v-13h97v-16h-97v-17h97v-9h-97v-17h97 v-16h-97v-13h97v-33h-97v-13h97v-16h-97v-17h97v-9h-97q2 -38 29.5 -63.5t65.5 -25.5t66 26.5t28 60.5h10q0 -38 -31 -67.5t-73 -29.5q-44 0 -74.5 31t-30.5 74v271q0 43 31 73.5t74 30.5t73.5 -30.5t30.5 -73.5h-10q0 39 -27.5 67t-66.5 28zM40 496h78v-9h-78v9zM40 470h78 v-16h-78v16zM40 441h78v-33h-78v33zM40 395h78v-16h-78v16zM40 362h78v-9h-78v9zM40 336h78v-16h-78v16zM40 307h78v-33h-78v33zM40 261h78v-16h-78v16zM40 228h78v-9h-78v9z" />
<glyph unicode="&#x2192;" horiz-adv-x="608" d="M558 466v-173l-276 -138l-4 9l272 135v161l-272 135l4 9zM533 311l-262 -132l-8 15l254 126v119l-254 126l8 15l262 -132v-137zM504 328l-247 -122l-14 29l228 113v14h-421v33h421v16l-228 113l14 29l247 -122v-103zM445 408h-395v16h329l-149 74l7 14zM309 441h-259v9 h218l-49 24l4 9l67 -33zM237 245l-7 14l149 74h-329v16h395zM290 307l-67 -33l-4 9l49 24h-218v9h259z" />
<glyph unicode="&#x2212;" horiz-adv-x="376" d="M313 421h-250v9h250v-9zM313 388h-250v16h250v-16zM313 342h-250v33h250v-33zM313 313h-250v16h250v-16zM313 287h-250v9h250v-9z" />
<glyph unicode="&#x25fc;" horiz-adv-x="720" d="M0 720h720v-720h-720v720z" />
</font>
</defs>
</svg>
