<?xml version="1.0" standalone="no"?>
<!DOCTYPE svg PUBLIC "-//W3C//DTD SVG 1.1//EN" "http://www.w3.org/Graphics/SVG/1.1/DTD/svg11.dtd" >
<svg xmlns="http://www.w3.org/2000/svg" xmlns:xlink="http://www.w3.org/1999/xlink" version="1.1">
<metadata></metadata>
<defs>
<font id="ocl2" horiz-adv-x="563" >
<font-face units-per-em="850" ascent="680" descent="-170" />
<missing-glyph horiz-adv-x="206" />
<glyph unicode=" "  horiz-adv-x="206" />
<glyph unicode="&#x09;" horiz-adv-x="206" />
<glyph unicode="&#xa0;" horiz-adv-x="206" />
<glyph unicode="!" horiz-adv-x="356" d="M142 720v-481h-30v481h30zM198 720h-40v-481h40v481zM244 720v-481h-30v481h30zM178 -10q32 0 55.5 23t23.5 56q0 32 -23.5 55.5t-55.5 23.5t-55.5 -23.5t-23.5 -55.5q0 -33 23.5 -56t55.5 -23zM178 121q22 0 37 -15t15 -37t-15 -37t-37 -15t-37 15t-15 37t15 37t37 15z M178 36q14 0 23.5 9.5t9.5 23.5q0 13 -9.5 23t-23.5 10t-23.5 -10t-9.5 -23q0 -14 9.5 -23.5t23.5 -9.5z" />
<glyph unicode="#" horiz-adv-x="678" d="M180 332h-29v387h29v-387zM237 332h-40v387h40v-387zM282 332h-29v387h29v-387zM644 544v-29h-334v29h86v175h29v-175h17v175h40v-175h16v175h29v-175h117zM124 515h-90v29h90v-29zM124 459h-90v40h90v-40zM310 499h334v-40h-334v40zM124 413h-90v30h90v-30zM310 443h334 v-30h-334v30zM396 387h29v-387h-29v387zM441 387h40v-387h-40v387zM498 387h29v-387h-29v387zM34 306h334v-30h-334v30zM554 306h90v-30h-90v30zM34 260h334v-40h-334v40zM554 260h90v-40h-90v40zM34 204h334v-29h-86v-175h-29v175h-17v-175h-40v175h-16v-175h-29v175h-117 v29zM554 204h90v-29h-90v29z" />
<glyph unicode="$" horiz-adv-x="541" d="M231 300q-104 36 -145.5 100t-41.5 133q0 72 43 125.5t113 69.5v72h29v-67l16 1v66h40v-69l17 -4v73h29v-81q30 -12 53 -30q82 -65 82 -170h-29q0 90 -71 147q-48 37 -115 39q-78 -1 -128.5 -50t-49.5 -122q1 -70 43 -124t125 -82q122 -41 124 -133q-2 -45 -30.5 -75.5 t-74.5 -30.5q-44 0 -73 23q-43 34 -43 90h29q0 -43 32 -67q22 -17 55 -17q31 0 53 21t23 56q0 70 -105 106zM356 652q63 -48 65 -133h-40q-2 65 -50 103q-34 26 -81 26q-54 0 -87 -32.5t-34 -84.5q1 -49 34.5 -90t97.5 -62q160 -54 160 -187q0 -67 -45.5 -113.5 t-115.5 -46.5q-63 0 -108 36q-63 48 -65 133h40q2 -65 50 -103q35 -27 83 -27q53 0 86.5 35.5t34.5 87.5q0 104 -133 148q-77 26 -117.5 76.5t-41.5 114.5q-1 66 45 110t117 45q60 0 105 -36zM467 192q0 -67 -37 -120t-99 -74v-83h-29v75l-17 -3v-72h-40v72l-16 1v-73h-29 v79q-46 14 -76 37q-82 65 -82 170h29q0 -90 71 -147q50 -39 118 -39q77 0 128.5 52t49.5 125q-5 146 -171 203q-59 20 -90 56.5t-31 79.5q0 44 28.5 72t75.5 29q42 0 71 -23q43 -34 43 -90h-29q0 43 -32 67q-22 17 -53 17q-32 -1 -53.5 -19t-21.5 -53q0 -74 102 -109 q190 -66 190 -230z" />
<glyph unicode="%" horiz-adv-x="714" d="M200 734q52 0 89 -36.5t37 -88.5t-37 -88.5t-89 -36.5t-88.5 36.5t-36.5 88.5t36.5 88.5t88.5 36.5zM158 207v-207h-29v218l328 337v165h29v-177zM214 184l329 337v199h-40v-184l-329 -336v-200h40v184zM588 720v-218l-328 -337v-165h-30v177l329 337v206h29zM200 513 q40 0 68 28t28 68t-28 68t-68 28t-68 -28t-28 -68t28 -68t68 -28zM200 530q33 0 56.5 23t23.5 56t-23.5 56.5t-56.5 23.5t-56 -23.5t-23 -56.5t23 -56t56 -23zM200 649q16 0 28 -11.5t12 -28.5t-12 -28.5t-28 -11.5t-27.5 11.5t-11.5 28.5t11.5 28.5t27.5 11.5zM200 632 q10 0 17 -6.5t7 -16.5t-7 -16.5t-17 -6.5q-9 0 -16 6.5t-7 16.5t7 16.5t16 6.5zM514 236q52 0 88.5 -36.5t36.5 -88.5t-36.5 -88.5t-88.5 -36.5t-88.5 36.5t-36.5 88.5t36.5 88.5t88.5 36.5zM514 15q40 0 68 28t28 68t-28 68t-68 28t-68 -28t-28 -68t28 -68t68 -28zM514 32 q33 0 56.5 23t23.5 56t-23.5 56.5t-56.5 23.5t-56 -23.5t-23 -56.5t23 -56t56 -23zM514 151q16 0 28 -11.5t12 -28.5t-12 -28.5t-28 -11.5t-28 11.5t-12 28.5t12 28.5t28 11.5zM514 134q10 0 16.5 -6.5t6.5 -16.5t-6.5 -16.5t-16.5 -6.5t-16.5 6.5t-6.5 16.5t6.5 16.5 t16.5 6.5z" />
<glyph unicode="&#x26;" horiz-adv-x="705" d="M282 328v-29q-88 0 -151 65.5t-63 154.5t62.5 152t151.5 63t152 -63t63 -152h-29q0 77 -54.5 131.5t-131.5 54.5t-131 -54.5t-54 -131.5t54.5 -134t130.5 -57zM452 519h-40q-1 55 -39 92.5t-91 37.5t-91 -38t-38 -92q0 -53 38 -93.5t91 -41.5v-40q-70 1 -119.5 53 t-49.5 122t49.5 120t119.5 50t119.5 -49.5t50.5 -120.5zM282 603q-35 0 -59 -24.5t-24 -59.5t24.5 -62t58.5 -27v-29q-46 0 -79.5 35.5t-33.5 82.5t33 80t80 33t80 -33t33 -80h-29q0 35 -24.5 59.5t-59.5 24.5zM660 486h29q0 -82 -55.5 -143t-136.5 -70v-76 q-2 -88 -64.5 -149.5t-150.5 -61.5q-89 0 -151.5 63t-62.5 152q0 88 46 147q6 -8 21 -20q-38 -49 -38 -127q0 -77 54 -131.5t131 -54.5t131.5 54.5t54.5 130.5v101h6q77 0 131.5 54.5t54.5 130.5zM412 357h62q53 0 90.5 37.5t38.5 91.5h40q-1 -70 -50 -119.5t-119 -49.5h-22 v-120q-2 -69 -51.5 -117t-118.5 -48q-70 0 -119.5 49.5t-49.5 119.5q0 71 36 116l34 -19q-30 -38 -30 -97q0 -53 38 -91.5t91 -38.5t91.5 38t38.5 91v157zM366 403h108q35 0 59.5 24.5t24.5 58.5h29q0 -46 -33.5 -79.5t-79.5 -33.5h-79v-176q-1 -46 -34 -77.5t-79 -31.5 t-79.5 33t-33.5 80q0 58 31 91q10 -4 32 -10q-14 -11 -23.5 -35t-9.5 -46q0 -35 24.5 -59.5t58.5 -24.5q35 0 59.5 24.5t24.5 58.5v203z" />
<glyph unicode="(" horiz-adv-x="365" d="M97 617v-515q0 -85 60 -145t145 -60v-29q-97 0 -165.5 68.5t-68.5 165.5v515q0 97 68.5 165.5t165.5 68.5v-29q-85 0 -145 -60t-60 -145zM302 806v-40q-62 -1 -105.5 -44.5t-43.5 -104.5v-515q0 -61 43.5 -104.5t105.5 -44.5v-39q-79 1 -133.5 55.5t-54.5 132.5v515 q0 78 54.5 133t133.5 56zM302 749v-29q-43 0 -73 -30t-30 -73v-515q0 -43 30 -73t73 -30v-29q-55 0 -93.5 38.5t-38.5 93.5v515q0 55 38.5 93.5t93.5 38.5z" />
<glyph unicode=")" horiz-adv-x="365" d="M275 102v515q0 85 -60 145t-145 60v29q97 0 165.5 -68.5t68.5 -165.5v-515q0 -97 -68.5 -165.5t-165.5 -68.5v29q85 0 145 60t60 145zM70 766v40q79 -1 133.5 -56t54.5 -133v-515q0 -78 -54.5 -132.5t-133.5 -55.5v39q62 1 105.5 44.5t43.5 104.5v515q0 61 -43.5 104.5 t-105.5 44.5zM70 720v29q55 0 93.5 -38.5t38.5 -93.5v-515q0 -55 -38.5 -93.5t-93.5 -38.5v29q43 0 73 30t30 73v515q0 43 -30 73t-73 30z" />
<glyph unicode="+" horiz-adv-x="503" d="M186 592h29v-417h-29v417zM271 592h-40v-417h40v417zM287 592h30v-417h-30v417zM159 450v-29h-118v29h118zM462 450v-29h-118v29h118zM159 405h-118v-40h118v40zM462 405h-118v-40h118v40zM41 348h118v-29h-118v29zM344 348h118v-29h-118v29z" />
<glyph unicode="," horiz-adv-x="206" d="M30 -4v-99h-30v111l43 43v57h29v-70zM86 -27l42 42v93h-40v-77l-42 -42v-92h40v76zM174 108v-112l-42 -42v-57h-30v69l43 42v100h29z" />
<glyph unicode="-" horiz-adv-x="376" d="M313 445v-29h-250v29h250zM313 400h-250v-40h250v40zM63 343h250v-29h-250v29z" />
<glyph unicode="." horiz-adv-x="258" d="M129 -10q32 0 55.5 23t23.5 56q0 32 -23.5 55.5t-55.5 23.5t-55.5 -23.5t-23.5 -55.5q0 -33 23.5 -56t55.5 -23zM129 121q22 0 37 -15t15 -37t-15 -37t-37 -15t-37 15t-15 37t15 37t37 15zM129 36q14 0 23.5 9.5t9.5 23.5q0 13 -10 23t-23 10t-23 -10t-10 -23 q0 -14 9.5 -23.5t23.5 -9.5z" />
<glyph unicode="/" horiz-adv-x="536" d="M67 207v-207h-29v218l328 337v165h29v-177zM123 184l329 337v199h-40v-184l-329 -336v-200h40v184zM497 720v-218l-328 -337v-165h-30v177l329 337v206h29z" />
<glyph unicode="0" horiz-adv-x="543" d="M271 731q97 0 165.5 -68.5t68.5 -165.5v-249h-29v249q0 85 -60 145t-145 60t-145 -60t-60 -145v-277q0 -85 60 -145t145 -60t145 60t60 145h29q0 -97 -68.5 -165.5t-165.5 -68.5t-165.5 68.5t-68.5 165.5v277q0 97 68.5 165.5t165.5 68.5zM420 220h39q-1 -78 -55.5 -133 t-132.5 -55t-133 55t-55 133v277q0 78 55 133.5t133 55.5t133 -55.5t55 -133.5v-249h-39v249q0 61 -44 105t-105 44t-104.5 -43.5t-43.5 -105.5v-277q0 -62 43.5 -105.5t104.5 -43.5t104.5 44t44.5 105zM271 117q43 0 73 30t30 73h29q0 -55 -38.5 -93.5t-93.5 -38.5 t-93.5 38.5t-38.5 93.5v277q0 55 38.5 93.5t93.5 38.5t93.5 -38.5t38.5 -93.5v-249h-29v249q0 43 -30 73t-73 30t-73 -30t-30 -73v-277q0 -43 30 -73t73 -30z" />
<glyph unicode="1" horiz-adv-x="463" d="M450 131v-29h-175v589h-224v29h254v-589h145zM450 86h-191v588h-208v-40h168v-548h-190v-40h421v40zM203 102h-174v29h145v458h-123v29h152v-516zM29 30h421v-30h-421v30z" />
<glyph unicode="2" horiz-adv-x="528" d="M482 510q0 -182 -187 -232q-45 -12 -73 -27.5t-40 -35t-15 -34t-3 -37.5v-13h327v-29h-356v42q0 66 34 103t116 58q84 21 125.5 73.5t41.5 130.5q0 84 -53.5 139.5t-136.5 56.5q-67 -2 -120 -41q-78 -60 -78 -163h-29q0 118 89 186q63 47 138 47q93 -1 156.5 -66.5 t63.5 -157.5zM436 510q0 -138 -158 -190q-85 -22 -122.5 -63t-37.5 -113v-58h373v-40h-412v98q1 51 13 87t54.5 70.5t118.5 55.5q131 43 131 152q0 58 -38.5 98.5t-95.5 40.5q-47 0 -86 -28q-55 -42 -56 -119h-39q1 96 71 149q50 38 111 38q75 0 124 -51t49 -127zM380 508 q0 -101 -121 -135q-102 -28 -148.5 -83t-48.5 -148v-112h429v-30h-458v144q0 43 8 76.5t30 68.5t66.5 63t111.5 48q61 18 81 45.5t20 63.5q0 38 -24 66t-64 28t-68 -28.5t-28 -73.5h-29q0 67 49 105q36 26 76 26q53 0 85.5 -37t32.5 -87z" />
<glyph unicode="3" horiz-adv-x="519" d="M480 210q0 -91 -67 -158q-66 -64 -160 -66q-75 0 -138 47q-89 68 -89 186h29q0 -103 78 -163q53 -39 120 -41q83 2 139 58q58 56 58 138q0 67 -41 119q-60 75 -157 77l174 192v92h-341v29h370v-132l-144 -160q75 -21 121 -80q48 -60 48 -138zM143 70q-70 53 -71 149h39 q1 -77 56 -119q39 -28 86 -28q60 0 99 41q42 40 42 98q0 47 -29 84q-43 55 -114 55h-63v70l182 200v15h-285v40h324v-70l-181 -200v-15h23q90 0 144 -70q37 -46 39 -110q-2 -73 -53 -126q-54 -52 -127 -52q-61 0 -111 38zM280 589h-195v30h261l-174 -193v-92h79 q61 0 101 -49q26 -34 26 -73q0 -51 -37 -87q-37 -37 -88 -37q-40 0 -76 26q-49 38 -49 105h29q0 -45 28 -73.5t68 -28.5t67.5 28.5t27.5 65.5q0 38 -29 66t-68 28h-108v132z" />
<glyph unicode="4" horiz-adv-x="545" d="M330 296h16v339h-8l-205 -367v-17h361v-40h-401v67l221 397h72v-379h16v395h-98l-228 -409v-88h418v-29h-447v125l240 430h145v-424h62v-29h-343l179 320v-291zM300 296v179l-99 -179h99zM329 140v-140h-29v140h29zM385 140v-140h-40v140h40zM431 140v-140h-29v140h29z " />
<glyph unicode="5" horiz-adv-x="489" d="M327 266q-28 37 -77 37h-183v417h348v-29h-319v-359h154q63 0 100 -48q26 -32 26 -73v-3q0 -50 -37 -85q-36 -36 -86 -36h-3q-42 0 -74 26q-49 35 -49 106h29q0 -55 37 -83q26 -20 59 -20q39 0 67 28t28 66q0 31 -20 56zM70 219h40q1 -78 56 -120q35 -27 85 -29 q60 2 100 42q42 40 42 98q-2 47 -29 84q-44 55 -114 55h-137v325h302v-39h-263v-246h98q90 0 144 -70q38 -49 38 -108v-3q0 -72 -53 -125q-54 -52 -126 -52h-3q-60 0 -109 37q-70 54 -71 151zM25 219h29q0 -106 78 -164q52 -41 119 -41q80 0 140 57q58 60 58 139 q0 64 -41 119q-60 76 -158 76h-81v213h246v-29h-217v-155h52q112 0 180 -87q48 -62 48 -136v-3q-2 -93 -67 -157q-64 -64 -158 -66h-3q-77 0 -136 47q-89 67 -89 187z" />
<glyph unicode="6" horiz-adv-x="569" d="M227 394v31q30 10 66 10h1q111 0 180 -88q47 -61 47 -136v-1v-1q0 -93 -67 -158q-64 -64 -158 -66h-2h-1q-77 2 -136 47q-84 64 -89 169v305q0 112 87 180q62 48 138 48q112 0 181 -88q47 -61 47 -138h-29q0 67 -41 120q-60 77 -158 77q-66 0 -120 -42q-76 -60 -76 -157 v-295q0 -97 78 -156q52 -39 119 -41q82 2 140 58q56 56 58 137v1q0 65 -41 119q-60 77 -158 77q-35 0 -66 -12zM227 333v44q33 12 66 12h1q89 0 143 -70q37 -46 39 -108q-1 -75 -53 -128q-55 -51 -127 -52h-3q-60 2 -109 38q-65 49 -71 132v305q0 88 70 144q49 38 110 38h1 q89 0 143 -70q39 -48 39 -110h-40q0 46 -29 85q-43 55 -114 55q-47 0 -85 -29q-55 -44 -55 -113v-295q0 -69 56 -111q37 -29 85 -29q61 0 100 41q42 41 42 99q-2 48 -29 83q-43 55 -114 55q-37 0 -66 -16zM227 277v36q31 20 66 20h1q61 0 99 -49q26 -32 26 -73v-1v-1 q0 -49 -36 -85q-37 -36 -88 -37h-2q-42 2 -74 26q-44 34 -49 88v305q0 63 48 100q34 26 75 26h1q61 0 99 -49q26 -32 26 -75h-29q0 32 -20 57q-29 38 -76 38q-32 0 -58 -20q-37 -29 -37 -77v-295q0 -46 37 -75q24 -18 59 -20q39 2 67 28q28 28 28 66q0 31 -20 56 q-29 38 -76 38q-38 0 -67 -27z" />
<glyph unicode="7" horiz-adv-x="483" d="M453 720v-170l-210 -310v-240h-29v249l210 310v132h-415v29h444zM197 255l210 309v110h-398v-39h359v-59l-211 -310v-266h40v255zM141 271v-271h-29v280l209 309h-312v29h342v-37z" />
<glyph unicode="8" horiz-adv-x="539" d="M404 389l23 -18q57 60 57 148q0 89 -63 152t-152 63t-152 -63t-63 -152q0 -153 187 -217q47 -16 73 -35t32 -33t6 -32q0 -35 -24 -59.5t-59 -24.5t-59.5 24.5t-24.5 59.5q0 50 47 81l-31 11q-45 -36 -45 -92q0 -47 33 -80t80 -33t80 33t33 80q-1 48 -32.5 76.5 t-98.5 50.5q-167 56 -168 190q0 77 54.5 131.5t131.5 54.5t131 -54.5t54 -131.5t-50 -130zM392 399q46 49 46 120q0 70 -49.5 119.5t-119.5 49.5q-71 0 -120 -49t-49 -120q1 -123 158 -175q70 -23 105 -55.5t35 -86.5t-38 -92t-91 -38q-54 0 -92 38t-38 92q0 57 45 99 l-36 20q-48 -51 -48 -119q0 -71 49.5 -120.5t119.5 -49.5t119.5 50t49.5 120q0 60 -36 103.5t-131 75.5q-130 43 -132 138q0 53 38 91.5t92 38.5q53 0 91 -38.5t38 -91.5q0 -60 -42 -100q27 -14 36 -20zM338 426q44 33 44 93q0 47 -33 80t-80 33t-80 -33t-33 -80 q0 -80 121 -122q87 -30 131 -75.5t46 -119.5q0 -77 -54 -131.5t-131 -54.5t-131.5 54.5t-54.5 131.5q0 74 52 129l-24 17q-57 -64 -57 -146q0 -89 63 -152t152 -63t152 63t63 152q0 71 -42.5 127t-153.5 95q-103 35 -103 95q0 35 24.5 59.5t59.5 24.5q34 0 58.5 -24.5 t24.5 -59.5q0 -25 -13.5 -47t-34.5 -33q9 -3 34 -13z" />
<glyph unicode="9" horiz-adv-x="569" d="M356 322v-31q-30 -10 -66 -10h-1q-111 0 -180 88q-47 61 -47 136v1v1q0 93 67 158q64 64 158 66h2h1q77 -2 136 -47q84 -64 89 -169v-305q0 -112 -87 -180q-62 -48 -138 -48q-112 0 -181 88q-47 61 -47 138h29q0 -67 41 -120q60 -77 158 -77q66 0 120 42q76 60 76 157 v295q0 97 -78 156q-52 39 -119 41q-82 -2 -140 -58q-56 -56 -58 -137v-1q0 -65 41 -119q60 -77 158 -77q34 0 66 12zM356 383v-44q-33 -12 -66 -12h-1q-89 0 -143 70q-37 46 -39 108q1 75 53 128q55 51 127 52h3q60 -2 109 -38q65 -49 71 -132v-305q0 -88 -70 -144 q-49 -38 -110 -38h-1q-89 0 -143 70q-39 48 -39 110h40q0 -46 29 -85q43 -55 114 -55q47 0 85 29q55 44 55 113v295q0 69 -56 111q-37 29 -85 29q-61 0 -100 -41q-42 -41 -42 -99q2 -48 29 -83q43 -55 114 -55q37 0 66 16zM356 439v-36q-31 -20 -66 -20h-1q-61 0 -99 49 q-26 32 -26 73v1v1q0 49 36 85q37 36 88 37h2q42 -2 74 -26q44 -34 49 -88v-305q0 -63 -48 -100q-34 -26 -75 -26h-1q-61 0 -99 49q-26 32 -26 75h29q0 -32 20 -57q29 -38 76 -38q32 0 58 20q37 29 37 77v295q0 46 -37 75q-24 18 -59 20q-39 -2 -67 -28q-28 -28 -28 -66 q0 -31 20 -56q29 -38 76 -38q38 0 67 27z" />
<glyph unicode=":" horiz-adv-x="200" d="M100 424q32 0 55.5 23t23.5 56q0 32 -23.5 55.5t-55.5 23.5t-55.5 -23.5t-23.5 -55.5q0 -33 23.5 -56t55.5 -23zM100 555q22 0 37 -15t15 -37t-15 -37t-37 -15t-37 15t-15 37t15 37t37 15zM100 470q14 0 23.5 9.5t9.5 23.5q0 13 -9.5 23t-23.5 10t-23.5 -10t-9.5 -23 q0 -14 9.5 -23.5t23.5 -9.5zM100 142q32 0 55.5 23t23.5 56q0 32 -23.5 55.5t-55.5 23.5t-55.5 -23.5t-23.5 -55.5q0 -33 23.5 -56t55.5 -23zM100 273q22 0 37 -15t15 -37t-15 -37t-37 -15t-37 15t-15 37t15 37t37 15zM100 188q14 0 23.5 9.5t9.5 23.5q0 13 -9.5 23 t-23.5 10t-23.5 -10t-9.5 -23q0 -14 9.5 -23.5t23.5 -9.5z" />
<glyph unicode=";" horiz-adv-x="227" d="M109 404q32 0 55.5 23t23.5 56q0 32 -23.5 55.5t-55.5 23.5t-55.5 -23.5t-23.5 -55.5q0 -33 23.5 -56t55.5 -23zM109 535q22 0 37 -15t15 -37t-15 -37t-37 -15t-37 15t-15 37t15 37t37 15zM109 450q14 0 23.5 9.5t9.5 23.5q0 13 -10 23t-23 10t-23 -10t-10 -23 q0 -14 9.5 -23.5t23.5 -9.5zM30 -4v-99h-30v111l43 43v57h29v-70zM86 -27l42 42v93h-40v-77l-42 -42v-92h40v76zM174 108v-112l-42 -42v-57h-30v69l43 42v100h29z" />
<glyph unicode="=" horiz-adv-x="543" d="M480 512v-29h-417v29h417zM480 467h-417v-40h417v40zM63 410h417v-29h-417v29zM480 328v-29h-417v29h417zM480 283h-417v-40h417v40zM63 226h417v-29h-417v29z" />
<glyph unicode="?" horiz-adv-x="532" d="M178 675q-54 -41 -54 -110h-29q0 82 65 133q44 35 101 35h2q68 -1 116.5 -49.5t49.5 -116.5v-1v-1q-2 -56 -35 -100q-49 -64 -131 -66q-11 0 -23 -7q-14 -11 -14 -28q1 -15 11.5 -25t25.5 -10q14 0 22 8q14 11 14 29h29q0 -33 -25 -53q-19 -13 -40 -13q-27 0 -46 18 t-20 44v2v2q2 30 25 49q20 13 39 13q67 0 110 54q27 36 29 84q-1 57 -41 97.5t-97 40.5q-47 0 -84 -29zM140 363q0 60 48 96q32 24 73 26q40 0 66 32q16 22 16 49q0 34 -24 57.5t-57 24.5q-29 0 -49 -17q-31 -24 -33 -66h-40q2 61 48 97q32 24 73 26h2q49 -1 84 -36t36 -85 v-1q0 -40 -26 -74q-36 -47 -94 -47q-28 0 -50 -17q-31 -24 -33 -64q1 -34 25 -57.5t58 -23.5q28 0 50 17q30 23 32 66h40q-2 -61 -48 -97q-32 -25 -74 -25q-50 0 -86 34.5t-37 84.5zM401 366h29q0 -83 -65 -133q-46 -35 -102 -35q-69 0 -117.5 48t-50.5 116v4q2 81 65 129 q44 35 101 35q17 0 29 15q8 8 8 21q-1 15 -11.5 25.5t-24.5 10.5q-10 0 -22 -7q-14 -11 -14 -30h-29q0 33 25 53q20 13 39 13h2q26 -1 44.5 -19.5t19.5 -44.5v-1v-1q0 -21 -14 -38q-18 -24 -50 -26q-48 0 -85 -29q-54 -41 -54 -109q1 -56 41.5 -96t97.5 -40q47 0 84 29 q54 40 54 110zM260 -10q33 0 56 23t23 56q0 32 -23 55.5t-56 23.5q-32 0 -55.5 -23.5t-23.5 -55.5q0 -33 23.5 -56t55.5 -23zM260 121q22 0 37.5 -15t15.5 -37t-15.5 -37t-37.5 -15t-37 15t-15 37t15 37t37 15zM260 36q14 0 23.5 9.5t9.5 23.5t-9.5 23.5t-23.5 9.5 t-23.5 -10t-9.5 -23q0 -14 9.5 -23.5t23.5 -9.5z" />
<glyph unicode="@" horiz-adv-x="543" d="M351 504q-29 -9 -48 -34.5t-19 -57.5q0 -40 28 -68t68 -28t68 28t28 68v88q0 85 -60 145t-145 60t-145 -60t-60 -145v-280q0 -85 60 -145t145 -60t145 60t60 145h29q0 -97 -68.5 -165.5t-165.5 -68.5t-165.5 68.5t-68.5 165.5v280q0 97 68.5 165.5t165.5 68.5 t165.5 -68.5t68.5 -165.5v-88q0 -52 -36.5 -88.5t-88.5 -36.5t-88.5 36.5t-36.5 88.5q0 41 24.5 74t64.5 46q7 -10 7 -28zM352 487v-46q-12 -14 -12 -29q0 -17 11.5 -28.5t27.5 -11.5q17 0 29 12t12 28v88q0 62 -44 105.5t-105 43.5t-104.5 -43.5t-43.5 -105.5v-280 q0 -62 43.5 -105.5t104.5 -43.5t104.5 43.5t44.5 105.5h39q-1 -79 -55.5 -133.5t-132.5 -54.5t-133 55t-55 133v280q0 78 55 133.5t133 55.5t133 -55.5t55 -133.5v-88q0 -33 -23.5 -56t-56.5 -23t-56 23t-23 56q0 26 14.5 46.5t37.5 28.5zM271 603q-43 0 -73 -30t-30 -73 v-280q0 -43 30 -73t73 -30t73 30t30 73h29q0 -55 -38.5 -93.5t-93.5 -38.5t-93.5 38.5t-38.5 93.5v280q0 55 38.5 93.5t93.5 38.5t93.5 -38.5t38.5 -93.5v-88q0 -10 -7 -16.5t-17 -6.5q-9 0 -16 6.5t-7 16.5q0 18 18 22v66q0 42 -28 72.5t-75 30.5z" />
<glyph unicode="A" d="M516 418v-166h-309v30h279v129l-140 280h-129l-140 -280v-411h-29v418l151 302h165zM133 398l119 237h59l119 -237v-60h-223v-40h263v109l-134 268h-109l-133 -268v-407h39v398zM280 589l-101 -202v-387h-29v394l112 224h39l113 -224v-40h-207v30h178v3l-102 202h-3z M414 231v-231h-29v231h29zM470 231h-40v-231h40v231zM516 231v-231h-30v231h30z" />
<glyph unicode="B" horiz-adv-x="552" d="M445 370q70 -63 70 -157q0 -88 -62.5 -150.5t-150.5 -62.5h-234v720h192q86 -2 147 -63.5t61 -148.5q0 -88 -62 -150t-150 -62h-29v29h29q76 0 129.5 53.5t53.5 129.5t-53.5 129.5t-129.5 53.5h-159v-662h205q76 0 130 54t54 130q0 80 -60 135q10 10 19 22zM114 675h146 q68 -2 115.5 -50.5t47.5 -116.5q0 -69 -49 -117.5t-118 -48.5h-29v40h29q52 0 89.5 37t37.5 89t-37.5 89.5t-89.5 37.5h-103v-550h149q52 0 89.5 37.5t37.5 90.5q0 59 -46 98q19 12 32 25q54 -49 54 -123q0 -69 -49 -118t-118 -49h-188v629zM199 589v-458h103q34 0 58 24 t24 58q0 49 -45 77q9 3 28 12q46 -33 46 -89q0 -46 -32.5 -78.5t-78.5 -32.5h-132v516h90q44 -2 75 -33.5t31 -76.5t-32 -77.5t-78 -32.5h-29v29h29q34 0 57.5 24t23.5 57q0 34 -23.5 57.5t-57.5 23.5h-57z" />
<glyph unicode="C" horiz-adv-x="529" d="M273 16q85 0 145 60t60 145h29q0 -97 -68.5 -165.5t-165.5 -68.5t-165.5 68.5t-68.5 165.5v278q0 97 68.5 165.5t165.5 68.5t165.5 -68.5t68.5 -165.5h-29q0 85 -60 145t-145 60t-145 -60t-60 -145v-278q0 -85 60 -145t145 -60zM461 499h-40q-1 62 -44 105.5t-104 43.5 t-105 -44t-44 -105v-278q0 -61 44 -105t105 -44t104 43.5t44 105.5h40q-1 -79 -55.5 -133.5t-132.5 -54.5t-133 55t-55 133v278q0 78 55 133.5t133 55.5q77 0 132 -55t56 -134zM273 602q-43 0 -73 -30t-30 -73v-278q0 -43 30 -73t73 -30t73 30t30 73h29q0 -55 -38.5 -93.5 t-93.5 -38.5t-93.5 38.5t-38.5 93.5v278q0 55 38.5 93.5t93.5 38.5t93.5 -38.5t38.5 -93.5h-29q0 43 -30 73t-73 30z" />
<glyph unicode="D" horiz-adv-x="573" d="M68 720h234q97 0 165.5 -68.5t68.5 -165.5v-252q0 -97 -68.5 -165.5t-165.5 -68.5h-234v720zM507 234v252q0 85 -60 145t-145 60h-205v-662h205q85 0 145 60t60 145zM114 675h188q78 0 133 -55.5t55 -133.5v-252q0 -78 -55 -133t-133 -55h-188v629zM450 234v252 q0 62 -43.5 105.5t-104.5 43.5h-149v-550h149q61 0 104.5 43.5t43.5 105.5zM170 618h132q55 0 93.5 -38.5t38.5 -93.5v-252q0 -55 -38.5 -93.5t-93.5 -38.5h-132v516zM405 234v252q0 43 -30 73t-73 30h-103v-458h103q43 0 73 30t30 73z" />
<glyph unicode="E" horiz-adv-x="553" d="M502 720v-29h-405v-367h331v-29h-360v425h434zM428 380h-275v255h349v40h-388v-335h314v40zM170 618h332v-29h-303v-163h229v-29h-258v221zM512 29v-29h-444v273h29v-244h415zM153 85h359v-39h-398v227h39v-188zM512 131v-29h-342v171h29v-142h313z" />
<glyph unicode="F" horiz-adv-x="503" d="M510 720v-29h-413v-367h331v-29h-360v425h442zM428 380h-275v255h357v40h-396v-335h314v40zM170 618h340v-29h-311v-163h229v-30h-258v222zM97 273v-273h-29v273h29zM153 273v-273h-39v273h39zM199 273v-273h-29v273h29z" />
<glyph unicode="G" horiz-adv-x="543" d="M279 426h226v-205q0 -97 -68 -165.5t-165 -68.5t-165.5 68.5t-68.5 165.5v278q0 97 68.5 165.5t165.5 68.5t165 -68.5t68 -165.5h-29q0 85 -60 145t-144 60q-85 0 -145 -60t-60 -145v-278q0 -85 60 -145t145 -60q84 0 144 60t60 145v176h-197v29zM460 499h-40 q-1 62 -44.5 105.5t-103.5 43.5q-62 0 -105.5 -44t-43.5 -105v-278q0 -61 43.5 -105t105.5 -44q61 0 104.5 44t43.5 105v119h-141v40h181v-159q0 -78 -55.5 -133t-132.5 -55q-78 0 -133.5 55t-55.5 133v278q0 78 55.5 133.5t133.5 55.5q77 0 132 -55t56 -134zM272 602 q-43 0 -73 -30t-30 -73v-278q0 -43 30 -73t73 -30q42 0 72 30t30 73v74h-95v29h125v-103q0 -55 -39 -93.5t-93 -38.5q-55 0 -93.5 38.5t-38.5 93.5v278q0 55 38.5 93.5t93.5 38.5q54 0 93 -38.5t39 -93.5h-30q0 43 -30 73t-72 30z" />
<glyph unicode="H" horiz-adv-x="603" d="M97 720v-720h-29v720h29zM154 720h-40v-720h40v720zM199 720v-720h-29v720h29zM490 720h-40v-340h-223v-40h263v380zM536 720v-425h-309v29h280v396h29zM434 396h-207v30h178v294h29v-324zM434 273v-273h-29v273h29zM490 273v-273h-40v273h40zM536 273v-273h-29v273h29z " />
<glyph unicode="I" horiz-adv-x="419" d="M378 720v-29h-337v29h337zM378 85h-148v550h148v40h-337v-40h149v-550h-149v-39h337v39zM173 102h-132v29h103v458h-103v29h132v-516zM246 618h132v-29h-102v-458h102v-29h-132v516zM41 29h337v-29h-337v29z" />
<glyph unicode="J" horiz-adv-x="540" d="M472 720v-499q0 -97 -68.5 -165.5t-165.5 -68.5t-165.5 68.5t-68.5 165.5h29q0 -85 60 -145t145 -60t145 60t60 145v470h-329v29h358zM238 33q-78 0 -132.5 54.5t-55.5 133.5h39q1 -62 44.5 -105.5t104.5 -43.5t104.5 43.5t43.5 105.5v414h-272v40h312v-454 q0 -78 -55 -133t-133 -55zM238 89q-55 0 -93.5 38.5t-38.5 93.5h29q0 -43 30 -73t73 -30t73 30t30 73v368h-227v29h256v-397q0 -55 -38.5 -93.5t-93.5 -38.5z" />
<glyph unicode="K" horiz-adv-x="583" d="M97 720v-720h-29v720h29zM153 720h-39v-720h39v720zM199 720v-720h-29v720h29zM490 520v200h-40v-184l-156 -156h-67v-40h83zM536 720v-219l-207 -206h-102v29h90l190 189v207h29zM287 396h-60v30h48l130 130v164h29v-177zM411 344l125 -125v-219h-29v207l-117 116z M378 312l112 -112v-200h-40v184l-100 100zM339 272l95 -95v-177h-29v165l-107 107h41z" />
<glyph unicode="L" horiz-adv-x="461" d="M97 29h371v-29h-400v720h29v-691zM468 85h-315v635h-39v-674h354v39zM468 131v-29h-298v618h29v-589h269z" />
<glyph unicode="M" horiz-adv-x="699" d="M639 720v-720h-29v691h-104l-157 -325l-156 325h-104v-691h-29v720h153l136 -271l137 271h153zM593 675h-76l-161 -337h-14l-160 337h-76v-675h39v635h8l161 -337h70l161 337h8v-635h40v675zM537 566v-566h-29v446l-93 -194h-133l-91 193v-445h-29v566l141 -284h92z" />
<glyph unicode="N" horiz-adv-x="603" d="M97 691v-691h-29v720h151l186 -433v433h29v-575l-234 546h-103zM153 635h9l253 -589h75v674h-40v-635h-8l-253 590h-75v-675h39v635zM536 720v-720h-151l-186 434v-434h-29v575l234 -546h103v691h29z" />
<glyph unicode="O" horiz-adv-x="543" d="M272 732q97 0 165.5 -68.5t68.5 -165.5v-278q0 -97 -68.5 -165.5t-165.5 -68.5t-165.5 68.5t-68.5 165.5v278q0 97 68.5 165.5t165.5 68.5zM477 220v278q0 85 -60 145t-145 60t-145 -60t-60 -145v-278q0 -85 60 -145t145 -60t145 60t60 145zM272 687q78 0 133 -55.5 t55 -133.5v-278q0 -78 -55 -133t-133 -55t-132.5 54.5t-55.5 133.5v278q0 78 55 133.5t133 55.5zM420 220v278q0 62 -43.5 105.5t-104.5 43.5q-62 0 -105.5 -43.5t-43.5 -105.5v-278q1 -62 44.5 -105.5t104.5 -43.5t104.5 43.5t43.5 105.5zM272 630q55 0 93.5 -38.5 t38.5 -93.5v-278q0 -55 -38.5 -93.5t-93.5 -38.5t-93.5 38.5t-38.5 93.5v278q0 55 38.5 93.5t93.5 38.5zM375 220v278q0 43 -30 73t-73 30t-73 -30t-30 -73v-278q0 -43 30 -73t73 -30t73 30t30 73z" />
<glyph unicode="P" horiz-adv-x="553" d="M68 720h234q97 0 165.5 -68.5t68.5 -165.5t-68.5 -165.5t-165.5 -68.5h-75v30h75q85 0 145 59.5t60 144.5t-60 145t-145 60h-205v-691h-29v720zM450 486q0 62 -43.5 105.5t-104.5 43.5h-149v-635h-39v675h188q78 0 133 -55.5t55 -133.5t-55 -133t-133 -55h-75v40h75 q61 0 104.5 43.5t43.5 104.5zM405 486q0 43 -30 73t-73 30h-103v-589h-29v618h132q55 0 93.5 -38.5t38.5 -93.5q0 -54 -38.5 -93t-93.5 -39h-75v30h75q43 0 73 30t30 72z" />
<glyph unicode="Q" horiz-adv-x="544" d="M272 732q97 0 165.5 -68.5t68.5 -165.5v-250h-29v250q0 85 -60 145t-145 60t-145 -60t-60 -145v-278q0 -85 60 -145t145 -60v-29q-97 0 -165.5 68.5t-68.5 165.5v278q0 97 68.5 165.5t165.5 68.5zM123 498v-278q0 -61 43.5 -104.5t105.5 -44.5v-40q-79 1 -133.5 56 t-54.5 133v278q0 78 55 133t133 55t133 -55t55 -133v-250h-40v250q0 62 -43.5 105.5t-104.5 43.5q-62 0 -105.5 -43.5t-43.5 -105.5zM169 498v-278q0 -43 30 -73t73 -30v-29q-55 0 -93.5 38.5t-38.5 93.5v278q0 55 38.5 93.5t93.5 38.5t93.5 -38.5t38.5 -93.5v-250h-29v250 q0 43 -30 73t-73 30t-73 -30t-30 -73zM272 219v29q97 0 165.5 -68.5t68.5 -165.5h-29q0 85 -60 145t-145 60zM272 162v40q79 -1 133 -55t56 -133h-40q-1 61 -44.5 104t-104.5 44zM272 117v29q55 0 93.5 -39t38.5 -93h-29q0 42 -30 72.5t-73 30.5z" />
<glyph unicode="R" horiz-adv-x="603" d="M535 487q0 -97 -68 -165.5t-165 -68.5h-75v29h75q85 0 144.5 60t59.5 145t-59.5 144.5t-144.5 59.5h-205v-691h-29v721h234q97 0 165 -68.5t68 -165.5zM450 487q0 61 -43.5 104.5t-104.5 43.5h-149v-635h-40v675h189q77 0 132.5 -55t55.5 -133t-55.5 -133.5t-132.5 -55.5 h-75v40h75q61 0 104.5 44t43.5 105zM404 487q0 42 -30 72t-72 30h-103v-589h-29v619h132q54 0 93 -39t39 -93q0 -55 -39 -93.5t-93 -38.5h-75v29h75q42 0 72 30t30 73zM457 284l22 19q56 -65 56 -153v-150h-29v150q0 76 -49 134zM408 253l36 20q46 -54 46 -123v-150h-40v150 q0 58 -42 103zM357 237l34 10q43 -43 43 -97v-150h-30v150q0 43 -30 73q-8 8 -17 14z" />
<glyph unicode="S" horiz-adv-x="515" d="M231 300q-104 36 -145.5 100t-41.5 133q0 86 58.5 143t148.5 58q78 -2 133 -45q82 -65 82 -170h-29q0 90 -71 147q-48 37 -115 39q-78 -1 -128.5 -50t-49.5 -122q1 -70 43 -124t125 -82q122 -41 124 -133q-2 -45 -30.5 -75.5t-74.5 -30.5q-44 0 -73 23q-43 34 -43 90h29 q0 -43 32 -67q22 -17 55 -17q31 0 53 21t23 56q0 70 -105 106zM421 192q0 -67 -45.5 -113.5t-115.5 -46.5q-63 0 -108 36q-63 48 -65 133h40q2 -65 50 -103q35 -27 83 -27q53 0 86.5 35.5t34.5 87.5q0 104 -133 148q-77 26 -117.5 76.5t-41.5 114.5q-1 66 45 110t117 45 q60 0 105 -36q63 -48 65 -133h-40q-2 65 -50 103q-34 26 -81 26q-54 0 -87 -32.5t-34 -84.5q1 -49 34.5 -90t97.5 -62q160 -54 160 -187zM467 192q0 -86 -59 -146t-148 -60q-77 0 -136 45q-82 65 -82 170h29q0 -90 71 -147q50 -39 118 -39q77 0 128.5 52t49.5 125 q-5 146 -171 203q-59 20 -90 56.5t-31 79.5q0 44 28.5 72t75.5 29q42 0 71 -23q43 -34 43 -90h-29q0 43 -32 67q-22 17 -53 17q-32 -1 -53.5 -19t-21.5 -53q0 -74 102 -109q190 -66 190 -230z" />
<glyph unicode="T" horiz-adv-x="428" d="M130 720v-29h-137v29h137zM435 720v-29h-249v-691h-29v720h278zM130 675h-137v-40h137v40zM242 635h193v40h-232v-673h39v633zM-7 618h137v-29h-137v29zM259 618h176v-29h-147v-589h-29v618z" />
<glyph unicode="U" horiz-adv-x="603" d="M536 720v-499q0 -97 -68.5 -165.5t-165.5 -68.5t-165.5 68.5t-68.5 165.5v499h29v-499q0 -85 60 -145t145 -60t145 60t60 145v499h29zM302 33q-78 0 -133 55t-55 133v499h40v-499q0 -62 43.5 -105.5t104.5 -43.5q62 0 105.5 44t43.5 105v499h39v-499q0 -78 -55 -133 t-133 -55zM302 89q-55 0 -93.5 38.5t-38.5 93.5v499h29v-499q0 -43 30.5 -73t72.5 -30q43 0 73 30t30 73v499h29v-499q0 -55 -38.5 -93.5t-93.5 -38.5z" />
<glyph unicode="V" d="M515 720v-373l-149 -347h-170l-149 347v373h29v-367l139 -324h132l139 324v367h29zM469 357v363h-40v-356l-119 -279h-58l-120 279v356h-39v-363l132 -311h111zM149 368v352h29v-346l103 -240l103 240v346h29v-352l-114 -266h-36z" />
<glyph unicode="W" horiz-adv-x="645" d="M597 720v-539l-60 -181h-136l-78 186l-78 -186h-137l-60 181v539h29v-534l52 -157h95l99 237l99 -237h94l52 157v534h29zM552 188v532h-40v-526l-37 -109h-13l-104 253h-71l-104 -253h-13l-37 109v526h-40v-532l47 -142h72l104 252h13l104 -252h72zM150 198v522h29v-513 l75 177h137l75 -177v513h30v-522l-27 -80l-99 236h-95l-99 -236z" />
<glyph unicode="X" d="M188 379l-140 194v147h29v-138l129 -178zM77 138v-138h-29v147l337 468v105h29v-114zM216 418l-122 170v132h39v-120l107 -147zM133 120l337 468v132h-40v-120l-336 -468v-132h39v120zM516 720v-147l-337 -468v-105h-29v115l337 467v138h29zM250 466l-100 140v114h29 v-105l89 -124zM376 341l140 -194v-147h-29v138l-129 178zM348 302l122 -170v-132h-40v120l-107 148zM313 254l101 -139v-115h-29v105l-90 124z" />
<glyph unicode="Y" d="M245 305v-305h-29v295l-168 210v215h29v-204zM301 325l-168 210v185h-40v-198l169 -211v-311h39v325zM347 341v-341h-29v331l-168 210v179h29v-169zM413 720v-177l-111 -111l-18 23l100 101v164h29zM470 720v-200l-132 -132l-26 32l118 116v184h40zM515 720v-219 l-149 -149l-18 23l138 138v207h29z" />
<glyph unicode="Z" d="M511 548l-333 -417h329v-29h-362v35l337 421v133h-436v29h465v-172zM507 85h-379v58l337 421v111h-419v-40h379v-58l-336 -421v-110h418v39zM72 29h435v-29h-464v173l333 416h-330v29h363v-35l-337 -421v-133z" />
<glyph unicode="[" horiz-adv-x="364" d="M304 -102v-29h-234v982h224v-29h-195v-924h205zM304 -46v-39h-188v891h178v-40h-139v-812h149zM304 -29h-132v778h122v-29h-93v-720h103v-29z" />
<glyph unicode="]" horiz-adv-x="364" d="M265 822h-195v29h224v-982h-234v29h205v924zM209 766h-139v40h178v-891h-188v39h149v812zM163 0v720h-93v29h122v-778h-132v29h103z" />
<glyph unicode="_" horiz-adv-x="602" d="M539 0v-29h-476v29h476zM539 -45h-476v-40h476v40zM63 -102h476v-29h-476v29z" />
<glyph unicode="a" d="M516 418v-166h-309v30h279v129l-140 280h-129l-140 -280v-411h-29v418l151 302h165zM133 398l119 237h59l119 -237v-60h-223v-40h263v109l-134 268h-109l-133 -268v-407h39v398zM280 589l-101 -202v-387h-29v394l112 224h39l113 -224v-40h-207v30h178v3l-102 202h-3z M414 231v-231h-29v231h29zM470 231h-40v-231h40v231zM516 231v-231h-30v231h30z" />
<glyph unicode="b" horiz-adv-x="552" d="M445 370q70 -63 70 -157q0 -88 -62.5 -150.5t-150.5 -62.5h-234v720h192q86 -2 147 -63.5t61 -148.5q0 -88 -62 -150t-150 -62h-29v29h29q76 0 129.5 53.5t53.5 129.5t-53.5 129.5t-129.5 53.5h-159v-662h205q76 0 130 54t54 130q0 80 -60 135q10 10 19 22zM114 675h146 q68 -2 115.5 -50.5t47.5 -116.5q0 -69 -49 -117.5t-118 -48.5h-29v40h29q52 0 89.5 37t37.5 89t-37.5 89.5t-89.5 37.5h-103v-550h149q52 0 89.5 37.5t37.5 90.5q0 59 -46 98q19 12 32 25q54 -49 54 -123q0 -69 -49 -118t-118 -49h-188v629zM199 589v-458h103q34 0 58 24 t24 58q0 49 -45 77q9 3 28 12q46 -33 46 -89q0 -46 -32.5 -78.5t-78.5 -32.5h-132v516h90q44 -2 75 -33.5t31 -76.5t-32 -77.5t-78 -32.5h-29v29h29q34 0 57.5 24t23.5 57q0 34 -23.5 57.5t-57.5 23.5h-57z" />
<glyph unicode="c" horiz-adv-x="529" d="M273 16q85 0 145 60t60 145h29q0 -97 -68.5 -165.5t-165.5 -68.5t-165.5 68.5t-68.5 165.5v278q0 97 68.5 165.5t165.5 68.5t165.5 -68.5t68.5 -165.5h-29q0 85 -60 145t-145 60t-145 -60t-60 -145v-278q0 -85 60 -145t145 -60zM461 499h-40q-1 62 -44 105.5t-104 43.5 t-105 -44t-44 -105v-278q0 -61 44 -105t105 -44t104 43.5t44 105.5h40q-1 -79 -55.5 -133.5t-132.5 -54.5t-133 55t-55 133v278q0 78 55 133.5t133 55.5q77 0 132 -55t56 -134zM273 602q-43 0 -73 -30t-30 -73v-278q0 -43 30 -73t73 -30t73 30t30 73h29q0 -55 -38.5 -93.5 t-93.5 -38.5t-93.5 38.5t-38.5 93.5v278q0 55 38.5 93.5t93.5 38.5t93.5 -38.5t38.5 -93.5h-29q0 43 -30 73t-73 30z" />
<glyph unicode="d" horiz-adv-x="573" d="M68 720h234q97 0 165.5 -68.5t68.5 -165.5v-252q0 -97 -68.5 -165.5t-165.5 -68.5h-234v720zM507 234v252q0 85 -60 145t-145 60h-205v-662h205q85 0 145 60t60 145zM114 675h188q78 0 133 -55.5t55 -133.5v-252q0 -78 -55 -133t-133 -55h-188v629zM450 234v252 q0 62 -43.5 105.5t-104.5 43.5h-149v-550h149q61 0 104.5 43.5t43.5 105.5zM170 618h132q55 0 93.5 -38.5t38.5 -93.5v-252q0 -55 -38.5 -93.5t-93.5 -38.5h-132v516zM405 234v252q0 43 -30 73t-73 30h-103v-458h103q43 0 73 30t30 73z" />
<glyph unicode="e" horiz-adv-x="553" d="M502 720v-29h-405v-367h331v-29h-360v425h434zM428 380h-275v255h349v40h-388v-335h314v40zM170 618h332v-29h-303v-163h229v-29h-258v221zM512 29v-29h-444v273h29v-244h415zM153 85h359v-39h-398v227h39v-188zM512 131v-29h-342v171h29v-142h313z" />
<glyph unicode="f" horiz-adv-x="503" d="M510 720v-29h-413v-367h331v-29h-360v425h442zM428 380h-275v255h357v40h-396v-335h314v40zM170 618h340v-29h-311v-163h229v-30h-258v222zM97 273v-273h-29v273h29zM153 273v-273h-39v273h39zM199 273v-273h-29v273h29z" />
<glyph unicode="g" horiz-adv-x="543" d="M279 426h226v-205q0 -97 -68 -165.5t-165 -68.5t-165.5 68.5t-68.5 165.5v278q0 97 68.5 165.5t165.5 68.5t165 -68.5t68 -165.5h-29q0 85 -60 145t-144 60q-85 0 -145 -60t-60 -145v-278q0 -85 60 -145t145 -60q84 0 144 60t60 145v176h-197v29zM460 499h-40 q-1 62 -44.5 105.5t-103.5 43.5q-62 0 -105.5 -44t-43.5 -105v-278q0 -61 43.5 -105t105.5 -44q61 0 104.5 44t43.5 105v119h-141v40h181v-159q0 -78 -55.5 -133t-132.5 -55q-78 0 -133.5 55t-55.5 133v278q0 78 55.5 133.5t133.5 55.5q77 0 132 -55t56 -134zM272 602 q-43 0 -73 -30t-30 -73v-278q0 -43 30 -73t73 -30q42 0 72 30t30 73v74h-95v29h125v-103q0 -55 -39 -93.5t-93 -38.5q-55 0 -93.5 38.5t-38.5 93.5v278q0 55 38.5 93.5t93.5 38.5q54 0 93 -38.5t39 -93.5h-30q0 43 -30 73t-72 30z" />
<glyph unicode="h" horiz-adv-x="603" d="M97 720v-720h-29v720h29zM154 720h-40v-720h40v720zM199 720v-720h-29v720h29zM490 720h-40v-340h-223v-40h263v380zM536 720v-425h-309v29h280v396h29zM434 396h-207v30h178v294h29v-324zM434 273v-273h-29v273h29zM490 273v-273h-40v273h40zM536 273v-273h-29v273h29z " />
<glyph unicode="i" horiz-adv-x="419" d="M378 720v-29h-337v29h337zM378 85h-148v550h148v40h-337v-40h149v-550h-149v-39h337v39zM173 102h-132v29h103v458h-103v29h132v-516zM246 618h132v-29h-102v-458h102v-29h-132v516zM41 29h337v-29h-337v29z" />
<glyph unicode="j" horiz-adv-x="540" d="M472 720v-499q0 -97 -68.5 -165.5t-165.5 -68.5t-165.5 68.5t-68.5 165.5h29q0 -85 60 -145t145 -60t145 60t60 145v470h-329v29h358zM238 33q-78 0 -132.5 54.5t-55.5 133.5h39q1 -62 44.5 -105.5t104.5 -43.5t104.5 43.5t43.5 105.5v414h-272v40h312v-454 q0 -78 -55 -133t-133 -55zM238 89q-55 0 -93.5 38.5t-38.5 93.5h29q0 -43 30 -73t73 -30t73 30t30 73v368h-227v29h256v-397q0 -55 -38.5 -93.5t-93.5 -38.5z" />
<glyph unicode="k" horiz-adv-x="583" d="M97 720v-720h-29v720h29zM153 720h-39v-720h39v720zM199 720v-720h-29v720h29zM490 520v200h-40v-184l-156 -156h-67v-40h83zM536 720v-219l-207 -206h-102v29h90l190 189v207h29zM287 396h-60v30h48l130 130v164h29v-177zM411 344l125 -125v-219h-29v207l-117 116z M378 312l112 -112v-200h-40v184l-100 100zM339 272l95 -95v-177h-29v165l-107 107h41z" />
<glyph unicode="l" horiz-adv-x="461" d="M97 29h371v-29h-400v720h29v-691zM468 85h-315v635h-39v-674h354v39zM468 131v-29h-298v618h29v-589h269z" />
<glyph unicode="m" horiz-adv-x="699" d="M639 720v-720h-29v691h-104l-157 -325l-156 325h-104v-691h-29v720h153l136 -271l137 271h153zM593 675h-76l-161 -337h-14l-160 337h-76v-675h39v635h8l161 -337h70l161 337h8v-635h40v675zM537 566v-566h-29v446l-93 -194h-133l-91 193v-445h-29v566l141 -284h92z" />
<glyph unicode="n" horiz-adv-x="603" d="M97 691v-691h-29v720h151l186 -433v433h29v-575l-234 546h-103zM153 635h9l253 -589h75v674h-40v-635h-8l-253 590h-75v-675h39v635zM536 720v-720h-151l-186 434v-434h-29v575l234 -546h103v691h29z" />
<glyph unicode="o" horiz-adv-x="543" d="M272 732q97 0 165.5 -68.5t68.5 -165.5v-278q0 -97 -68.5 -165.5t-165.5 -68.5t-165.5 68.5t-68.5 165.5v278q0 97 68.5 165.5t165.5 68.5zM477 220v278q0 85 -60 145t-145 60t-145 -60t-60 -145v-278q0 -85 60 -145t145 -60t145 60t60 145zM272 687q78 0 133 -55.5 t55 -133.5v-278q0 -78 -55 -133t-133 -55t-132.5 54.5t-55.5 133.5v278q0 78 55 133.5t133 55.5zM420 220v278q0 62 -43.5 105.5t-104.5 43.5q-62 0 -105.5 -43.5t-43.5 -105.5v-278q1 -62 44.5 -105.5t104.5 -43.5t104.5 43.5t43.5 105.5zM272 630q55 0 93.5 -38.5 t38.5 -93.5v-278q0 -55 -38.5 -93.5t-93.5 -38.5t-93.5 38.5t-38.5 93.5v278q0 55 38.5 93.5t93.5 38.5zM375 220v278q0 43 -30 73t-73 30t-73 -30t-30 -73v-278q0 -43 30 -73t73 -30t73 30t30 73z" />
<glyph unicode="p" horiz-adv-x="553" d="M68 720h234q97 0 165.5 -68.5t68.5 -165.5t-68.5 -165.5t-165.5 -68.5h-75v30h75q85 0 145 59.5t60 144.5t-60 145t-145 60h-205v-691h-29v720zM450 486q0 62 -43.5 105.5t-104.5 43.5h-149v-635h-39v675h188q78 0 133 -55.5t55 -133.5t-55 -133t-133 -55h-75v40h75 q61 0 104.5 43.5t43.5 104.5zM405 486q0 43 -30 73t-73 30h-103v-589h-29v618h132q55 0 93.5 -38.5t38.5 -93.5q0 -54 -38.5 -93t-93.5 -39h-75v30h75q43 0 73 30t30 72z" />
<glyph unicode="q" horiz-adv-x="544" d="M272 732q97 0 165.5 -68.5t68.5 -165.5v-250h-29v250q0 85 -60 145t-145 60t-145 -60t-60 -145v-278q0 -85 60 -145t145 -60v-29q-97 0 -165.5 68.5t-68.5 165.5v278q0 97 68.5 165.5t165.5 68.5zM123 498v-278q0 -61 43.5 -104.5t105.5 -44.5v-40q-79 1 -133.5 56 t-54.5 133v278q0 78 55 133t133 55t133 -55t55 -133v-250h-40v250q0 62 -43.5 105.5t-104.5 43.5q-62 0 -105.5 -43.5t-43.5 -105.5zM169 498v-278q0 -43 30 -73t73 -30v-29q-55 0 -93.5 38.5t-38.5 93.5v278q0 55 38.5 93.5t93.5 38.5t93.5 -38.5t38.5 -93.5v-250h-29v250 q0 43 -30 73t-73 30t-73 -30t-30 -73zM272 219v29q97 0 165.5 -68.5t68.5 -165.5h-29q0 85 -60 145t-145 60zM272 162v40q79 -1 133 -55t56 -133h-40q-1 61 -44.5 104t-104.5 44zM272 117v29q55 0 93.5 -39t38.5 -93h-29q0 42 -30 72.5t-73 30.5z" />
<glyph unicode="r" horiz-adv-x="603" d="M535 487q0 -97 -68 -165.5t-165 -68.5h-75v29h75q85 0 144.5 60t59.5 145t-59.5 144.5t-144.5 59.5h-205v-691h-29v721h234q97 0 165 -68.5t68 -165.5zM450 487q0 61 -43.5 104.5t-104.5 43.5h-149v-635h-40v675h189q77 0 132.5 -55t55.5 -133t-55.5 -133.5t-132.5 -55.5 h-75v40h75q61 0 104.5 44t43.5 105zM404 487q0 42 -30 72t-72 30h-103v-589h-29v619h132q54 0 93 -39t39 -93q0 -55 -39 -93.5t-93 -38.5h-75v29h75q42 0 72 30t30 73zM457 284l22 19q56 -65 56 -153v-150h-29v150q0 76 -49 134zM408 253l36 20q46 -54 46 -123v-150h-40v150 q0 58 -42 103zM357 237l34 10q43 -43 43 -97v-150h-30v150q0 43 -30 73q-8 8 -17 14z" />
<glyph unicode="s" horiz-adv-x="515" d="M231 300q-104 36 -145.5 100t-41.5 133q0 86 58.5 143t148.5 58q78 -2 133 -45q82 -65 82 -170h-29q0 90 -71 147q-48 37 -115 39q-78 -1 -128.5 -50t-49.5 -122q1 -70 43 -124t125 -82q122 -41 124 -133q-2 -45 -30.5 -75.5t-74.5 -30.5q-44 0 -73 23q-43 34 -43 90h29 q0 -43 32 -67q22 -17 55 -17q31 0 53 21t23 56q0 70 -105 106zM421 192q0 -67 -45.5 -113.5t-115.5 -46.5q-63 0 -108 36q-63 48 -65 133h40q2 -65 50 -103q35 -27 83 -27q53 0 86.5 35.5t34.5 87.5q0 104 -133 148q-77 26 -117.5 76.5t-41.5 114.5q-1 66 45 110t117 45 q60 0 105 -36q63 -48 65 -133h-40q-2 65 -50 103q-34 26 -81 26q-54 0 -87 -32.5t-34 -84.5q1 -49 34.5 -90t97.5 -62q160 -54 160 -187zM467 192q0 -86 -59 -146t-148 -60q-77 0 -136 45q-82 65 -82 170h29q0 -90 71 -147q50 -39 118 -39q77 0 128.5 52t49.5 125 q-5 146 -171 203q-59 20 -90 56.5t-31 79.5q0 44 28.5 72t75.5 29q42 0 71 -23q43 -34 43 -90h-29q0 43 -32 67q-22 17 -53 17q-32 -1 -53.5 -19t-21.5 -53q0 -74 102 -109q190 -66 190 -230z" />
<glyph unicode="t" horiz-adv-x="428" d="M130 720v-29h-137v29h137zM435 720v-29h-249v-691h-29v720h278zM130 675h-137v-40h137v40zM242 635h193v40h-232v-673h39v633zM-7 618h137v-29h-137v29zM259 618h176v-29h-147v-589h-29v618z" />
<glyph unicode="u" horiz-adv-x="603" d="M536 720v-499q0 -97 -68.5 -165.5t-165.5 -68.5t-165.5 68.5t-68.5 165.5v499h29v-499q0 -85 60 -145t145 -60t145 60t60 145v499h29zM302 33q-78 0 -133 55t-55 133v499h40v-499q0 -62 43.5 -105.5t104.5 -43.5q62 0 105.5 44t43.5 105v499h39v-499q0 -78 -55 -133 t-133 -55zM302 89q-55 0 -93.5 38.5t-38.5 93.5v499h29v-499q0 -43 30.5 -73t72.5 -30q43 0 73 30t30 73v499h29v-499q0 -55 -38.5 -93.5t-93.5 -38.5z" />
<glyph unicode="v" d="M515 720v-373l-149 -347h-170l-149 347v373h29v-367l139 -324h132l139 324v367h29zM469 357v363h-40v-356l-119 -279h-58l-120 279v356h-39v-363l132 -311h111zM149 368v352h29v-346l103 -240l103 240v346h29v-352l-114 -266h-36z" />
<glyph unicode="w" horiz-adv-x="645" d="M597 720v-539l-60 -181h-136l-78 186l-78 -186h-137l-60 181v539h29v-534l52 -157h95l99 237l99 -237h94l52 157v534h29zM552 188v532h-40v-526l-37 -109h-13l-104 253h-71l-104 -253h-13l-37 109v526h-40v-532l47 -142h72l104 252h13l104 -252h72zM150 198v522h29v-513 l75 177h137l75 -177v513h30v-522l-27 -80l-99 236h-95l-99 -236z" />
<glyph unicode="x" d="M188 379l-140 194v147h29v-138l129 -178zM77 138v-138h-29v147l337 468v105h29v-114zM216 418l-122 170v132h39v-120l107 -147zM133 120l337 468v132h-40v-120l-336 -468v-132h39v120zM516 720v-147l-337 -468v-105h-29v115l337 467v138h29zM250 466l-100 140v114h29 v-105l89 -124zM376 341l140 -194v-147h-29v138l-129 178zM348 302l122 -170v-132h-40v120l-107 148zM313 254l101 -139v-115h-29v105l-90 124z" />
<glyph unicode="y" d="M245 305v-305h-29v295l-168 210v215h29v-204zM301 325l-168 210v185h-40v-198l169 -211v-311h39v325zM347 341v-341h-29v331l-168 210v179h29v-169zM413 720v-177l-111 -111l-18 23l100 101v164h29zM470 720v-200l-132 -132l-26 32l118 116v184h40zM515 720v-219 l-149 -149l-18 23l138 138v207h29z" />
<glyph unicode="z" d="M511 548l-333 -417h329v-29h-362v35l337 421v133h-436v29h465v-172zM507 85h-379v58l337 421v111h-419v-40h379v-58l-336 -421v-110h418v39zM72 29h435v-29h-464v173l333 416h-330v29h363v-35l-337 -421v-133z" />
<glyph unicode="|" horiz-adv-x="370" d="M120 800h29v-1000h-29v1000zM205 800h-40v-1000h40v1000zM221 800h30v-1000h-30v1000z" />
<glyph unicode="&#xb7;" horiz-adv-x="258" d="M129 281q32 0 55.5 23t23.5 56q0 32 -23.5 55.5t-55.5 23.5t-55.5 -23.5t-23.5 -55.5q0 -33 23.5 -56t55.5 -23zM129 412q22 0 37 -15t15 -37t-15 -37t-37 -15t-37 15t-15 37t15 37t37 15zM129 327q14 0 23.5 9.5t9.5 23.5t-10 23.5t-23 9.5t-23 -9.5t-10 -23.5 t9.5 -23.5t23.5 -9.5z" />
<glyph unicode="&#xc4;" d="M121 675q32 0 55.5 23t23.5 56q0 32 -23.5 55.5t-55.5 23.5t-55.5 -23.5t-23.5 -55.5q0 -33 23.5 -56t55.5 -23zM442 675q32 0 55.5 23t23.5 56q0 32 -23.5 55.5t-55.5 23.5t-55.5 -23.5t-23.5 -55.5q0 -33 23.5 -56t55.5 -23zM121 806q22 0 37 -15t15 -37t-15 -37 t-37 -15t-37 15t-15 37t15 37t37 15zM442 806q22 0 37 -15t15 -37t-15 -37t-37 -15t-37 15t-15 37t15 37t37 15zM121 721q14 0 23.5 9.5t9.5 23.5t-10 23.5t-23 9.5t-23 -9.5t-10 -23.5t9.5 -23.5t23.5 -9.5zM442 721q14 0 23.5 9.5t9.5 23.5t-9.5 23.5t-23.5 9.5 t-23.5 -9.5t-9.5 -23.5t9.5 -23.5t23.5 -9.5zM509 358v-166h-309v30h279v129l-140 280h-129l-140 -280v-351h-29v358l151 302h165zM126 338l119 237h59l119 -237v-60h-223v-40h263v109l-134 268h-109l-133 -269v-346h39v338zM273 529l-101 -202v-327h-29v334l112 224h39 l113 -224v-40h-207v30h178v3l-102 202h-3zM407 171v-171h-29v171h29zM463 171h-40v-171h40v171zM509 171v-171h-30v171h30z" />
<glyph unicode="&#xd6;" horiz-adv-x="543" d="M116 679q-32 0 -55.5 23t-23.5 56q0 32 23.5 55.5t55.5 23.5t55.5 -23.5t23.5 -55.5q0 -33 -23.5 -56t-55.5 -23zM423 679q-32 0 -55.5 23t-23.5 56q0 32 23.5 55.5t55.5 23.5t55.5 -23.5t23.5 -55.5q0 -33 -23.5 -56t-55.5 -23zM116 810q-22 0 -37 -15t-15 -37t15 -37 t37 -15t37 15t15 37t-15 37t-37 15zM423 810q-22 0 -37 -15t-15 -37t15 -37t37 -15t37 15t15 37t-15 37t-37 15zM116 725q-14 0 -23.5 9.5t-9.5 23.5t9.5 23.5t23.5 9.5t23.5 -9.5t9.5 -23.5t-9.5 -23.5t-23.5 -9.5zM423 725q-14 0 -23.5 9.5t-9.5 23.5t10 23.5t23 9.5 t23 -9.5t10 -23.5t-9.5 -23.5t-23.5 -9.5zM265 660q97 0 165.5 -68.5t68.5 -165.5v-205q0 -97 -68.5 -165.5t-165.5 -68.5t-165.5 68.5t-68.5 165.5v205q0 97 68.5 165.5t165.5 68.5zM470 221v205q0 85 -60 145t-145 60t-145 -60t-60 -145v-205q0 -85 60 -145t145 -60 t145 60t60 145zM265 615q78 0 133 -55.5t55 -133.5v-205q0 -78 -55 -133t-133 -55t-132.5 54.5t-55.5 133.5v205q0 78 55 133.5t133 55.5zM413 221v205q0 62 -43.5 105.5t-104.5 43.5t-105 -43.5t-44 -105.5v-205q1 -62 44.5 -105.5t104.5 -43.5t104.5 43.5t43.5 105.5z M265 558q55 0 93.5 -38.5t38.5 -93.5v-205q0 -55 -38.5 -93.5t-93.5 -38.5t-93.5 38.5t-38.5 93.5v205q0 55 38.5 93.5t93.5 38.5zM368 221v205q0 43 -30 73t-73 30t-73 -30t-30 -73v-205q0 -43 30 -73t73 -30t73 30t30 73z" />
<glyph unicode="&#xd7;" horiz-adv-x="482" d="M343 567l21 -20l-84 -84l-20 21zM119 544l21 21l295 -295l-21 -21zM375 536l-83 -84l28 -28l83 83zM108 533l-29 -29l295 -294l29 28zM332 412l83 83l21 -20l-84 -84zM48 473l20 20l295 -295l-21 -20zM129 353l20 -20l-83 -84l-21 21zM161 321l-84 -83l29 -28l83 83z M118 198l83 83l21 -21l-84 -83z" />
<glyph unicode="&#xdc;" horiz-adv-x="586" d="M135 689q32 0 55.5 23t23.5 56q0 32 -23.5 55.5t-55.5 23.5t-55.5 -23.5t-23.5 -55.5q0 -33 23.5 -56t55.5 -23zM472 689q32 0 55.5 23t23.5 56q0 32 -23.5 55.5t-55.5 23.5t-55.5 -23.5t-23.5 -55.5q0 -33 23.5 -56t55.5 -23zM135 820q22 0 37 -15t15 -37t-15 -37 t-37 -15t-37 15t-15 37t15 37t37 15zM472 820q22 0 37 -15t15 -37t-15 -37t-37 -15t-37 15t-15 37t15 37t37 15zM135 735q14 0 23.5 9.5t9.5 23.5t-10 23.5t-23 9.5t-23 -9.5t-10 -23.5t9.5 -23.5t23.5 -9.5zM472 735q14 0 23.5 9.5t9.5 23.5t-9.5 23.5t-23.5 9.5 t-23.5 -9.5t-9.5 -23.5t9.5 -23.5t23.5 -9.5zM536 650v-429q0 -97 -68.5 -165.5t-165.5 -68.5t-165.5 68.5t-68.5 165.5v429h29v-429q0 -85 60 -145t145 -60t145 60t60 145v429h29zM302 33q-78 0 -133 55t-55 133v429h40v-429q0 -62 43.5 -105.5t104.5 -43.5q62 0 105.5 44 t43.5 105v429h39v-429q0 -78 -55 -133t-133 -55zM302 89q-55 0 -93.5 38.5t-38.5 93.5v429h29v-429q0 -43 30.5 -73t72.5 -30q43 0 73 30t30 73v429h29v-429q0 -55 -38.5 -93.5t-93.5 -38.5z" />
<glyph unicode="&#xe4;" d="M121 675q32 0 55.5 23t23.5 56q0 32 -23.5 55.5t-55.5 23.5t-55.5 -23.5t-23.5 -55.5q0 -33 23.5 -56t55.5 -23zM442 675q32 0 55.5 23t23.5 56q0 32 -23.5 55.5t-55.5 23.5t-55.5 -23.5t-23.5 -55.5q0 -33 23.5 -56t55.5 -23zM121 806q22 0 37 -15t15 -37t-15 -37 t-37 -15t-37 15t-15 37t15 37t37 15zM442 806q22 0 37 -15t15 -37t-15 -37t-37 -15t-37 15t-15 37t15 37t37 15zM121 721q14 0 23.5 9.5t9.5 23.5t-10 23.5t-23 9.5t-23 -9.5t-10 -23.5t9.5 -23.5t23.5 -9.5zM442 721q14 0 23.5 9.5t9.5 23.5t-9.5 23.5t-23.5 9.5 t-23.5 -9.5t-9.5 -23.5t9.5 -23.5t23.5 -9.5zM509 358v-166h-309v30h279v129l-140 280h-129l-140 -280v-351h-29v358l151 302h165zM126 338l119 237h59l119 -237v-60h-223v-40h263v109l-134 268h-109l-133 -269v-346h39v338zM273 529l-101 -202v-327h-29v334l112 224h39 l113 -224v-40h-207v30h178v3l-102 202h-3zM407 171v-171h-29v171h29zM463 171h-40v-171h40v171zM509 171v-171h-30v171h30z" />
<glyph unicode="&#xf6;" horiz-adv-x="543" d="M116 679q-32 0 -55.5 23t-23.5 56q0 32 23.5 55.5t55.5 23.5t55.5 -23.5t23.5 -55.5q0 -33 -23.5 -56t-55.5 -23zM423 679q-32 0 -55.5 23t-23.5 56q0 32 23.5 55.5t55.5 23.5t55.5 -23.5t23.5 -55.5q0 -33 -23.5 -56t-55.5 -23zM116 810q-22 0 -37 -15t-15 -37t15 -37 t37 -15t37 15t15 37t-15 37t-37 15zM423 810q-22 0 -37 -15t-15 -37t15 -37t37 -15t37 15t15 37t-15 37t-37 15zM116 725q-14 0 -23.5 9.5t-9.5 23.5t9.5 23.5t23.5 9.5t23.5 -9.5t9.5 -23.5t-9.5 -23.5t-23.5 -9.5zM423 725q-14 0 -23.5 9.5t-9.5 23.5t10 23.5t23 9.5 t23 -9.5t10 -23.5t-9.5 -23.5t-23.5 -9.5zM265 660q97 0 165.5 -68.5t68.5 -165.5v-205q0 -97 -68.5 -165.5t-165.5 -68.5t-165.5 68.5t-68.5 165.5v205q0 97 68.5 165.5t165.5 68.5zM470 221v205q0 85 -60 145t-145 60t-145 -60t-60 -145v-205q0 -85 60 -145t145 -60 t145 60t60 145zM265 615q78 0 133 -55.5t55 -133.5v-205q0 -78 -55 -133t-133 -55t-132.5 54.5t-55.5 133.5v205q0 78 55 133.5t133 55.5zM413 221v205q0 62 -43.5 105.5t-104.5 43.5t-105 -43.5t-44 -105.5v-205q1 -62 44.5 -105.5t104.5 -43.5t104.5 43.5t43.5 105.5z M265 558q55 0 93.5 -38.5t38.5 -93.5v-205q0 -55 -38.5 -93.5t-93.5 -38.5t-93.5 38.5t-38.5 93.5v205q0 55 38.5 93.5t93.5 38.5zM368 221v205q0 43 -30 73t-73 30t-73 -30t-30 -73v-205q0 -43 30 -73t73 -30t73 30t30 73z" />
<glyph unicode="&#xfc;" horiz-adv-x="586" d="M135 689q32 0 55.5 23t23.5 56q0 32 -23.5 55.5t-55.5 23.5t-55.5 -23.5t-23.5 -55.5q0 -33 23.5 -56t55.5 -23zM472 689q32 0 55.5 23t23.5 56q0 32 -23.5 55.5t-55.5 23.5t-55.5 -23.5t-23.5 -55.5q0 -33 23.5 -56t55.5 -23zM135 820q22 0 37 -15t15 -37t-15 -37 t-37 -15t-37 15t-15 37t15 37t37 15zM472 820q22 0 37 -15t15 -37t-15 -37t-37 -15t-37 15t-15 37t15 37t37 15zM135 735q14 0 23.5 9.5t9.5 23.5t-10 23.5t-23 9.5t-23 -9.5t-10 -23.5t9.5 -23.5t23.5 -9.5zM472 735q14 0 23.5 9.5t9.5 23.5t-9.5 23.5t-23.5 9.5 t-23.5 -9.5t-9.5 -23.5t9.5 -23.5t23.5 -9.5zM536 650v-429q0 -97 -68.5 -165.5t-165.5 -68.5t-165.5 68.5t-68.5 165.5v429h29v-429q0 -85 60 -145t145 -60t145 60t60 145v429h29zM302 33q-78 0 -133 55t-55 133v429h40v-429q0 -62 43.5 -105.5t104.5 -43.5q62 0 105.5 44 t43.5 105v429h39v-429q0 -78 -55 -133t-133 -55zM302 89q-55 0 -93.5 38.5t-38.5 93.5v429h29v-429q0 -43 30.5 -73t72.5 -30q43 0 73 30t30 73v429h29v-429q0 -55 -38.5 -93.5t-93.5 -38.5z" />
<glyph unicode="&#x2013;" horiz-adv-x="602" d="M539 445v-29h-476v29h476zM539 400h-476v-40h476v40zM63 343h476v-29h-476v29z" />
<glyph unicode="&#x2014;" horiz-adv-x="735" d="M735 445v-29h-735v29h735zM735 400h-735v-40h735v40zM0 343h735v-29h-735v29z" />
<glyph unicode="&#x2018;" horiz-adv-x="235" d="M39 582v159l83 86l21 -21l-74 -76v-148h-30zM85 582v141l69 71l28 -28l-57 -59v-125h-40zM215 734l-45 -46v-106h-29v118l53 55z" />
<glyph unicode="&#x2019;" horiz-adv-x="235" d="M20 636l45 46v106h29v-118l-53 -55zM150 788v-141l-69 -71l-28 28l57 59v125h40zM196 788v-159l-83 -86l-21 21l74 76v148h30z" />
<glyph unicode="&#x201a;" horiz-adv-x="235" d="M20 -46l45 46v106h29v-118l-53 -55zM150 106v-141l-69 -71l-28 28l57 59v125h40zM196 106v-159l-83 -86l-21 21l74 76v148h30z" />
<glyph unicode="&#x201c;" horiz-adv-x="387" d="M40 582v159l83 86l21 -21l-74 -76v-148h-30zM86 582v141l69 71l28 -28l-57 -59v-125h-40zM216 734l-45 -46v-106h-29v118l53 55zM204 582v99l70 73l21 -21l-61 -63v-88h-30zM250 582v81l56 58l28 -28l-44 -46v-65h-40zM367 661l-32 -33v-46h-29v58l40 42z" />
<glyph unicode="&#x201d;" horiz-adv-x="387" d="M20 709l32 33v46h29v-58l-40 -42zM137 788v-81l-56 -58l-28 28l44 46v65h40zM183 788v-99l-70 -73l-21 21l61 63v88h30zM171 636l45 46v106h29v-118l-53 -55zM301 788v-141l-69 -71l-28 28l57 59v125h40zM347 788v-159l-83 -86l-21 21l74 76v148h30z" />
<glyph unicode="&#x201e;" horiz-adv-x="387" d="M20 27l32 33v46h29v-58l-40 -42zM137 106v-81l-56 -58l-28 28l44 46v65h40zM183 106v-99l-70 -73l-21 21l61 63v88h30zM171 -46l45 46v106h29v-118l-53 -55zM301 106v-141l-69 -71l-28 28l57 59v125h40zM347 106v-159l-83 -86l-21 21l74 76v148h30z" />
<glyph unicode="&#x20ac;" horiz-adv-x="644" d="M372 15q85 0 145 60t60 145h29q0 -97 -68.5 -165.5t-165.5 -68.5t-165.5 68.5t-68.5 165.5v276q0 100 68.5 169.5t165.5 69.5t165.5 -69.5t68.5 -169.5h-29q0 88 -60 149t-145 61t-145 -61t-60 -149v-276q0 -85 60 -145t145 -60zM560 496h-40q-1 66 -44 110t-104 44 q-62 0 -105.5 -44.5t-43.5 -109.5v-276q0 -62 43.5 -105.5t105.5 -43.5q61 0 104 43.5t44 105.5h40q-1 -79 -55.5 -133.5t-132.5 -54.5t-133 55t-55 133v276q0 81 55 137.5t133 56.5t132.5 -56t55.5 -138zM372 604q-43 0 -73 -31t-30 -77h109v-29h-109v-16h109v-40h-109v-17 h109v-29h-109v-13h109v-29h-109v-16h109v-40h-109v-17h109v-29h-109v-1q0 -43 30 -73t73 -30t73 30t30 73h29q0 -55 -38.5 -93.5t-93.5 -38.5t-93.5 38.5t-38.5 93.5v276q0 58 38.5 97.5t93.5 39.5t93.5 -39.5t38.5 -97.5h-29q0 46 -30 77t-73 31zM40 496h70v-29h-70v29z M40 451h70v-40h-70v40zM40 394h70v-29h-70v29zM40 352h70v-29h-70v29zM40 307h70v-40h-70v40zM40 250h70v-29h-70v29z" />
<glyph unicode="&#x2192;" horiz-adv-x="608" d="M558 297l-279 -139l-12 26l261 131v129l-261 131l12 26l278 -139zM512 325l-253 -126l-16 36l229 115v10h-422v40h422v9l-229 115l16 36l254 -126zM422 416h-372v29h249l-77 38l12 26zM422 343l-188 -93l-12 26l77 38h-249v29h372z" />
<glyph unicode="&#x2212;" horiz-adv-x="376" d="M313 425v-29h-250v29h250zM313 380h-250v-40h250v40zM63 323h250v-29h-250v29z" />
<glyph unicode="&#x25fc;" horiz-adv-x="720" d="M0 720h720v-720h-720v720z" />
</font>
</defs>
</svg>
